<svg id="Layer_1" data-name="Layer 1" xmlns="http://www.w3.org/2000/svg" viewBox="0 0 40 40"><defs><style>.cls-1{fill:#666;}</style></defs><title>Artboard 1</title><path class="cls-1" d="M25.91,13.91a8.54,8.54,0,0,0-2.15-1.52,10.07,10.07,0,0,1,1,2A10,10,0,0,0,25.91,13.91Z"/><path class="cls-1" d="M15.76,19.41h3.65V16.32a15.38,15.38,0,0,1-3.13-.45A15.54,15.54,0,0,0,15.76,19.41Z"/><path class="cls-1" d="M16.21,23.85a15.34,15.34,0,0,1,3.2-.48V20.59H15.76A15.72,15.72,0,0,0,16.21,23.85Z"/><path class="cls-1" d="M16.65,14.75a14.17,14.17,0,0,0,2.77.39V11.53l-.51.05A6.22,6.22,0,0,0,16.65,14.75Z"/><path class="cls-1" d="M14,26a8.53,8.53,0,0,0,2.66,1.81,10.08,10.08,0,0,1-1.23-2.47A9.62,9.62,0,0,0,14,26Z"/><path class="cls-1" d="M16.63,12.21a8.52,8.52,0,0,0-2.45,1.61,9.84,9.84,0,0,0,1.32.58A9.86,9.86,0,0,1,16.63,12.21Z"/><path class="cls-1" d="M15.15,15.52a10.85,10.85,0,0,1-1.78-.81,8.44,8.44,0,0,0-1.83,4.7h3.05A16.7,16.7,0,0,1,15.15,15.52Z"/><path class="cls-1" d="M14.58,20.59H11.53a8.44,8.44,0,0,0,1.67,4.49,10.7,10.7,0,0,1,1.87-.88A16.9,16.9,0,0,1,14.58,20.59Z"/><path class="cls-1" d="M18.93,28.42l.48,0V24.55a14.18,14.18,0,0,0-2.86.42A6.43,6.43,0,0,0,18.93,28.42Z"/><path class="cls-1" d="M25.19,24.19a10.76,10.76,0,0,1,1.69.77,8.44,8.44,0,0,0,1.59-4.38H25.68A16.87,16.87,0,0,1,25.19,24.19Z"/><path class="cls-1" d="M23.74,27.62a8.53,8.53,0,0,0,2.36-1.73,9.78,9.78,0,0,0-1.26-.56A10.33,10.33,0,0,1,23.74,27.62Z"/><path class="cls-1" d="M20,3A17,17,0,1,0,37,20,17,17,0,0,0,20,3Zm0,27.25A10.25,10.25,0,1,1,30.25,20,10.26,10.26,0,0,1,20,30.25Z"/><path class="cls-1" d="M21.44,11.64a8.54,8.54,0,0,0-.85-.1v3.62a14.3,14.3,0,0,0,3-.41A6.37,6.37,0,0,0,21.44,11.64Z"/><path class="cls-1" d="M25.11,15.52a16.68,16.68,0,0,1,.56,3.89h2.79a8.44,8.44,0,0,0-1.75-4.6A11,11,0,0,1,25.11,15.52Z"/><path class="cls-1" d="M20.59,28.47c.28,0,.56-.05.84-.1A6.58,6.58,0,0,0,23.71,25a14.3,14.3,0,0,0-3.13-.43Z"/><path class="cls-1" d="M24,15.86a15.46,15.46,0,0,1-3.39.47v3.08H24.5A15.55,15.55,0,0,0,24,15.86Z"/><path class="cls-1" d="M24.5,20.59H20.59v2.78a15.41,15.41,0,0,1,3.46.48A15.69,15.69,0,0,0,24.5,20.59Z"/></svg>