<?xml version="1.0" encoding="utf-8"?>
<!-- Generator: Adobe Illustrator 21.1.0, SVG Export Plug-In . SVG Version: 6.00 Build 0)  -->
<svg version="1.1" id="Layer_1" xmlns="http://www.w3.org/2000/svg" xmlns:xlink="http://www.w3.org/1999/xlink" x="0px" y="0px"
	 viewBox="0 0 40 40" style="enable-background:new 0 0 40 40;" xml:space="preserve">
<style type="text/css">
	.st0{fill:#666666;}
	.st1{fill:#FFFFFF;}
</style>
<title>Artboard 1</title>
<path class="st0" d="M20,3C10.6,3,3,10.6,3,20s7.6,17,17,17s17-7.6,17-17S29.4,3,20,3z"/>
<path class="st1" d="M22.5,15.5v0.6c-0.7-0.5-1.7-0.9-2.7-0.9c-2.7,0-4.7,2.1-4.7,4.8c0,2.8,2,4.8,4.8,4.8c1.3,0,2.5-0.5,3.2-1.3
	c0.6,0.9,1.5,1.3,2.7,1.3c2.6,0,4.3-2.3,4.3-5.7c0-5.2-4.3-9.3-9.9-9.3C14.5,9.9,10,14.5,10,20.1c0,5.7,4.6,10.3,10.2,10.3
	c2.2,0,4.3-0.7,5.9-2l0.4-0.3l-0.8-1.2l-0.4,0.3c-1.4,1.1-3.2,1.7-5,1.7c-4.8,0-8.8-4-8.8-8.9s3.9-8.9,8.7-8.9c4.1,0,8.4,3,8.4,7.9
	c0,2-0.8,4.3-2.9,4.3c-1.2,0-1.8-0.7-1.8-2.1v-5.9H22.5z M19.8,16.7c1.2,0,2.1,0.5,2.7,1.6v3.7c-0.3,0.6-1,1.6-2.7,1.6
	c-1.9,0-3.3-1.4-3.3-3.4C16.5,18.1,17.9,16.7,19.8,16.7z"/>
</svg>
