<svg xmlns="http://www.w3.org/2000/svg" xmlns:xlink="http://www.w3.org/1999/xlink" xmlns:a="http://ns.adobe.com/AdobeSVGViewerExtensions/3.0/" version="1.1" x="0px" y="0px" viewBox="0 0 32 40" overflow="visible" enable-background="new 0 0 32 32" xml:space="preserve"><path d="M31.414,28.586l-7.923-7.934c1.57-2.148,2.507-4.788,2.507-7.652c0-7.18-5.819-13-12.999-13  C5.82,0,0,5.82,0,13s5.82,13,12.999,13c2.871,0,5.515-0.941,7.666-2.518l7.92,7.932c0.781,0.781,2.047,0.781,2.828,0  S32.195,29.367,31.414,28.586z M4,13c0-4.971,4.029-9,8.999-9c4.971,0,9,4.029,9,9s-4.029,9-9,9C8.029,22,4,17.971,4,13z"/><text x="0" y="47" fill="#000000" font-size="5px" font-weight="bold" font-family="'Helvetica Neue', Helvetica, Arial-Unicode, Arial, Sans-serif">Created by Shmidt Sergey</text><text x="0" y="52" fill="#000000" font-size="5px" font-weight="bold" font-family="'Helvetica Neue', Helvetica, Arial-Unicode, Arial, Sans-serif">from the Noun Project</text></svg>