<svg id="Layer_1" data-name="Layer 1" xmlns="http://www.w3.org/2000/svg" viewBox="0 0 72 72"><defs><style>.cls-1{fill:#dc143c;}.cls-2{fill:gray;}</style></defs><title>Artboard 3</title><path class="cls-1" d="M38.1,33.43v-.07l0,.07Z"/><path class="cls-2" d="M36,1A35,35,0,1,0,71,36,35,35,0,0,0,36,1ZM26.45,52.73h-7.5V30.16h7.5ZM22.69,27.08h0a3.91,3.91,0,1,1,.1-7.8,3.91,3.91,0,1,1,0,7.8ZM53.5,52.73H46V40.65c0-3-1.09-5.11-3.8-5.11a4.11,4.11,0,0,0-3.85,2.75,5.1,5.1,0,0,0-.25,1.83v12.6H30.6s.1-20.45,0-22.57h7.5v3.2a7.45,7.45,0,0,1,6.76-3.73c4.93,0,8.64,3.22,8.64,10.16Z"/></svg>