<?xml version="1.0" standalone="no"?>
<!DOCTYPE svg PUBLIC "-//W3C//DTD SVG 1.1//EN" "http://www.w3.org/Graphics/SVG/1.1/DTD/svg11.dtd" >
<svg xmlns="http://www.w3.org/2000/svg">
<metadata>
Created by FontPrep 20130207 at Tue Feb 13 02:17:02 2018
 By Sun Law
Copyright (C) 1996-2005, Hoefler &#38; Frere-Jones, Inc. www.typography.com
</metadata>
<defs>
<font id="55650252295753a1af9cfb9e84d232bb" horiz-adv-x='1024' >
  <font-face 
    font-family="Mercury-DisplaySemiboldItalic"
    font-weight="700"
    font-style="italic"
    font-stretch="normal"
    units-per-em="2048"
    panose-1="0 0 0 0 0 0 0 0 0 0"
    ascent="1638"
    descent="-410"
    x-height="954"
    cap-height="1305"
    bbox="-326 -526 2001 1852.6"
    underline-thickness="102"
    underline-position="-153"
    slope="-12"
    unicode-range="U+0020-FB02"
  />
<missing-glyph 
 />
    <glyph glyph-name=".notdef" 
 />
    <glyph glyph-name=".null" horiz-adv-x="0" 
 />
    <glyph glyph-name="nonmarkingreturn" horiz-adv-x="681" 
 />
    <glyph glyph-name="space" unicode=" " horiz-adv-x="409" 
 />
    <glyph glyph-name="exclam" unicode="!" horiz-adv-x="555" 
d="M211 -33q-55 0 -95 40t-40 95q0 54 40 94t95 40t94 -39t39 -95t-39 -95q-39 -40 -94 -40zM379 1337q133 0 133 -135q0 -87 -101 -411t-130 -420l-56 10q2 109 5 412t18 407q23 137 131 137z" />
    <glyph glyph-name="quotedbl" unicode="&#x22;" horiz-adv-x="679" 
d="M356 1335q35 1 57 -21q21 -22 21 -52t-16 -56q-20 -41 -139 -186l-109 -129l-25 12l48 152q55 172 77 217q29 63 86 63zM620 1335q44 1 66 -21t21 -52q0 -30 -20 -64q-20 -33 -138 -178l-111 -129l-24 12l51 156q55 166 83 221t72 55z" />
    <glyph glyph-name="numbersign" unicode="#" horiz-adv-x="1185" 
d="M430 481h266l47 156l31 117h-264zM102 399v82h244l80 273h-260v82h283l90 325l86 -26l-90 -299h262l92 325l84 -26l-88 -299h225v-82h-250l-43 -142l-35 -131h265v-82h-287l-84 -307l-86 27l82 280h-262l-84 -307l-86 27l84 280h-222z" />
    <glyph glyph-name="dollar" unicode="$" horiz-adv-x="1056" 
d="M717 266q0 74 -43 126t-123 100l-84 -453q113 -10 181 53t69 174zM547 782l80 432q-94 12 -161 -51q-66 -63 -66 -176t147 -205zM928 389q0 -180 -137 -300t-336 -118l-35 -176l-74 15q35 164 35 165q-197 18 -328 88l53 357l37 4q86 -313 254 -373l99 471
q-162 90 -213 140q-96 92 -97 219q0 173 131 289t324 112l27 150l75 -15l-30 -141q156 -18 258 -86l-41 -299l-39 -4q-84 260 -195 309l-92 -446q79 -40 155 -91q75 -51 90 -71l39 -52q40 -53 40 -147z" />
    <glyph glyph-name="percent" unicode="%" horiz-adv-x="1411" 
d="M862 234q0 -218 115 -218q53 0 94 62q74 112 76 309q0 94 -31 145t-84 52q-80 0 -125 -118t-45 -232zM291 886q0 -216 115 -216q53 0 94 62q75 113 75 308q0 94 -30 146q-31 51 -84 51q-80 0 -125 -118q-45 -119 -45 -233zM946 -33q-120 0 -186 68t-66 210t106 265
t263 123q119 0 185 -68t67 -210q-1 -142 -107 -265t-262 -123zM207 -59l-57 45l542 657l537 670l57 -47l-543 -658zM375 621q-119 -1 -186 67t-66 193q0 161 106 283t263 122q120 0 186 -68t65 -192q0 -160 -106 -282t-262 -123z" />
    <glyph glyph-name="ampersand" unicode="&#x26;" horiz-adv-x="1361" 
d="M551 133q119 0 240 76l77 446h-286q-133 -31 -204 -117t-71 -188q0 -217 244 -217zM215 926q0 145 145 257t326 111q100 0 154 -40t55 -90q0 -50 -33 -82t-91 -32t-114 45q-55 44 -88 126q-57 -29 -93 -103t-36 -168t62 -156t170 -81l250 102l170 191l43 -13l-41 -233
h247l-18 -105h-248l-65 -374q-20 -113 18 -145t114 -32t144 7v-29q-188 -106 -302 -106t-157 41q-43 42 -41 130l-8 5q-159 -175 -370 -175q-156 0 -258 83q-102 84 -102 218t102 233t286 144v9q-221 67 -221 262z" />
    <glyph glyph-name="quotesingle" unicode="'" horiz-adv-x="407" 
d="M347 1335q44 1 66 -21q21 -22 21 -52t-22 -68q-22 -37 -133 -174l-111 -129l-25 12l50 154q53 164 81 221t73 57z" />
    <glyph glyph-name="parenleft" unicode="(" horiz-adv-x="708" 
d="M117 440q0 365 221 663t588 415l8 -39q-195 -80 -338 -257q-143 -178 -212 -394t-69 -448t87 -418q87 -185 249 -284l-24 -38q-231 100 -371 313q-139 213 -139 487z" />
    <glyph glyph-name="parenright" unicode=")" horiz-adv-x="708" 
d="M385 774q0 236 -87 421t-249 284l23 39q233 -100 371 -314t139 -487q0 -367 -220 -663t-587 -414l-11 38q291 118 456 430t165 666z" />
    <glyph glyph-name="asterisk" unicode="*" horiz-adv-x="704" 
d="M375 686l-27 4q-45 42 -35 108t68 165l-8 8q-85 -78 -147 -102t-113 12l-11 24q14 63 80 86q59 23 172 23l2 10q-106 35 -159 77t-47 105l18 21q51 14 111 -27q51 -41 108 -139l10 4q-25 111 -12 176q8 70 64 94l28 -4q86 -78 -33 -272l9 -8q78 73 142 99t118 -9l10 -27
q-18 -59 -80 -84q-57 -20 -174 -24l-2 -11q111 -33 158 -75q55 -43 51 -103l-17 -22q-57 -18 -114 26q-49 41 -109 140l-8 -5q22 -121 12 -182t-65 -88z" />
    <glyph glyph-name="plus" unicode="+" horiz-adv-x="1034" 
d="M948 575h-373l-61 -378h-106l61 378h-377l17 105h376l58 373h106l-57 -373h373z" />
    <glyph glyph-name="comma" unicode="," horiz-adv-x="468" 
d="M138 -14q-34 0 -66 32q-31 32 -31 84q0 50 40 92q41 42 103 42t104 -52t42 -133q-1 -202 -269 -325l-20 26q154 133 184 244l-4 4l-39 -10q-10 -4 -44 -4z" />
    <glyph glyph-name="hyphen" unicode="-" horiz-adv-x="684" 
d="M70 416l24 141h484l-23 -141h-485z" />
    <glyph glyph-name="period" unicode="." horiz-adv-x="436" 
d="M179 -33q-56 0 -95 40t-39 95q0 54 39 94t95 40t95 -39t39 -95t-39 -95q-39 -40 -95 -40z" />
    <glyph glyph-name="slash" unicode="/" horiz-adv-x="714" 
d="M-137 -432l-70 37l572 954l563 961l67 -35l-571 -959z" />
    <glyph glyph-name="zero" unicode="0" horiz-adv-x="1128" 
d="M512 35q92 0 168 130t115 316q39 187 39 365t-50 276t-144 98q-95 0 -171 -130q-76 -132 -115 -318t-39 -373q0 -364 197 -364zM477 -33q-197 0 -300 138t-103 352q0 337 170 583t428 246q197 0 300 -138t103 -351q0 -334 -170 -582t-428 -248z" />
    <glyph glyph-name="one" unicode="1" horiz-adv-x="790" 
d="M-8 0l4 33l237 80l156 970l-209 97l4 24l443 68l6 -6l-182 -1153l208 -80l-6 -33h-661z" />
    <glyph glyph-name="two" unicode="2" horiz-adv-x="1001" 
d="M461 1106q-135 0 -293 -131l-16 24q180 287 430 287q145 0 233 -88t88 -221q1 -170 -151 -344t-498 -426l4 -10h438l183 184l22 -6l-123 -375h-811l-6 41q270 203 486 435t217 425q0 97 -54 151t-149 54z" />
    <glyph glyph-name="three" unicode="3" horiz-adv-x="944" 
d="M350 -33q-166 0 -263 66t-97 162q0 59 38 99t91 40q88 0 120 -80t-8 -170q66 -51 160 -51q94 -1 162 69t68 185t-82 199t-256 122l2 23q215 69 294 149t79 164t-47 128q-46 44 -134 44q-131 0 -293 -112l-18 22q178 260 424 260q131 0 208 -73t76 -179q0 -207 -294 -332
v-14q125 -47 188 -132t63 -183q0 -162 -136 -284t-345 -122z" />
    <glyph glyph-name="four" unicode="4" horiz-adv-x="1079" 
d="M213 516h344l70 436h-4zM266 0l6 33l220 80l40 249h-501l-11 35l846 889l31 -16l-121 -754h215l-24 -154h-215l-39 -249l194 -80l-4 -33h-637z" />
    <glyph glyph-name="five" unicode="5" horiz-adv-x="962" 
d="M274 831q582 -76 582 -432q0 -174 -130 -303t-331 -129q-156 0 -261 69t-105 167q0 63 38 103t93 40q90 0 121 -80t-15 -176q74 -57 164 -57t152 72q61 73 61 202t-109 215q-110 86 -374 121l135 610h532l84 90l21 -8l-58 -286h-550z" />
    <glyph glyph-name="six" unicode="6" horiz-adv-x="1019" 
d="M492 27q91 0 152 121q60 122 60 270t-58 226q-58 79 -171 79q-66 0 -115 -18q-61 -145 -61 -311t51 -267q51 -100 142 -100zM938 467q0 -195 -133 -345t-331 -151q-198 0 -300 123t-102 319q0 195 97 375t302 324t483 197l11 -41q-406 -172 -576 -496l8 -8q96 51 205 51
q150 0 243 -97t93 -251z" />
    <glyph glyph-name="seven" unicode="7" horiz-adv-x="917" 
d="M49 -31l361 500l397 580h-537l-116 -121l-23 6l100 377l19 6l41 -64h706l11 -18l-752 -1266h-207z" />
    <glyph glyph-name="eight" unicode="8" horiz-adv-x="980" 
d="M449 25q92 0 146 56q54 55 54 143t-41 154t-83 102q-42 34 -132 100q-152 -125 -151 -312q0 -106 57 -175q58 -68 150 -68zM752 1026q0 90 -52 146t-134 56q-83 0 -137 -60q-54 -62 -54 -140t35 -136q34 -58 74 -92t114 -85q154 125 154 311zM866 338q0 -154 -121 -262
t-302 -109q-181 0 -289 85t-109 207q0 122 83 212t232 133q-88 66 -138 138t-50 176q0 152 114 262t280 108q166 0 268 -82t102 -202q0 -229 -299 -318q109 -80 169 -159t60 -189z" />
    <glyph glyph-name="nine" unicode="9" horiz-adv-x="1019" 
d="M584 551q70 0 112 16q58 145 58 305t-47 258t-139 98t-156 -118q-64 -119 -64 -265t60 -220t176 -74zM461 457q-152 0 -248 96t-96 250q0 189 131 335t330 146t301 -121t102 -314t-97 -371t-302 -322q-205 -146 -484 -209l-10 41q422 188 582 514l-8 8q-100 -53 -201 -53
z" />
    <glyph glyph-name="colon" unicode=":" horiz-adv-x="466" 
d="M169 -33q-56 0 -95 40t-39 95q0 54 39 94t95 40t95 -39t39 -95t-39 -95q-39 -40 -95 -40zM267 586q-56 0 -95 39t-39 94t39 94t95 39t95 -39t39 -94t-39 -94t-95 -39z" />
    <glyph glyph-name="semicolon" unicode=";" horiz-adv-x="477" 
d="M129 -14q-35 0 -66 32t-31 84q0 50 40 92q38 42 102 42t106 -52t42 -133q-1 -202 -269 -325l-20 26q147 129 184 244l-4 4l-39 -10q-10 -4 -45 -4zM269 852q55 0 95 -39t40 -94t-40 -94q-39 -39 -95 -39t-95 39t-39 94t39 94t95 39z" />
    <glyph glyph-name="less" unicode="&#x3c;" horiz-adv-x="1034" 
d="M799 231l-645 363l10 68l762 366l6 -106l-639 -301l545 -295z" />
    <glyph glyph-name="equal" unicode="=" horiz-adv-x="1034" 
d="M84 391l16 105h803l-16 -105h-803zM141 758l17 102h803l-17 -102h-803z" />
    <glyph glyph-name="greater" unicode="&#x3e;" horiz-adv-x="1034" 
d="M147 231l-6 105l637 301l-542 295l38 96l646 -364l-11 -68z" />
    <glyph glyph-name="question" unicode="?" horiz-adv-x="823" 
d="M276 -33q-55 0 -95 40t-40 95q0 54 40 94t95 40q54 0 94 -39t40 -95t-40 -95q-40 -40 -94 -40zM385 356q-94 0 -165 56t-70 153q0 97 63 155t195 120t188 113q57 50 57 131q0 80 -52 132q-53 52 -127 52t-116 -27q20 -43 20 -97t-35 -96q-36 -42 -89 -42t-91 36t-38 95
q0 88 85 143q84 55 240 55t269 -94q113 -93 113 -233t-76 -208q-74 -68 -182 -110q-108 -41 -146 -59q-90 -44 -90 -108q0 -124 199 -113l4 -23q-62 -31 -156 -31z" />
    <glyph glyph-name="at" unicode="@" horiz-adv-x="1736" 
d="M826 190q62 0 141 64l73 434q-61 86 -143 86t-141 -126q-60 -126 -60 -242t34 -166t96 -50zM973 1247q305 0 489 -183q184 -184 184 -422t-140 -410q-142 -172 -351 -173q-86 0 -137 37t-55 103l-9 4q-102 -129 -225 -129q-90 0 -150 70t-61 194q0 188 152 354t342 166
q72 0 129 -33l86 49l12 -4l-102 -579q-29 -156 84 -156q123 0 201 125q78 124 77 348t-155 394t-430 172q-276 0 -459 -204t-183 -520t190 -493q190 -178 492 -178q250 0 465 112l17 -24q-232 -195 -548 -195t-542 186q-109 89 -173 233q-65 144 -64 323q0 342 255 588
t609 245z" />
    <glyph glyph-name="A" unicode="A" horiz-adv-x="1294" 
d="M399 530h342l-96 496h-2zM-96 0l6 35l151 61l656 1221h106l271 -1229l157 -53l-6 -35h-608l4 35l188 43l-73 379h-394l-180 -365l148 -57l-6 -35h-420z" />
    <glyph glyph-name="B" unicode="B" horiz-adv-x="1265" 
d="M571 59q152 -1 236 95t84 247q0 246 -273 246h-94l-90 -573q65 -15 137 -15zM629 713q151 0 231 85t80 226q0 215 -215 217q-88 0 -109 -4l-84 -524h97zM745 1305q451 0 451 -281q0 -131 -101 -217t-278 -109l-2 -10q178 -26 261 -108t83 -205q0 -163 -147 -269
t-400 -106h-632l6 35l196 43l183 1149l-183 43l6 35h557z" />
    <glyph glyph-name="C" unicode="C" horiz-adv-x="1318" 
d="M731 -31q-276 0 -460 157q-183 158 -183 456t212 526t523 227q203 0 342 -73l103 79h30l-57 -456l-41 -4q-78 219 -163 306t-216 87q-197 0 -327 -224t-129 -524q1 -233 115 -357t276 -124q78 0 139 21l266 340l25 -9l-64 -344q-174 -84 -391 -84z" />
    <glyph glyph-name="D" unicode="D" horiz-adv-x="1439" 
d="M432 72l131 4q143 6 254 69q199 113 272 393q32 122 31 257q0 197 -97 315t-294 123l-113 2zM748 1305q294 -1 468 -147t175 -404q1 -324 -225 -539t-625 -215h-561l6 35l196 43l183 1149l-183 43l6 35h560z" />
    <glyph glyph-name="E" unicode="E" horiz-adv-x="1292" 
d="M592 690q98 0 158 44q59 44 110 149l27 57h37l-93 -571h-32l-11 63q-16 102 -62 144t-142 42h-64l-88 -546l270 6q82 2 134 28t114 93l213 223l29 -12l-105 -410h-1107l6 35l196 43l183 1149l-183 43l6 35h1026l-8 -396l-32 -12l-138 199q-55 80 -96 106t-133 29l-191 4
l-86 -545h62z" />
    <glyph glyph-name="F" unicode="F" horiz-adv-x="1218" 
d="M608 670q98 0 158 44q59 44 111 150l28 58h35l-90 -572h-35l-8 64q-13 100 -61 142t-144 42h-86l-82 -520l195 -43l-4 -35h-645l6 35l196 43l183 1149l-183 43l6 35h1026l-8 -396l-32 -12l-138 199q-55 78 -96 106t-131 29l-193 4l-88 -565h80z" />
    <glyph glyph-name="G" unicode="G" horiz-adv-x="1402" 
d="M625 -33q-238 0 -386 160t-149 418q0 319 214 555t525 235q195 0 340 -75l105 81h33l-64 -469l-43 -4q-76 214 -166 310t-217 96q-190 0 -320 -218t-130 -509q-1 -229 107 -350t274 -121q94 0 157 33l76 413l-178 47l6 33h561l-6 -33l-143 -45l-86 -536l-29 -8l-154 102
q-159 -115 -327 -115z" />
    <glyph glyph-name="H" unicode="H" horiz-adv-x="1597" 
d="M-20 0l6 35l196 43l183 1149l-183 43l6 35h623l-6 -35l-189 -43l-81 -510h575l80 510l-174 43l6 35h623l-7 -35l-196 -43l-182 -1149l182 -43l-6 -35h-623l6 35l189 43l88 559h-574l-88 -559l174 -43l-6 -35h-622z" />
    <glyph glyph-name="I" unicode="I" horiz-adv-x="823" 
d="M2 0l6 35l201 43l182 1149l-186 43l4 35h639l-6 -35l-201 -43l-182 -1149l186 -43l-4 -35h-639z" />
    <glyph glyph-name="J" unicode="J" horiz-adv-x="1046" 
d="M276 -39q-156 1 -230 63t-75 139q0 77 40 122t102 45q100 0 136 -92t-22 -201q147 6 210 81q62 75 91 259l136 850l-193 43l6 35h639l-6 -35l-197 -43l-122 -770q-23 -139 -59 -225t-101 -144q-144 -127 -355 -127z" />
    <glyph glyph-name="K" unicode="K" horiz-adv-x="1398" 
d="M-20 0l6 35l196 43l183 1149l-183 43l6 35h623l-6 -35l-189 -43l-86 -537h125l453 506l-131 82l4 27h483l-6 -35l-205 -80l-448 -445l362 -645l146 -65l-4 -35h-555l6 35l129 51l-266 522h-105l-84 -530l172 -43l-4 -35h-622z" />
    <glyph glyph-name="L" unicode="L" horiz-adv-x="1218" 
d="M-20 0l6 35l196 43l183 1149l-183 43l6 35h637l-6 -35l-203 -45l-184 -1153l227 4q85 2 137 30t113 99l207 227l27 -12l-94 -420h-1069z" />
    <glyph glyph-name="M" unicode="M" horiz-adv-x="1843" 
d="M2 0l4 35l178 61l178 1127l-159 47l6 35h481l201 -947h10l500 947h489l-6 -35l-196 -43l-183 -1149l183 -43l-7 -35h-622l6 35l188 43l174 1100h-12l-633 -1178h-55l-278 1176h-15l-170 -1080l156 -61l-4 -35h-414z" />
    <glyph glyph-name="N" unicode="N" horiz-adv-x="1499" 
d="M1090 -12l-658 1077h-14l-154 -965l160 -65l-4 -35h-418l4 35l178 65l176 1106l-151 64l6 35h377l123 -211l424 -711h14l131 821l-160 66l4 35h418l-4 -35l-180 -66l-193 -1216h-79z" />
    <glyph glyph-name="O" unicode="O" horiz-adv-x="1427" 
d="M647 29q131 0 233 128q101 128 153 310t52 376q1 193 -75 313t-207 120t-233 -128t-153 -310q-52 -182 -52 -376t75 -314q76 -119 207 -119zM657 -31q-253 0 -409 163t-156 425q0 317 202 547t501 231q251 0 407 -163t156 -422q0 -207 -89 -385t-252 -287t-360 -109z" />
    <glyph glyph-name="P" unicode="P" horiz-adv-x="1239" 
d="M967 960q-1 138 -63 208t-166 70q-104 1 -122 -3l-94 -608q19 -4 111 -4q162 2 248 100q86 99 86 237zM758 1305q244 1 358 -95t115 -243q1 -186 -145 -304t-363 -118q-94 0 -213 20l-76 -487l193 -43l-6 -35h-641l6 35l196 43l183 1149l-183 43l6 35h570z" />
    <glyph glyph-name="Q" unicode="Q" horiz-adv-x="1427" 
d="M647 29q131 0 233 128q101 128 153 310t52 376q1 193 -75 313t-207 120t-233 -128t-153 -310q-52 -182 -52 -376t75 -314q76 -119 207 -119zM926 -389q-205 0 -279 67q-49 39 -100 191l-41 119q-190 46 -302 198t-112 371q0 317 202 547t501 231q251 0 407 -163t156 -437
t-169 -496t-431 -262q72 -183 150 -245t206 -90l-6 -31h-182z" />
    <glyph glyph-name="R" unicode="R" horiz-adv-x="1339" 
d="M971 1001q0 104 -65 170t-169 67t-121 -3l-90 -573l119 4q158 4 242 94t84 241zM774 1305q242 0 354 -84t111 -230q0 -145 -118 -237t-312 -121l-2 -10q105 -25 157 -81t85 -167q59 -203 98 -247t71 -62t87 -31l-7 -35h-231q-117 0 -161 46t-81 167l-65 223
q-31 100 -70 131t-123 31h-51l-82 -520l180 -43l-6 -35h-628l6 35l196 43l183 1149l-183 43l6 35h586z" />
    <glyph glyph-name="S" unicode="S" horiz-adv-x="1083" 
d="M512 39q118 -1 182 65t64 167t-75 166q-42 37 -76 57t-140 77t-165 112q-60 55 -80 109t-21 126q0 182 131 300t292 118t259 -72l86 69h37l-25 -411l-41 -7q-78 201 -142 276q-65 75 -160 75q-94 0 -158 -65t-64 -159q0 -51 15 -90q24 -64 134 -130q33 -19 136 -75
t165 -111q62 -56 84 -110t21 -125q1 -197 -143 -315t-330 -117q-186 0 -312 84l-92 -82h-37l37 461l47 4q78 -225 166 -311t205 -86z" />
    <glyph glyph-name="T" unicode="T" horiz-adv-x="1306" 
d="M238 0l6 35l207 43l184 1157h-76q-74 -2 -120 -33t-124 -117l-178 -204l-31 10l113 414h1096l-2 -414l-35 -10l-121 204q-51 86 -90 117t-109 33h-73l-185 -1157l197 -43l-6 -35h-653z" />
    <glyph glyph-name="U" unicode="U" horiz-adv-x="1460" 
d="M698 -33q-276 0 -396 134t-79 391l117 735l-182 43l6 35h635l-4 -35l-201 -43l-119 -752q-61 -391 285 -391q166 0 263 101t122 261l123 762l-146 62l6 35h390l-7 -35l-165 -62l-127 -805q-31 -188 -173 -312t-348 -124z" />
    <glyph glyph-name="V" unicode="V" horiz-adv-x="1312" 
d="M543 -12l-287 1229l-162 53l6 35h613l-4 -35l-185 -43l181 -922l471 901l-132 64l7 35h393l-6 -35l-154 -70l-672 -1212h-69z" />
    <glyph glyph-name="W" unicode="W" horiz-adv-x="1878" 
d="M442 -12l-186 1229l-162 53l4 35h598l-6 -35l-170 -43l103 -897l370 719l-35 168l-141 53l6 35h568l-7 -35l-170 -43l140 -897l379 874l-129 66l6 35h391l-6 -35l-154 -72l-579 -1210h-72l-176 942l-504 -942h-68z" />
    <glyph glyph-name="X" unicode="X" horiz-adv-x="1411" 
d="M-31 0l6 35l166 55l475 528l-299 605l-155 47l6 35h602l-4 -35l-168 -41l188 -441l342 429l-143 53l6 35h451l-6 -35l-166 -56l-447 -497l316 -635l155 -47l-6 -35h-602l4 35l168 41q-205 475 -207 475l-368 -463l143 -53l-6 -35h-451z" />
    <glyph glyph-name="Y" unicode="Y" horiz-adv-x="1300" 
d="M248 0l6 35l201 51l77 496l-278 628l-158 60l6 35h611l-6 -35l-168 -49l213 -553l372 544l-133 60l6 33h426l-6 -37l-164 -62l-467 -608l-81 -512l186 -51l-4 -35h-639z" />
    <glyph glyph-name="Z" unicode="Z" horiz-adv-x="1273" 
d="M-23 0l-4 20l969 1207l-309 -2q-80 -2 -134 -30t-137 -108l-172 -169l-24 12l98 375h1004l4 -21l-965 -1208l377 4q80 0 131 28t111 95l194 217l25 -12l-103 -408h-1065z" />
    <glyph glyph-name="bracketleft" unicode="[" horiz-adv-x="628" 
d="M25 -360l299 1878h542l-10 -66h-344l-279 -1747h347l-13 -65h-542z" />
    <glyph glyph-name="backslash" unicode="\" horiz-adv-x="765" 
d="M764 -432l-408 960l-422 957l74 33l410 -961l420 -954z" />
    <glyph glyph-name="bracketright" unicode="]" horiz-adv-x="628" 
d="M-236 -360l11 65h344l278 1747h-344l10 66h543l-299 -1878h-543z" />
    <glyph glyph-name="asciicircum" unicode="^" horiz-adv-x="641" 
d="M150 1036l-25 25l326 369h36l187 -369l-31 -25l-209 176z" />
    <glyph glyph-name="underscore" unicode="_" horiz-adv-x="909" 
d="M-31 0v80h901v-80h-901z" />
    <glyph glyph-name="grave" unicode="`" horiz-adv-x="495" 
d="M453 1055q-14 16 -102 114t-112 143q-24 44 -15 85t45 61t73 6t55 -58t82 -335z" />
    <glyph glyph-name="a" unicode="a" horiz-adv-x="1011" 
d="M426 125q74 0 168 78l92 536q-76 109 -172 109q-68 0 -125 -77t-89 -189t-32 -225q0 -112 42 -172t116 -60zM307 -23q-111 1 -187 89t-75 238q0 150 85 302t227 250t294 98q80 0 158 -39l109 60l14 -8l-135 -768q-9 -63 21 -85t165 -26l4 -14q-152 -96 -276 -97
q-125 0 -129 156l-11 6q-129 -162 -264 -162z" />
    <glyph glyph-name="b" unicode="b" horiz-adv-x="1003" 
d="M488 84q104 0 178 155t73 334q0 233 -176 234q-84 0 -162 -49l-98 -565q81 -109 185 -109zM362 -23q-82 0 -160 29t-124 70l207 1239l-129 84v20l360 103l8 -6l-114 -691l8 -8q143 137 268 137t200 -88t75 -239q0 -233 -189 -441t-410 -209z" />
    <glyph glyph-name="c" unicode="c" horiz-adv-x="847" 
d="M418 -23q-170 1 -266 107t-97 266q0 240 163 422t378 182q114 0 180 -55t66 -119t-32 -102q-32 -37 -86 -37t-89 39t-35 102t23 121q-133 -4 -241 -161t-108 -355q0 -137 65 -205t181 -68t236 97l16 -18q-60 -100 -156 -158t-198 -58z" />
    <glyph glyph-name="d" unicode="d" horiz-adv-x="1026" 
d="M436 125q78 0 172 78l92 536q-80 109 -178 109q-72 0 -132 -77t-91 -187t-31 -225q0 -114 45 -174t123 -60zM315 -23q-115 -1 -193 89t-77 239q0 236 189 443t425 206q41 0 74 -8l62 369l-129 84v20l360 103l8 -6l-221 -1317q-10 -68 23 -88t163 -23l5 -14
q-152 -96 -279 -97q-127 0 -127 156l-10 6q-68 -82 -130 -122t-143 -40z" />
    <glyph glyph-name="e" unicode="e" horiz-adv-x="868" 
d="M643 791q1 45 -21 71t-63 27q-95 -1 -173 -115t-103 -264q180 -6 270 82t90 199zM512 113q125 0 250 104l14 -18q-54 -97 -158 -159t-219 -63q-166 1 -258 105t-92 260q0 238 162 425t387 187q114 0 180 -57t66 -141q0 -125 -136 -215t-432 -86q-29 -342 236 -342z" />
    <glyph glyph-name="f" unicode="f" horiz-adv-x="626" 
d="M-72 -449q-80 0 -130 38q-50 39 -50 89t33 82t84 31q119 0 188 -139q51 82 86 328l117 833h-217l6 37l229 80l7 41q43 270 217 426q133 121 288 121q82 0 136 -40t53 -94q0 -54 -33 -86t-88 -32t-111 43q-55 43 -90 123q-61 -52 -98 -146t-70 -311l-8 -57h250l-18 -105
h-246l-84 -608q-29 -207 -79 -332t-148 -223t-224 -99z" />
    <glyph glyph-name="g" unicode="g" horiz-adv-x="952" 
d="M408 -379q217 0 219 148q1 72 -95 133t-305 123q-111 -63 -110 -183q0 -90 88 -156q89 -66 203 -65zM295 532q-1 -84 35 -142t98 -58t108 59q82 110 82 293q0 92 -34 150q-34 57 -98 57t-108 -60q-83 -111 -83 -299zM809 -133q0 -127 -127 -221t-333 -95q-207 0 -325 76
q-118 75 -118 179t86 170t231 90l70 219q-98 27 -155 99q-56 73 -56 173q0 158 126 278q126 119 296 119t254 -94q111 133 203 133q53 1 83 -29t31 -76q-1 -46 -27 -78t-64 -32t-62 23t-29 59l-113 -26q49 -72 49 -166q-1 -158 -125 -277t-303 -119h-28q-10 -47 4 -65
t76 -41q211 -74 283 -140t73 -159z" />
    <glyph glyph-name="h" unicode="h" horiz-adv-x="1052" 
d="M757 -23q-126 0 -126 121q0 47 14 109l66 354q25 111 2 170t-109 59t-211 -69l-121 -721h-206l219 1315l-129 84v20l360 103l8 -6l-121 -738l9 -4q201 180 331 180q242 0 181 -336l-80 -419q-12 -65 22 -87t164 -24l4 -14q-151 -97 -277 -97z" />
    <glyph glyph-name="i" unicode="i" horiz-adv-x="563" 
d="M242 -23q-164 0 -125 197l106 586l-133 84v20l369 103l8 -6l-137 -760q-12 -67 20 -89t168 -24l4 -14q-155 -97 -280 -97zM422 1415q115 -1 115 -127q0 -62 -42 -119q-41 -57 -97 -57t-88 33t-32 95t45 119q44 56 99 56z" />
    <glyph glyph-name="j" unicode="j" horiz-adv-x="550" 
d="M-96 -449q-76 0 -123 38q-47 39 -48 89t31 82t82 31q125 0 189 -139q53 80 90 332l113 776l-132 84v20l359 103l8 -6l-108 -760q-31 -209 -73 -324t-146 -221t-242 -105zM434 1415q115 -1 115 -127q0 -62 -42 -119q-41 -57 -97 -57t-88 33t-31 95q0 62 44 119
q44 56 99 56z" />
    <glyph glyph-name="k" unicode="k" horiz-adv-x="954" 
d="M721 -23q-63 0 -99 34t-55 112q-49 203 -87 261t-130 73l-78 -457h-206l221 1315l-131 84v20l360 103l8 -6l-166 -1002q229 57 334 166q-41 59 -41 124q0 66 37 110t92 44t86 -40t31 -95q0 -92 -82 -167t-291 -138v-8q68 -10 107 -36t75 -86t72 -218q10 -48 48 -64
t151 -18l4 -14q-137 -97 -260 -97z" />
    <glyph glyph-name="l" unicode="l" horiz-adv-x="550" 
d="M236 -23q-160 0 -127 197l192 1141l-131 84v20l362 103l9 -6l-219 -1315q-10 -67 22 -89t164 -24l4 -14q-151 -97 -276 -97z" />
    <glyph glyph-name="m" unicode="m" horiz-adv-x="1576" 
d="M1281 -23q-124 0 -124 121q0 47 14 109l66 354q25 119 5 174t-97 55q-78 0 -203 -69l-121 -721h-207l95 561q25 119 7 174t-94 55q-77 0 -202 -69l-121 -721h-209l129 760l-129 84v20l348 103l8 -6l-28 -191l8 -6q209 190 350 190q80 0 120 -51t42 -135l8 -6
q209 193 354 192q104 0 142 -89t6 -247l-80 -419q-10 -63 23 -86t163 -25l7 -14q-156 -97 -280 -97z" />
    <glyph glyph-name="n" unicode="n" horiz-adv-x="1077" 
d="M781 -23q-126 0 -126 121q0 47 15 109l67 354q25 111 1 170t-108 59t-210 -69l-121 -721h-207l127 760l-129 84v20l348 103l8 -6l-28 -191l8 -6q209 190 352 190q119 0 159 -91t11 -245l-80 -419q-12 -65 22 -87t165 -24l4 -14q-152 -97 -278 -97z" />
    <glyph glyph-name="o" unicode="o" horiz-adv-x="989" 
d="M455 49q82 0 141 91q111 171 111 444q0 139 -45 219t-126 80q-80 0 -140 -91q-113 -173 -111 -442q0 -141 44 -221t126 -80zM410 -23q-164 1 -259 99t-96 278q0 228 154 414t375 186q164 0 257 -97t93 -279q0 -231 -152 -416t-372 -185z" />
    <glyph glyph-name="p" unicode="p" horiz-adv-x="1026" 
d="M506 84q72 0 132 77t91 187t31 224t-44 174t-123 60t-171 -69l-94 -544q80 -109 178 -109zM721 954q113 0 187 -88t75 -240q0 -152 -87 -302q-87 -152 -227 -249t-284 -98q-43 0 -90 11l-55 -324l155 -63l-4 -27h-510l6 27l146 63l186 1096l-129 84v20l348 103l8 -6
l-24 -168l6 -7q137 168 293 168z" />
    <glyph glyph-name="q" unicode="q" horiz-adv-x="989" 
d="M438 125q80 0 168 65l92 549q-80 109 -182 109t-176 -155q-72 -155 -72 -335q0 -113 45 -173t125 -60zM45 305q0 236 189 443t425 206q82 0 162 -39l109 60l16 -8l-221 -1303l129 -63l-4 -27h-504l6 27l166 63l78 455l-8 6q-142 -147 -266 -147t-200 88q-76 90 -77 239z
" />
    <glyph glyph-name="r" unicode="r" horiz-adv-x="788" 
d="M702 702q-80 0 -139 80q-82 -27 -153 -114l-111 -668h-207l127 760l-129 84v20l350 103l9 -6l-39 -234l8 -6q57 104 130 170q73 65 139 65t104 -33q37 -34 37 -87t-37 -94q-37 -40 -89 -40z" />
    <glyph glyph-name="s" unicode="s" horiz-adv-x="788" 
d="M315 -23q-131 -1 -216 59t-85 148q0 58 34 96t90 38t84 -64q28 -63 -1 -162q72 -45 149 -45q150 0 150 133q0 88 -127 170l-88 58q-92 57 -135 113t-43 136q0 117 100 207q101 90 237 90t203 -51t67 -111t-30 -91q-28 -29 -78 -29t-88 53t-46 139q-39 20 -86 20t-78 -35
q-31 -36 -31 -89q0 -90 121 -162l102 -63q176 -109 176 -241t-104 -224t-277 -93z" />
    <glyph glyph-name="t" unicode="t" horiz-adv-x="665" 
d="M312 -18q-126 0 -167 63t-16 195l96 573h-147l4 31l209 155l166 191l37 -10l-45 -262h260l-19 -105h-258l-90 -526q-18 -117 18 -147t156 -29q49 0 113 6v-29q-191 -106 -317 -106z" />
    <glyph glyph-name="u" unicode="u" horiz-adv-x="1093" 
d="M311 -23q-123 -1 -165 93t-13 243l84 447l-131 84v20l363 103l8 -6l-111 -590q-25 -109 -1 -167t114 -58t211 71l98 543l-133 84v20l364 103l9 -6l-138 -762q-12 -66 20 -86t167 -25l4 -14q-152 -96 -268 -97q-145 0 -129 183l-11 6q-195 -189 -342 -189z" />
    <glyph glyph-name="v" unicode="v" horiz-adv-x="968" 
d="M297 954q88 0 133 -96q30 -66 54 -244t32 -393l8 -6q201 233 254 408q-74 96 -74 172q0 75 36 117t90 42t88 -44t32 -115q0 -273 -604 -840l-49 25l35 98q-29 453 -92 633q-23 76 -74 75q-35 0 -129 -30l-10 14q150 184 270 184z" />
    <glyph glyph-name="w" unicode="w" horiz-adv-x="1415" 
d="M167 786q-32 0 -128 -30l-10 14q150 184 268 184q90 0 131 -96q32 -66 56 -251t28 -388l8 -6q133 174 221 358q-20 121 -49 308l191 82h16q35 -311 94 -744l8 -4q178 215 228 408q-82 88 -82 184q-2 69 33 109t90 40t88 -44t35 -119q6 -293 -559 -836l-48 25l35 102
q-35 205 -59 358q-162 -243 -418 -485l-49 25l37 102q-29 449 -88 629q-12 41 -28 58t-49 17z" />
    <glyph glyph-name="x" unicode="x" horiz-adv-x="995" 
d="M563 592q143 366 293 366q71 0 111 -34q39 -35 39 -88q0 -52 -34 -90t-85 -37q-78 0 -129 69q-82 -61 -170 -252q74 -218 118 -302t81 -102q38 -17 145 -11l4 -15q-138 -119 -234 -119t-149 84t-104 289l-9 2q-153 -379 -315 -379q-59 0 -99 35t-40 88t33 90q35 37 99 37
t118 -69q76 49 184 262q-76 216 -120 296t-81 98t-143 11l-6 17q145 116 235 116q91 0 145 -84t105 -276z" />
    <glyph glyph-name="y" unicode="y" horiz-adv-x="983" 
d="M139 -449q-78 -1 -126 49t-48 111t30 99t87 36q57 0 93 -58t32 -146q141 78 262 301q-94 475 -215 770q-31 73 -78 73t-131 -30l-12 16q147 182 256 182q51 0 84 -24t67 -90q34 -64 82 -249q49 -185 80 -386h10q119 381 185 766h16l188 -90q-16 -37 -108 -253
q-251 -590 -377 -774q-206 -303 -377 -303z" />
    <glyph glyph-name="z" unicode="z" horiz-adv-x="878" 
d="M604 -23q-68 0 -213 54l-180 61l-172 -94l-31 27l633 692q-270 68 -389 67q-47 0 -76 -14l-2 -8q133 -35 133 -133q-1 -45 -27 -75t-75 -30t-85 39t-36 94q0 100 91 201t216 100q68 0 189 -38l168 -35l143 76l33 -31l-623 -676l295 -64q61 -14 102 6t111 93l16 -8
q-63 -182 -109 -243q-44 -61 -112 -61z" />
    <glyph glyph-name="braceleft" unicode="{" horiz-adv-x="694" 
d="M580 -360q-229 23 -320 97q-90 75 -59 271l41 266q22 152 -22 213t-189 84l6 39q153 14 217 74t86 213l43 268q20 135 86 211t159 105t251 37l-11 -48q-137 -26 -195 -82t-79 -196l-37 -234q-29 -182 -111 -264t-233 -106v-4q143 -29 197 -113t26 -266l-35 -234
q-20 -139 18 -197t167 -87z" />
    <glyph glyph-name="bar" unicode="|" horiz-adv-x="559" 
d="M236 -494l6 965l-6 965h88l-7 -965l7 -965h-88z" />
    <glyph glyph-name="braceright" unicode="}" horiz-adv-x="694" 
d="M-170 -360l8 47q137 23 196 80q58 57 81 196l37 242q29 182 110 263q82 81 234 107v5q-143 29 -198 112q-54 84 -26 266l35 228q20 137 -18 196q-39 59 -166 88l6 48q229 -23 319 -99t60 -270l-41 -260q-23 -152 22 -214t191 -83l-6 -39q-152 -15 -216 -75t-89 -212
l-43 -274q-32 -198 -146 -268t-350 -84z" />
    <glyph glyph-name="asciitilde" unicode="~" horiz-adv-x="747" 
d="M291 764q55 0 146 -36t128 -36q68 0 101 84l32 -10q-23 -217 -170 -217q-55 0 -149 36t-131 36q-61 0 -98 -84l-33 10q35 217 174 217z" />
    <glyph glyph-name="nbspace" unicode="&#xa0;" horiz-adv-x="204" 
 />
    <glyph glyph-name="exclamdown" unicode="&#xa1;" horiz-adv-x="540" 
d="M135 -516q-133 0 -133 135q0 87 102 411t129 421l56 -11q-2 -109 -7 -430t-16 -389q-22 -137 -131 -137zM303 586q-55 0 -94 39t-39 94t39 94t94 39t94 -39t39 -94t-39 -94t-94 -39z" />
    <glyph glyph-name="cent" unicode="&#xa2;" horiz-adv-x="901" 
d="M262 371q0 -168 113 -234l57 324l64 413q-102 -53 -168 -194t-66 -309zM47 342q0 211 135 387t324 217l26 160l70 -8l-24 -144h18q122 0 192 -57t70 -125t-32 -102q-32 -35 -81 -35q-85 0 -115 82t11 180q-39 6 -74 0l-129 -782q27 -6 60 -6q141 0 252 98l18 -23
q-49 -82 -148 -143t-202 -64l-27 -163l-69 6l28 162q-141 16 -222 114t-81 246z" />
    <glyph glyph-name="sterling" unicode="&#xa3;" horiz-adv-x="1101" 
d="M86 -31q-55 0 -84 28t-29 69q0 66 75 110t212 49q117 123 117 258q0 57 -12 109h-252l14 90h219q-16 90 -16 143q0 184 154 323q155 138 374 138q98 0 152 -38t53 -95q0 -57 -32 -90t-92 -33t-118 49q-57 49 -94 133q-162 -70 -162 -315q0 -53 25 -215h299l-12 -90h-279
v-21q0 -106 -69 -197t-195 -153v-14q78 8 236 -4t186 -13q82 0 122 44t80 153l43 -2q-53 -416 -315 -416q-156 0 -397 164q-37 -74 -93 -119t-110 -45z" />
    <glyph glyph-name="currency" unicode="&#xa4;" horiz-adv-x="1144" 
d="M627 -31q-205 0 -327 134t-132 348h-143l12 79h129q2 78 27 175h-132l15 79h141q80 216 254 358t369 142q138 0 204 -63t66 -135t-36 -112t-91 -40q-92 0 -127 80t8 207q-154 -4 -266 -125t-164 -312h481l-12 -79h-487q-16 -98 -17 -175h480l-13 -79h-465
q15 -152 97 -236t207 -84q174 0 323 129l23 -27q-154 -264 -424 -264z" />
    <glyph glyph-name="yen" unicode="&#xa5;" horiz-adv-x="1275" 
d="M217 0l6 35l215 51l41 260h-352l12 82h353l22 135h-352l12 82h315l-221 514l-159 60l4 34h606l-6 -34l-185 -50l181 -507l366 499l-147 60l4 32h440l-4 -34l-178 -70l-402 -504h326l-12 -82h-354l-23 -135h354l-12 -82h-354l-41 -260l200 -51l-6 -35h-649z" />
    <glyph glyph-name="brokenbar" unicode="&#xa6;" horiz-adv-x="550" 
d="M319 -494h-88l7 428l-7 426h88l-6 -426zM319 582h-88l7 426l-7 428h88l-6 -428z" />
    <glyph glyph-name="section" unicode="&#xa7;" horiz-adv-x="944" 
d="M698 238q0 186 -101 360t-310 410q-8 -57 -8 -95q0 -189 101 -369t308 -411q10 55 10 105zM381 -201q-164 0 -270 82t-107 191q0 63 35 103t92 40q84 0 113 -83t-17 -177q66 -88 209 -88q84 0 149 54t93 157q-272 164 -408 324q-135 162 -135 392t141 405t375 175
q139 0 219 -61t80 -148q0 -51 -32 -85t-87 -34q-56 0 -100 55q-43 54 -43 161q-49 36 -126 36q-78 0 -154 -61t-109 -174q269 -162 407 -332t138 -394t-127 -381t-336 -157z" />
    <glyph glyph-name="dieresis" unicode="&#xa8;" horiz-adv-x="708" 
d="M266 1100q-53 0 -88 35t-35 89t39 95q40 41 94 41t88 -36t34 -89t-40 -94q-39 -41 -92 -41zM625 1100q-53 0 -88 35t-35 89t39 95t92 41t88 -36t35 -89t-39 -94t-92 -41z" />
    <glyph glyph-name="copyright" unicode="&#xa9;" horiz-adv-x="1511" 
d="M766 291q-148 0 -250 95t-102 254q0 158 108 266t273 108q94 0 159 -33l33 37h27l14 -262l-33 -2q-86 213 -219 213q-80 0 -132 -73q-52 -74 -52 -228t60 -238t165 -84q41 0 72 10l129 170l22 -4l-22 -184q-104 -45 -252 -45zM770 31q254 0 434 183t180 439
q0 257 -180 439t-434 182t-435 -182t-181 -438t181 -440q181 -183 435 -183zM770 -31q-284 0 -484 200q-200 199 -200 483t201 484t483 200t484 -200q200 -200 200 -484t-200 -484t-484 -199z" />
    <glyph glyph-name="ordfeminine" unicode="&#xaa;" horiz-adv-x="808" 
d="M397 760q49 0 113 57l63 363q-51 76 -121 76t-122 -107q-51 -106 -51 -229q-1 -160 118 -160zM311 649q-92 1 -149 63t-58 167q0 166 138 311t309 145q59 0 121 -30l88 43l10 -5l-98 -532q-8 -49 14 -63t119 -17l4 -12q-115 -70 -207 -70q-49 0 -75 30t-23 81l-10 4
q-91 -115 -183 -115z" />
    <glyph glyph-name="guillemotleft" unicode="&#xab;" horiz-adv-x="985" 
d="M375 61l-334 390l4 20l453 387l41 -45l-289 -350l174 -365zM745 61l-333 390l4 20l452 387l41 -45l-288 -350l172 -365z" />
    <glyph glyph-name="logicalnot" unicode="&#xac;" horiz-adv-x="1034" 
d="M948 573h-856l17 109h856z" />
    <glyph glyph-name="registered" unicode="&#xae;" horiz-adv-x="770" 
d="M520 1101q0 62 -63 62l-29 2v-127h25q67 1 67 63zM598 1114q0 -66 -86 -80v-10q51 -8 66 -55q16 -39 30 -55t39 -17v-20h-69q-29 0 -43 12t-25 45l-18 47q-12 31 -54 31h-10v-101l49 -14v-20h-180v20l55 14v244l-55 14v23h188q53 0 83 -22t30 -56zM459 752q115 0 193 78
t77 198q0 119 -78 198q-79 79 -193 79t-192 -79t-78 -198q0 -120 78 -198t193 -78zM459 719q-131 0 -220 89t-89 220t89 220t220 89t220 -89t89 -220t-89 -220t-220 -89z" />
    <glyph glyph-name="macron" unicode="&#xaf;" horiz-adv-x="663" 
d="M164 1120l18 113h529l-19 -113h-528z" />
    <glyph glyph-name="degree" unicode="&#xb0;" horiz-adv-x="802" 
d="M440 770q76 0 117 108t41 234q0 174 -104 174q-52 0 -90 -57q-68 -103 -68 -281t104 -178zM414 721q-115 0 -182 61q-66 61 -66 190q0 128 99 246t255 117q116 0 182 -61t66 -190t-99 -246t-255 -117z" />
    <glyph glyph-name="plusminus" unicode="&#xb1;" 
d="M51 -410v2048h922v-2048h-922z" />
    <glyph glyph-name="twosuperior" unicode="&#xb2;" 
d="M51 -410v2048h922v-2048h-922z" />
    <glyph glyph-name="threesuperior" unicode="&#xb3;" 
d="M51 -410v2048h922v-2048h-922z" />
    <glyph glyph-name="acute" unicode="&#xb4;" horiz-adv-x="495" 
d="M197 1053l-25 18q113 253 182 340q31 41 74 55t75 -7q31 -21 29 -65t-41 -90t-149 -134t-145 -117z" />
    <glyph glyph-name="mu" unicode="&#xb5;" horiz-adv-x="1034" 
d="M596 616l225 -303l-88 -65l-217 303l-326 -264l-61 78l332 266l-225 303l86 65l219 -303l323 265l62 -78z" />
    <glyph glyph-name="paragraph" unicode="&#xb6;" horiz-adv-x="1456" 
d="M838 -102l184 4l225 1413l-182 4zM897 -170q-375 0 -582 198t-206 492q0 371 284 619q285 248 715 247h453l-5 -32l-227 -39l-225 -1413l221 -37l-4 -35h-424z" />
    <glyph glyph-name="periodcentered" unicode="&#xb7;" horiz-adv-x="460" 
d="M245 516q-56 0 -95 39t-39 95t39 95t95 39t95 -39t39 -95t-39 -95t-95 -39z" />
    <glyph glyph-name="cedilla" unicode="&#xb8;" horiz-adv-x="585" 
d="M264 -332q0 -80 -66 -137t-152 -57q-87 0 -131 32t-44 70t18 60q17 22 49 22t49 -20t17 -52t-24 -57q24 -10 60 -10q36 -1 64 31t27 88q0 56 -31 88t-76 32t-69 -8l-29 29l371 319l33 -41l-232 -196q78 -17 122 -65t44 -128z" />
    <glyph glyph-name="onesuperior" unicode="&#xb9;" 
d="M51 -410v2048h922v-2048h-922z" />
    <glyph glyph-name="ordmasculine" unicode="&#xba;" horiz-adv-x="798" 
d="M424 702q80 0 128 122t48 259q0 197 -111 197q-82 0 -130 -122t-48 -259q0 -197 113 -197zM399 647q-123 0 -195 73t-73 198q0 170 112 292t271 123q123 1 195 -71t71 -197q0 -170 -110 -294t-271 -124z" />
    <glyph glyph-name="guillemotright" unicode="&#xbb;" horiz-adv-x="985" 
d="M80 61l-39 45l287 351l-172 364l49 37l332 -389l-5 -20zM451 61l-39 45l286 351l-172 364l49 37l332 -389l-4 -20z" />
    <glyph glyph-name="onequarter" unicode="&#xbc;" 
d="M51 -410v2048h922v-2048h-922z" />
    <glyph glyph-name="onehalf" unicode="&#xbd;" 
d="M51 -410v2048h922v-2048h-922z" />
    <glyph glyph-name="threequarters" unicode="&#xbe;" 
d="M51 -410v2048h922v-2048h-922z" />
    <glyph glyph-name="questiondown" unicode="&#xbf;" horiz-adv-x="755" 
d="M375 465q94 0 165 -55q70 -56 70 -154t-63 -156t-193 -120t-189 -112t-59 -131t52 -132t145 -54q53 0 98 29q-20 41 -20 96q0 54 36 96t89 42t91 -36t38 -95q0 -85 -85 -141q-84 -56 -240 -56t-268 94t-112 232t75 208q75 68 212 121q80 33 116 50q37 17 63 47t26 65
q0 115 -199 109l-4 22q62 31 156 31zM484 852q56 0 96 -39t38 -94q0 -55 -38 -94t-96 -39q-56 0 -95 39t-39 94t39 94t95 39z" />
    <glyph glyph-name="Agrave" unicode="&#xc0;" horiz-adv-x="1294" 
d="M399 530h342l-96 496h-2zM-96 0l6 35l151 61l656 1221h106l271 -1229l157 -53l-6 -35h-608l4 35l188 43l-73 379h-394l-180 -365l148 -57l-6 -35h-420zM848 1436q-14 16 -102 114t-112 143q-24 44 -14 85q9 41 45 61q37 20 73 6t54 -58t82 -335z" />
    <glyph glyph-name="Aacute" unicode="&#xc1;" horiz-adv-x="1294" 
d="M399 530h342l-96 496h-2zM-96 0l6 35l151 61l656 1221h106l271 -1229l157 -53l-6 -35h-608l4 35l188 43l-73 379h-394l-180 -365l148 -57l-6 -35h-420zM762 1434l-25 18q56 125 109 220t79 128q27 33 69 47t74 -7t30 -65t-42 -90t-149 -134q-110 -88 -145 -117z" />
    <glyph glyph-name="Acircumflex" unicode="&#xc2;" horiz-adv-x="1294" 
d="M399 530h342l-96 496h-2zM-96 0l6 35l151 61l656 1221h106l271 -1229l157 -53l-6 -35h-608l4 35l188 43l-73 379h-394l-180 -365l148 -57l-6 -35h-420zM535 1413l-27 27l328 366h34l187 -370l-29 -23l-209 178z" />
    <glyph glyph-name="Atilde" unicode="&#xc3;" horiz-adv-x="1294" 
d="M399 530h342l-96 496h-2zM-96 0l6 35l151 61l656 1221h106l271 -1229l157 -53l-6 -35h-608l4 35l188 43l-73 379h-394l-180 -365l148 -57l-6 -35h-420zM975 1638q70 0 110 93l39 -13q-43 -240 -188 -239q-60 0 -156 39t-135 38q-69 0 -110 -92l-37 13q41 240 186 239
q58 0 154 -39t137 -39z" />
    <glyph glyph-name="Adieresis" unicode="&#xc4;" horiz-adv-x="1294" 
d="M399 530h342l-96 496h-2zM-96 0l6 35l151 61l656 1221h106l271 -1229l157 -53l-6 -35h-608l4 35l188 43l-73 379h-394l-180 -365l148 -57l-6 -35h-420zM631 1481q-53 0 -88 35t-35 89t39 95t93 41t88 -36t34 -89t-39 -94t-92 -41zM989 1481q-53 0 -88 35t-35 89t39 95
t92 41t88 -36t35 -89t-39 -94t-92 -41z" />
    <glyph glyph-name="Aring" unicode="&#xc5;" horiz-adv-x="1294" 
d="M399 530h342l-96 496h-2zM772 1329q49 1 74 59t24 128q0 111 -63 110q-51 0 -76 -59t-24 -129q-1 -109 65 -109zM592 1452q0 86 60 151t150 65t136 -47q47 -46 47 -117t-42 -130t-116 -80l267 -1206l157 -53l-6 -35h-608l4 35l188 43l-73 379h-394l-180 -365l148 -57
l-6 -35h-420l6 35l151 61l646 1200q-115 37 -115 156z" />
    <glyph glyph-name="AE" unicode="&#xc6;" horiz-adv-x="1888" 
d="M528 584h330l88 553h-4zM1186 690q98 0 156 43t112 150l29 57h35l-91 -571h-34l-11 63q-14 100 -60 143t-142 43h-66l-88 -546l270 6q82 2 134 28t114 93l215 223l27 -12l-103 -410h-1108l5 35l198 43l68 436h-371l-317 -424l143 -55l-6 -35h-420l6 35l154 61l893 1121
l-178 53l4 35h1054l-8 -396l-31 -12l-139 199q-55 80 -96 106t-133 29l-189 4l-88 -545h62z" />
    <glyph glyph-name="Ccedilla" unicode="&#xc7;" horiz-adv-x="1318" 
d="M776 -332q0 -80 -66 -137t-152 -57q-87 0 -131 32t-44 70t19 60q20 22 50 22t47 -20t17 -52t-24 -57q24 -10 60 -10q36 -1 64 31t27 88q0 56 -31 88t-76 32t-69 -8l-29 29l226 194q-250 18 -413 172t-163 422q0 313 212 541t523 227q203 0 342 -73l103 79h30l-57 -456
l-41 -4q-78 219 -163 306t-216 87q-197 0 -327 -224t-129 -524q1 -233 115 -357t276 -124q78 0 139 21l266 340l25 -9l-64 -344q-168 -80 -383 -84l-129 -108q78 -17 122 -65t44 -128z" />
    <glyph glyph-name="Egrave" unicode="&#xc8;" horiz-adv-x="1292" 
d="M592 690q98 0 158 44q59 44 110 149l27 57h37l-93 -571h-32l-11 63q-16 102 -62 144t-142 42h-64l-88 -546l270 6q82 2 134 28t114 93l213 223l29 -12l-105 -410h-1107l6 35l196 43l183 1149l-183 43l6 35h1026l-8 -396l-32 -12l-138 199q-55 80 -96 106t-133 29l-191 4
l-86 -545h62zM831 1436q-14 16 -102 116t-112 142q-24 43 -14 84q9 41 45 61t73 6t55 -58t82 -335z" />
    <glyph glyph-name="Eacute" unicode="&#xc9;" horiz-adv-x="1292" 
d="M592 690q98 0 158 44q59 44 110 149l27 57h37l-93 -571h-32l-11 63q-16 102 -62 144t-142 42h-64l-88 -546l270 6q82 2 134 28t114 93l213 223l29 -12l-105 -410h-1107l6 35l196 43l183 1149l-183 43l6 35h1026l-8 -396l-32 -12l-138 199q-55 80 -96 106t-133 29l-191 4
l-86 -545h62zM719 1434l-25 18q56 125 109 220t79 128t68 47t75 -7q32 -21 30 -65t-42 -90t-149 -134q-110 -88 -145 -117z" />
    <glyph glyph-name="Ecircumflex" unicode="&#xca;" horiz-adv-x="1292" 
d="M592 690q98 0 158 44q59 44 110 149l27 57h37l-93 -571h-32l-11 63q-16 102 -62 144t-142 42h-64l-88 -546l270 6q82 2 134 28t114 93l213 223l29 -12l-105 -410h-1107l6 35l196 43l183 1149l-183 43l6 35h1026l-8 -396l-32 -12l-138 199q-55 80 -96 106t-133 29l-191 4
l-86 -545h62zM547 1434l-27 26l328 367h35l186 -371l-29 -22l-209 178z" />
    <glyph glyph-name="Edieresis" unicode="&#xcb;" horiz-adv-x="1292" 
d="M592 690q98 0 158 44q59 44 110 149l27 57h37l-93 -571h-32l-11 63q-16 102 -62 144t-142 42h-64l-88 -546l270 6q82 2 134 28t114 93l213 223l29 -12l-105 -410h-1107l6 35l196 43l183 1149l-183 43l6 35h1026l-8 -396l-32 -12l-138 199q-55 80 -96 106t-133 29l-191 4
l-86 -545h62zM625 1481q-53 0 -88 35t-35 89t39 95t93 41t88 -36t34 -89t-39 -94t-92 -41zM983 1481q-53 0 -88 35t-35 89t39 95t92 41t88 -36t35 -89t-39 -94t-92 -41z" />
    <glyph glyph-name="Igrave" unicode="&#xcc;" horiz-adv-x="823" 
d="M2 0l6 35l201 43l182 1149l-186 43l4 35h639l-6 -35l-201 -43l-182 -1149l186 -43l-4 -35h-639zM553 1436q-14 16 -102 116t-112 142q-24 43 -14 84q9 41 45 61t72 6t56 -58q18 -44 82 -335z" />
    <glyph glyph-name="Iacute" unicode="&#xcd;" horiz-adv-x="823" 
d="M2 0l6 35l201 43l182 1149l-186 43l4 35h639l-6 -35l-201 -43l-182 -1149l186 -43l-4 -35h-639zM489 1434l-24 18q112 253 182 340q31 41 74 55t75 -7t30 -65t-34 -80t-76 -75t-118 -98t-109 -88z" />
    <glyph glyph-name="Icircumflex" unicode="&#xce;" horiz-adv-x="823" 
d="M2 0l6 35l201 43l182 1149l-186 43l4 35h639l-6 -35l-201 -43l-182 -1149l186 -43l-4 -35h-639zM303 1434l-27 26l328 367h35l186 -371l-28 -22l-209 178z" />
    <glyph glyph-name="Idieresis" unicode="&#xcf;" horiz-adv-x="823" 
d="M2 0l6 35l201 43l182 1149l-186 43l4 35h639l-6 -35l-201 -43l-182 -1149l186 -43l-4 -35h-639zM395 1481q-53 0 -88 35t-35 89t39 95t93 41t89 -36q33 -36 33 -89t-39 -94t-92 -41zM754 1481q-53 0 -88 35t-35 89t39 95t92 41t88 -36t35 -89t-39 -94t-92 -41z" />
    <glyph glyph-name="Eth" unicode="&#xd0;" horiz-adv-x="1439" 
d="M432 72l131 4q143 6 254 69q199 113 272 393q32 122 31 257q0 197 -97 315t-294 123l-113 2l-81 -520h235l-8 -82h-240zM748 1305q294 -1 468 -147t175 -404q1 -324 -225 -539t-625 -215h-561l6 35l196 43l88 555h-174l8 82h179l82 512l-183 43l6 35h560z" />
    <glyph glyph-name="Ntilde" unicode="&#xd1;" horiz-adv-x="1499" 
d="M1090 -12l-658 1077h-14l-154 -965l160 -65l-4 -35h-418l4 35l178 65l176 1106l-151 64l6 35h377l123 -211l424 -711h14l131 821l-160 66l4 35h418l-4 -35l-180 -66l-193 -1216h-79zM1055 1638q70 0 110 93l39 -13q-43 -240 -188 -239q-60 0 -156 39t-135 38
q-70 0 -111 -92l-36 13q41 240 186 239q58 0 154 -39t137 -39z" />
    <glyph glyph-name="Ograve" unicode="&#xd2;" horiz-adv-x="1427" 
d="M647 29q131 0 233 128q101 128 153 310t52 376q1 193 -75 313t-207 120t-233 -128t-153 -310q-52 -182 -52 -376t75 -314q76 -119 207 -119zM657 -31q-253 0 -409 163t-156 425q0 317 202 547t501 231q251 0 407 -163t156 -422q0 -207 -89 -385t-252 -287t-360 -109z
M872 1436q-14 16 -102 116t-112 142q-24 43 -14 84q9 41 45 61t73 6t55 -58t82 -335z" />
    <glyph glyph-name="Oacute" unicode="&#xd3;" horiz-adv-x="1427" 
d="M647 29q131 0 233 128q101 128 153 310t52 376q1 193 -75 313t-207 120t-233 -128t-153 -310q-52 -182 -52 -376t75 -314q76 -119 207 -119zM657 -31q-253 0 -409 163t-156 425q0 317 202 547t501 231q251 0 407 -163t156 -422q0 -207 -89 -385t-252 -287t-360 -109z
M782 1434l-24 18q113 253 182 340q31 41 74 55t75 -7q31 -21 29 -65t-33 -80t-75 -75t-119 -98q-74 -59 -109 -88z" />
    <glyph glyph-name="Ocircumflex" unicode="&#xd4;" horiz-adv-x="1427" 
d="M647 29q131 0 233 128q101 128 153 310t52 376q1 193 -75 313t-207 120t-233 -128t-153 -310q-52 -182 -52 -376t75 -314q76 -119 207 -119zM657 -31q-253 0 -409 163t-156 425q0 317 202 547t501 231q251 0 407 -163t156 -422q0 -207 -89 -385t-252 -287t-360 -109z
M582 1434l-27 26l328 367h35l186 -371l-29 -22l-209 178z" />
    <glyph glyph-name="Otilde" unicode="&#xd5;" horiz-adv-x="1427" 
d="M647 29q131 0 233 128q101 128 153 310t52 376q1 193 -75 313t-207 120t-233 -128t-153 -310q-52 -182 -52 -376t75 -314q76 -119 207 -119zM657 -31q-253 0 -409 163t-156 425q0 317 202 547t501 231q251 0 407 -163t156 -422q0 -207 -89 -385t-252 -287t-360 -109z
M1006 1638q70 0 110 93l39 -13q-43 -240 -188 -239q-59 0 -155 39t-136 38q-70 0 -111 -92l-37 13q41 240 187 239q59 0 154 -39t137 -39z" />
    <glyph glyph-name="Odieresis" unicode="&#xd6;" horiz-adv-x="1427" 
d="M647 29q131 0 233 128q101 128 153 310t52 376q1 193 -75 313t-207 120t-233 -128t-153 -310q-52 -182 -52 -376t75 -314q76 -119 207 -119zM657 -31q-253 0 -409 163t-156 425q0 317 202 547t501 231q251 0 407 -163t156 -422q0 -207 -89 -385t-252 -287t-360 -109z
M655 1481q-53 0 -88 35t-35 89t39 95t93 41t89 -36q33 -36 33 -89t-39 -94t-92 -41zM1014 1481q-53 0 -88 35t-35 89t39 95t92 41t88 -36t35 -89t-39 -94t-92 -41z" />
    <glyph glyph-name="multiply" unicode="&#xd7;" horiz-adv-x="1034" 
d="M596 616l225 -303l-88 -65l-217 303l-326 -264l-61 78l332 266l-225 303l86 65l219 -303l323 265l62 -78z" />
    <glyph glyph-name="Oslash" unicode="&#xd8;" horiz-adv-x="1427" 
d="M655 29q123 0 225 128q101 128 153 310q52 181 52 325t-22 230l-657 -797q69 -196 249 -196zM797 1276q-125 0 -227 -128t-153 -310q-52 -182 -52 -367q0 -86 20 -156l649 793q-74 168 -237 168zM795 1335q199 0 340 -106l137 168l57 -49l-137 -166q166 -160 166 -432
q0 -207 -89 -385t-252 -287t-370 -109t-352 121l-135 -164l-58 47l138 168q-147 160 -148 416q0 317 202 547t501 231z" />
    <glyph glyph-name="Ugrave" unicode="&#xd9;" horiz-adv-x="1460" 
d="M698 -33q-276 0 -396 134t-79 391l117 735l-182 43l6 35h635l-4 -35l-201 -43l-119 -752q-61 -391 285 -391q166 0 263 101t122 261l123 762l-146 62l6 35h390l-7 -35l-165 -62l-127 -805q-31 -188 -173 -312t-348 -124zM971 1436q-14 16 -102 114t-112 143
q-24 44 -15 85t45 61t73 6t55 -58t82 -335z" />
    <glyph glyph-name="Uacute" unicode="&#xda;" horiz-adv-x="1460" 
d="M698 -33q-276 0 -396 134t-79 391l117 735l-182 43l6 35h635l-4 -35l-201 -43l-119 -752q-61 -391 285 -391q166 0 263 101t122 261l123 762l-146 62l6 35h390l-7 -35l-165 -62l-127 -805q-31 -188 -173 -312t-348 -124zM893 1434l-25 18q111 250 183 340q31 41 73 55
t75 -7q32 -21 30 -65t-42 -90t-149 -134q-110 -88 -145 -117z" />
    <glyph glyph-name="Ucircumflex" unicode="&#xdb;" horiz-adv-x="1460" 
d="M698 -33q-276 0 -396 134t-79 391l117 735l-182 43l6 35h635l-4 -35l-201 -43l-119 -752q-61 -391 285 -391q166 0 263 101t122 261l123 762l-146 62l6 35h390l-7 -35l-165 -62l-127 -805q-31 -188 -173 -312t-348 -124zM713 1434l-27 26l328 367h35l186 -371l-29 -22
l-209 178z" />
    <glyph glyph-name="Udieresis" unicode="&#xdc;" horiz-adv-x="1460" 
d="M698 -33q-276 0 -396 134t-79 391l117 735l-182 43l6 35h635l-4 -35l-201 -43l-119 -752q-61 -391 285 -391q166 0 263 101t122 261l123 762l-146 62l6 35h390l-7 -35l-165 -62l-127 -805q-31 -188 -173 -312t-348 -124zM768 1481q-53 0 -88 35t-35 89t39 95t93 41
t88 -36t34 -89t-39 -94t-92 -41zM1126 1481q-53 0 -88 35q-34 35 -34 89t38 95t92 41t89 -36t35 -89t-40 -94q-39 -41 -92 -41z" />
    <glyph glyph-name="Yacute" unicode="&#xdd;" horiz-adv-x="1300" 
d="M248 0l6 35l201 51l77 496l-278 628l-158 60l6 35h611l-6 -35l-168 -49l213 -553l372 544l-133 60l6 33h426l-6 -37l-164 -62l-467 -608l-81 -512l186 -51l-4 -35h-639zM807 1434l-25 18q111 250 183 340q31 41 73 55t75 -7q32 -21 30 -65t-42 -90t-149 -134
q-110 -88 -145 -117z" />
    <glyph glyph-name="Thorn" unicode="&#xde;" horiz-adv-x="1224" 
d="M920 678q0 136 -62 208t-168 72q-104 0 -119 -2l-96 -606q19 -2 111 -2q160 2 247 98t87 232zM748 1030q210 0 322 -97t112 -243q0 -184 -146 -302t-362 -118q-102 0 -209 19l-33 -211l197 -43l-6 -35h-643l6 35l196 43l183 1149l-185 43l6 35h643l-4 -35l-211 -43
l-32 -211q90 14 166 14z" />
    <glyph glyph-name="germandbls" unicode="&#xdf;" horiz-adv-x="1042" 
d="M-145 -449q-80 0 -130 38q-51 39 -51 89t32 82t83 31q121 0 191 -139q53 88 86 328l129 931q23 170 70 283q48 112 165 218t274 106q158 0 242 -77t84 -201t-93 -232t-269 -217q328 -264 327 -490q0 -131 -89 -227t-220 -96t-207 52q-76 54 -76 140q0 53 31 86
q30 33 86 33q56 -1 86 -59t2 -152q46 -31 100 -31t85 36t30 99q0 211 -342 500v20q342 270 342 551q0 199 -145 199q-201 0 -268 -477l-107 -770q-29 -207 -79 -332t-146 -223t-223 -99z" />
    <glyph glyph-name="agrave" unicode="&#xe0;" horiz-adv-x="1011" 
d="M426 125q74 0 168 78l92 536q-76 109 -172 109q-68 0 -125 -77t-89 -189t-32 -225q0 -112 42 -172t116 -60zM307 -23q-111 1 -187 89t-75 238q0 150 85 302t227 250t294 98q80 0 158 -39l109 60l14 -8l-135 -768q-9 -63 21 -85t165 -26l4 -14q-152 -96 -276 -97
q-125 0 -129 156l-11 6q-129 -162 -264 -162zM666 1055q-14 16 -62 69q-129 145 -152 189q-24 43 -15 84t45 61t73 6t55 -58t82 -335z" />
    <glyph glyph-name="aacute" unicode="&#xe1;" horiz-adv-x="1011" 
d="M426 125q74 0 168 78l92 536q-76 109 -172 109q-68 0 -125 -77t-89 -189t-32 -225q0 -112 42 -172t116 -60zM307 -23q-111 1 -187 89t-75 238q0 150 85 302t227 250t294 98q80 0 158 -39l109 60l14 -8l-135 -768q-9 -63 21 -85t165 -26l4 -14q-152 -96 -276 -97
q-125 0 -129 156l-11 6q-129 -162 -264 -162zM559 1053l-24 18q113 253 182 340q31 41 74 55t75 -7t29 -65q-2 -44 -40 -89t-150 -134q-111 -89 -146 -118z" />
    <glyph glyph-name="acircumflex" unicode="&#xe2;" horiz-adv-x="1011" 
d="M426 125q74 0 168 78l92 536q-76 109 -172 109q-68 0 -125 -77t-89 -189t-32 -225q0 -112 42 -172t116 -60zM307 -23q-111 1 -187 89t-75 238q0 150 85 302t227 250t294 98q80 0 158 -39l109 60l14 -8l-135 -768q-9 -63 21 -85t165 -26l4 -14q-152 -96 -276 -97
q-125 0 -129 156l-11 6q-129 -162 -264 -162zM410 1053l-27 26l328 367h34l187 -371l-29 -22l-209 178z" />
    <glyph glyph-name="atilde" unicode="&#xe3;" horiz-adv-x="1011" 
d="M426 125q74 0 168 78l92 536q-76 109 -172 109q-68 0 -125 -77t-89 -189t-32 -225q0 -112 42 -172t116 -60zM307 -23q-111 1 -187 89t-75 238q0 150 85 302t227 250t294 98q80 0 158 -39l109 60l14 -8l-135 -768q-9 -63 21 -85t165 -26l4 -14q-152 -96 -276 -97
q-125 0 -129 156l-11 6q-129 -162 -264 -162zM831 1257q70 0 111 93l39 -13q-43 -240 -188 -239q-59 0 -155 39t-136 39q-70 -1 -111 -93l-37 13q41 240 187 239q59 0 154 -39t136 -39z" />
    <glyph glyph-name="adieresis" unicode="&#xe4;" horiz-adv-x="1011" 
d="M426 125q74 0 168 78l92 536q-76 109 -172 109q-68 0 -125 -77t-89 -189t-32 -225q0 -112 42 -172t116 -60zM307 -23q-111 1 -187 89t-75 238q0 150 85 302t227 250t294 98q80 0 158 -39l109 60l14 -8l-135 -768q-9 -63 21 -85t165 -26l4 -14q-152 -96 -276 -97
q-125 0 -129 156l-11 6q-129 -162 -264 -162zM479 1100q-53 0 -88 35t-35 89t39 95t93 41t89 -36q33 -36 33 -89t-39 -94t-92 -41zM838 1100q-53 0 -88 35t-35 89t39 95t92 41t88 -36t35 -89t-39 -94t-92 -41z" />
    <glyph glyph-name="aring" unicode="&#xe5;" horiz-adv-x="1011" 
d="M426 125q74 0 168 78l92 536q-76 109 -172 109q-68 0 -125 -77t-89 -189t-32 -225q0 -112 42 -172t116 -60zM649 1087q49 1 74 59t25 128q0 109 -66 108q-49 0 -74 -58t-24 -128q-1 -109 65 -109zM307 -23q-111 1 -187 89t-75 238q0 150 85 302t227 250t294 98
q80 0 158 -39l109 60l14 -8l-135 -768q-9 -63 21 -85t165 -26l4 -14q-152 -96 -276 -97q-125 0 -129 156l-11 6q-129 -162 -264 -162zM862 1252q0 -78 -60 -143t-150 -65q-89 0 -136 48t-47 124q0 78 60 144q59 66 149 66t137 -48t47 -126z" />
    <glyph glyph-name="ae" unicode="&#xe6;" horiz-adv-x="1384" 
d="M541 852q-119 0 -199 -168t-80 -354q0 -98 43 -150t120 -53q77 0 163 82q-20 61 -21 133q1 221 138 397q-80 113 -164 113zM1159 791q1 45 -21 71t-63 27q-95 -1 -173 -115t-103 -264q180 -6 270 82t90 199zM37 279q0 141 88 301t234 268q147 108 285 106q138 0 210 -77
q123 77 248 77q126 0 192 -57t66 -141q0 -125 -136 -215t-431 -86q-29 -342 235 -342q125 0 250 104l14 -18q-55 -97 -158 -159t-219 -63q-223 1 -311 189h-10q-123 -188 -289 -189q-117 0 -193 80t-75 222z" />
    <glyph glyph-name="ccedilla" unicode="&#xe7;" horiz-adv-x="847" 
d="M322 -526q-87 0 -131 32t-44 70q1 38 19 60t49 22t48 -20t17 -54t-26 -55q24 -10 60 -10q36 -1 64 31t28 88t-31 88q-49 53 -146 24l-28 29l231 198h-20q-166 1 -261 107t-96 266q0 240 163 422t378 182q114 0 180 -55t66 -119t-32 -102q-32 -37 -86 -37t-89 39t-35 102
t23 121q-133 -4 -241 -161t-108 -355q0 -137 65 -205t181 -68t236 97l16 -18q-84 -141 -233 -195l-164 -137q78 -17 122 -65t44 -128t-66 -137t-153 -57z" />
    <glyph glyph-name="egrave" unicode="&#xe8;" horiz-adv-x="868" 
d="M643 791q1 45 -21 71t-63 27q-95 -1 -173 -115t-103 -264q180 -6 270 82t90 199zM512 113q125 0 250 104l14 -18q-54 -97 -158 -159t-219 -63q-166 1 -258 105t-92 260q0 238 162 425t387 187q114 0 180 -57t66 -141q0 -125 -136 -215t-432 -86q-29 -342 236 -342z
M586 1055q-14 16 -102 114t-112 143q-24 44 -15 85t45 61t73 6t55 -58t82 -335z" />
    <glyph glyph-name="eacute" unicode="&#xe9;" horiz-adv-x="868" 
d="M643 791q1 45 -21 71t-63 27q-95 -1 -173 -115t-103 -264q180 -6 270 82t90 199zM512 113q125 0 250 104l14 -18q-54 -97 -158 -159t-219 -63q-166 1 -258 105t-92 260q0 238 162 425t387 187q114 0 180 -57t66 -141q0 -125 -136 -215t-432 -86q-29 -342 236 -342z
M487 1053l-24 18q112 253 182 340q31 41 74 55t75 -7t30 -65t-34 -80t-76 -75t-118 -98t-109 -88z" />
    <glyph glyph-name="ecircumflex" unicode="&#xea;" horiz-adv-x="868" 
d="M643 791q1 45 -21 71t-63 27q-95 -1 -173 -115t-103 -264q180 -6 270 82t90 199zM512 113q125 0 250 104l14 -18q-54 -97 -158 -159t-219 -63q-166 1 -258 105t-92 260q0 238 162 425t387 187q114 0 180 -57t66 -141q0 -125 -136 -215t-432 -86q-29 -342 236 -342z
M324 1053l-27 26l328 367h34l187 -371l-29 -22l-209 178z" />
    <glyph glyph-name="edieresis" unicode="&#xeb;" horiz-adv-x="868" 
d="M643 791q1 45 -21 71t-63 27q-95 -1 -173 -115t-103 -264q180 -6 270 82t90 199zM512 113q125 0 250 104l14 -18q-54 -97 -158 -159t-219 -63q-166 1 -258 105t-92 260q0 238 162 425t387 187q114 0 180 -57t66 -141q0 -125 -136 -215t-432 -86q-29 -342 236 -342z
M393 1100q-53 0 -88 35t-35 89t39 95t93 41t88 -36t34 -89t-39 -94t-92 -41zM752 1100q-53 0 -88 35t-35 89t39 95t92 41t88 -36t35 -89t-39 -94t-92 -41z" />
    <glyph glyph-name="igrave" unicode="&#xec;" horiz-adv-x="563" 
d="M242 -23q-164 0 -125 197l106 586l-133 84v20l369 103l8 -6l-137 -760q-12 -67 20 -89t168 -24l4 -14q-155 -97 -280 -97zM397 1055q-14 16 -102 116t-112 142q-24 43 -14 84q9 41 45 61t73 6t55 -58t82 -335z" />
    <glyph glyph-name="iacute" unicode="&#xed;" horiz-adv-x="563" 
d="M242 -23q-164 0 -125 197l106 586l-133 84v20l369 103l8 -6l-137 -760q-12 -67 20 -89t168 -24l4 -14q-155 -97 -280 -97zM262 1053l-24 18q112 253 182 340q31 41 74 55q42 14 74 -7t30 -65t-40 -89t-150 -134q-111 -89 -146 -118z" />
    <glyph glyph-name="icircumflex" unicode="&#xee;" horiz-adv-x="563" 
d="M242 -23q-164 0 -125 197l106 586l-133 84v20l369 103l8 -6l-137 -760q-12 -67 20 -89t168 -24l4 -14q-155 -97 -280 -97zM102 1053l-26 26l327 367h35l187 -371l-29 -22l-209 178z" />
    <glyph glyph-name="idieresis" unicode="&#xef;" horiz-adv-x="563" 
d="M242 -23q-164 0 -125 197l106 586l-133 84v20l369 103l8 -6l-137 -760q-12 -67 20 -89t168 -24l4 -14q-155 -97 -280 -97zM190 1100q-53 0 -88 35q-34 35 -34 89t38 95q40 41 94 41t88 -36t34 -89t-40 -94t-92 -41zM549 1100q-53 0 -88 35t-35 89t39 95t92 41t88 -36
t35 -89t-39 -94t-92 -41z" />
    <glyph glyph-name="eth" unicode="&#xf0;" horiz-adv-x="974" 
d="M446 68q109 0 185 158t76 358q-1 128 -49 200t-119 72q-109 0 -185 -159t-75 -357q1 -132 47 -202t120 -70zM377 -23q-139 1 -233 95t-95 258q0 238 181 426t409 196q-55 135 -139 230l-45 -33q-45 -33 -90 -68l-48 -32l-45 65l172 127q-96 96 -270 201l14 33
q213 -57 361 -156l178 131l45 -66l-151 -112q313 -240 313 -619q0 -137 -52 -271t-137 -222q-167 -183 -368 -183z" />
    <glyph glyph-name="ntilde" unicode="&#xf1;" horiz-adv-x="1077" 
d="M781 -23q-126 0 -126 121q0 47 15 109l67 354q25 111 1 170t-108 59t-210 -69l-121 -721h-207l127 760l-129 84v20l348 103l8 -6l-28 -191l8 -6q209 190 352 190q119 0 159 -91t11 -245l-80 -419q-12 -65 22 -87t165 -24l4 -14q-152 -97 -278 -97zM786 1257q70 0 111 93
l39 -13q-43 -240 -188 -239q-60 0 -156 39t-135 39q-70 -1 -111 -93l-37 13q41 240 187 239q59 0 154 -39t136 -39z" />
    <glyph glyph-name="ograve" unicode="&#xf2;" horiz-adv-x="989" 
d="M455 49q82 0 141 91q111 171 111 444q0 139 -45 219t-126 80q-80 0 -140 -91q-113 -173 -111 -442q0 -141 44 -221t126 -80zM410 -23q-164 1 -259 99t-96 278q0 228 154 414t375 186q164 0 257 -97t93 -279q0 -231 -152 -416t-372 -185zM604 1055q-14 16 -102 116
t-112 142q-24 43 -14 84q9 41 45 61t73 6t55 -58t82 -335z" />
    <glyph glyph-name="oacute" unicode="&#xf3;" horiz-adv-x="989" 
d="M455 49q82 0 141 91q111 171 111 444q0 139 -45 219t-126 80q-80 0 -140 -91q-113 -173 -111 -442q0 -141 44 -221t126 -80zM410 -23q-164 1 -259 99t-96 278q0 228 154 414t375 186q164 0 257 -97t93 -279q0 -231 -152 -416t-372 -185zM524 1053l-24 18q113 253 182 340
q31 41 74 55q42 14 74 -7t30 -65t-33 -80t-75 -75t-119 -98q-74 -59 -109 -88z" />
    <glyph glyph-name="ocircumflex" unicode="&#xf4;" horiz-adv-x="989" 
d="M455 49q82 0 141 91q111 171 111 444q0 139 -45 219t-126 80q-80 0 -140 -91q-113 -173 -111 -442q0 -141 44 -221t126 -80zM410 -23q-164 1 -259 99t-96 278q0 228 154 414t375 186q164 0 257 -97t93 -279q0 -231 -152 -416t-372 -185zM334 1053l-27 26l328 367h35
l186 -371l-29 -22l-209 178z" />
    <glyph glyph-name="otilde" unicode="&#xf5;" horiz-adv-x="989" 
d="M455 49q82 0 141 91q111 171 111 444q0 139 -45 219t-126 80q-80 0 -140 -91q-113 -173 -111 -442q0 -141 44 -221t126 -80zM410 -23q-164 1 -259 99t-96 278q0 228 154 414t375 186q164 0 257 -97t93 -279q0 -231 -152 -416t-372 -185zM778 1257q70 0 111 93l39 -13
q-43 -240 -189 -239q-59 0 -155 39t-135 39q-70 -1 -111 -93l-37 13q41 240 186 239q59 0 155 -39t136 -39z" />
    <glyph glyph-name="odieresis" unicode="&#xf6;" horiz-adv-x="989" 
d="M455 49q82 0 141 91q111 171 111 444q0 139 -45 219t-126 80q-80 0 -140 -91q-113 -173 -111 -442q0 -141 44 -221t126 -80zM410 -23q-164 1 -259 99t-96 278q0 228 154 414t375 186q164 0 257 -97t93 -279q0 -231 -152 -416t-372 -185zM440 1100q-53 0 -88 35t-35 89
t39 95q40 41 94 41t88 -36t34 -89t-40 -94q-39 -41 -92 -41zM799 1100q-53 0 -88 35t-35 89t39 95t92 41t88 -36t35 -89t-39 -94t-92 -41z" />
    <glyph glyph-name="divide" unicode="&#xf7;" horiz-adv-x="1034" 
d="M478 184q-52 0 -87 35t-35 87t36 87t87 35t86 -35t35 -86t-35 -87t-87 -36zM948 575h-856l17 105h856zM582 827q-51 0 -87 35t-36 86t36 87t87 36t86 -36q34 -36 34 -87t-34 -86t-86 -35z" />
    <glyph glyph-name="oslash" unicode="&#xf8;" horiz-adv-x="989" 
d="M455 49q61 0 111 52q50 53 80 135q61 167 63 344q0 43 -7 84l-393 -496q42 -119 146 -119zM535 883q-81 0 -141 -91q-114 -171 -111 -440q0 -47 6 -90l393 496q-39 125 -147 125zM55 354q0 228 154 414t375 186q127 0 209 -57l92 115l55 -49q-90 -113 -90 -115
q84 -100 84 -270q0 -232 -152 -416t-372 -185q-123 0 -207 56l-94 -117l-56 47l92 117q-90 100 -90 274z" />
    <glyph glyph-name="ugrave" unicode="&#xf9;" horiz-adv-x="1093" 
d="M311 -23q-123 -1 -165 93t-13 243l84 447l-131 84v20l363 103l8 -6l-111 -590q-25 -109 -1 -167t114 -58t211 71l98 543l-133 84v20l364 103l9 -6l-138 -762q-12 -66 20 -86t167 -25l4 -14q-152 -96 -268 -97q-145 0 -129 183l-11 6q-195 -189 -342 -189zM627 1055
q-14 16 -102 114t-112 143q-24 44 -15 85t45 61t73 6t55 -58t82 -335z" />
    <glyph glyph-name="uacute" unicode="&#xfa;" horiz-adv-x="1093" 
d="M311 -23q-123 -1 -165 93t-13 243l84 447l-131 84v20l363 103l8 -6l-111 -590q-25 -109 -1 -167t114 -58t211 71l98 543l-133 84v20l364 103l9 -6l-138 -762q-12 -66 20 -86t167 -25l4 -14q-152 -96 -268 -97q-145 0 -129 183l-11 6q-195 -189 -342 -189zM547 1053
l-25 18q115 259 183 340q31 41 73 55t75 -7q32 -21 30 -65t-42 -90t-149 -134q-110 -88 -145 -117z" />
    <glyph glyph-name="ucircumflex" unicode="&#xfb;" horiz-adv-x="1093" 
d="M311 -23q-123 -1 -165 93t-13 243l84 447l-131 84v20l363 103l8 -6l-111 -590q-25 -109 -1 -167t114 -58t211 71l98 543l-133 84v20l364 103l9 -6l-138 -762q-12 -66 20 -86t167 -25l4 -14q-152 -96 -268 -97q-145 0 -129 183l-11 6q-195 -189 -342 -189zM369 1053
l-27 26l328 367h35l186 -371l-29 -22l-209 178z" />
    <glyph glyph-name="udieresis" unicode="&#xfc;" horiz-adv-x="1093" 
d="M311 -23q-123 -1 -165 93t-13 243l84 447l-131 84v20l363 103l8 -6l-111 -590q-25 -109 -1 -167t114 -58t211 71l98 543l-133 84v20l364 103l9 -6l-138 -762q-12 -66 20 -86t167 -25l4 -14q-152 -96 -268 -97q-145 0 -129 183l-11 6q-195 -189 -342 -189zM442 1100
q-53 0 -88 35t-35 89t39 95q40 41 94 41t88 -36t34 -89t-40 -94q-39 -41 -92 -41zM801 1100q-53 0 -88 35t-35 89t39 95t92 41t88 -36t35 -89t-39 -94t-92 -41z" />
    <glyph glyph-name="yacute" unicode="&#xfd;" horiz-adv-x="983" 
d="M139 -449q-78 -1 -126 49t-48 111t30 99t87 36q57 0 93 -58t32 -146q141 78 262 301q-94 475 -215 770q-31 73 -78 73t-131 -30l-12 16q147 182 256 182q51 0 84 -24t67 -90q34 -64 82 -249q49 -185 80 -386h10q119 381 185 766h16l188 -90q-16 -37 -108 -253
q-251 -590 -377 -774q-206 -303 -377 -303zM563 1053l-24 18q112 253 182 340q31 41 74 55t75 -7t29 -65q-2 -44 -33 -80q-32 -36 -76 -75t-118 -98t-109 -88z" />
    <glyph glyph-name="thorn" unicode="&#xfe;" horiz-adv-x="1001" 
d="M481 86q72 0 132 76q59 76 91 186t32 224t-45 176q-44 62 -127 61q-83 0 -163 -51l-98 -565q78 -107 178 -107zM685 954q124 0 199 -88q74 -88 74 -240t-87 -302q-87 -152 -227 -249t-284 -98q-43 0 -90 11l-55 -324l156 -63l-4 -27h-510l6 27l145 63l279 1651l-131 84
v20l362 103l8 -6l-114 -691l6 -8q143 137 267 137z" />
    <glyph glyph-name="ydieresis" unicode="&#xff;" horiz-adv-x="983" 
d="M139 -449q-78 -1 -126 49t-48 111t30 99t87 36q57 0 93 -58t32 -146q141 78 262 301q-94 475 -215 770q-31 73 -78 73t-131 -30l-12 16q147 182 256 182q51 0 84 -24t67 -90q34 -64 82 -249q49 -185 80 -386h10q119 381 185 766h16l188 -90q-16 -37 -108 -253
q-251 -590 -377 -774q-206 -303 -377 -303zM406 1100q-53 0 -89 35q-35 35 -35 89t40 95q39 41 93 41t88 -36t34 -89t-39 -94t-92 -41zM764 1100q-53 0 -88 35t-35 89t39 95t92 41t88 -36t35 -89t-39 -94t-92 -41z" />
    <glyph glyph-name="dotlessi" unicode="&#x131;" horiz-adv-x="563" 
d="M242 -23q-164 0 -125 197l106 586l-133 84v20l369 103l8 -6l-137 -760q-12 -67 20 -89t168 -24l4 -14q-155 -97 -280 -97z" />
    <glyph glyph-name="Lslash" unicode="&#x141;" horiz-adv-x="1218" 
d="M-20 0l6 35l196 43l78 491l-139 -37l-17 80l170 45l91 570l-183 43l6 35h637l-6 -35l-203 -45l-79 -498l251 68l19 -80l-285 -76l-90 -567l227 4q85 2 137 30t113 99l207 227l27 -12l-94 -420h-1069z" />
    <glyph glyph-name="lslash" unicode="&#x142;" horiz-adv-x="591" 
d="M246 -23q-162 0 -125 197l80 479l-129 -35l-19 76l162 43l96 578l-129 84v20l361 103l8 -6l-119 -717l156 43l20 -78l-190 -51l-84 -512q-12 -67 20 -89t166 -24l4 -14q-151 -97 -278 -97z" />
    <glyph glyph-name="OE" unicode="&#x152;" horiz-adv-x="1972" 
d="M748 72l112 -2l184 1163l-129 -4q-190 -6 -320 -117q-235 -200 -237 -600q0 -200 96 -318t294 -122zM731 0q-293 0 -468 146t-175 405q0 326 225 540t625 214h954l-8 -396l-31 -12l-139 199q-55 80 -96 106t-133 29l-189 4l-88 -545h62q98 0 157 43t111 150l27 57h37
l-91 -571h-34l-11 63q-14 100 -60 143t-142 43h-66l-88 -546l270 6q82 2 134 28t114 93l215 223l27 -12l-103 -410h-1036z" />
    <glyph glyph-name="oe" unicode="&#x153;" horiz-adv-x="1505" 
d="M455 49q82 0 141 91q111 171 111 444q0 139 -45 219t-126 80q-80 0 -140 -91q-113 -173 -111 -442q0 -141 44 -221t126 -80zM1282 791q0 45 -22 71t-62 27q-94 -1 -172 -115t-104 -264q180 -6 270 82t90 199zM1239 954q109 0 177 -57t67 -141q0 -125 -136 -215t-432 -86
q-29 -342 236 -342q125 0 250 104l14 -18q-55 -97 -159 -159t-214 -63q-205 0 -290 168q-141 -168 -346 -168q-162 1 -256 99t-95 278q0 228 154 414q155 186 367 186t288 -182q158 182 375 182z" />
    <glyph glyph-name="Scaron" unicode="&#x160;" horiz-adv-x="1083" 
d="M512 39q118 -1 182 65t64 167t-75 166q-42 37 -76 57t-140 77t-165 112q-60 55 -80 109t-21 126q0 182 131 300t292 118t259 -72l86 69h37l-25 -411l-41 -7q-78 201 -142 276q-65 75 -160 75q-94 0 -158 -65t-64 -159q0 -51 15 -90q24 -64 134 -130q33 -19 136 -75
t165 -111q62 -56 84 -110t21 -125q1 -197 -143 -315t-330 -117q-186 0 -312 84l-92 -82h-37l37 461l47 4q78 -225 166 -311t205 -86zM655 1450l-186 371l31 22l207 -178l284 178l27 -26l-328 -367h-35z" />
    <glyph glyph-name="scaron" unicode="&#x161;" horiz-adv-x="788" 
d="M315 -23q-131 -1 -216 59t-85 148q0 58 34 96t90 38t84 -64q28 -63 -1 -162q72 -45 149 -45q150 0 150 133q0 88 -127 170l-88 58q-92 57 -135 113t-43 136q0 117 100 207q101 90 237 90t203 -51t67 -111t-30 -91q-28 -29 -78 -29t-88 53t-46 139q-39 20 -86 20t-78 -35
q-31 -36 -31 -89q0 -90 121 -162l102 -63q176 -109 176 -241t-104 -224t-277 -93zM479 1069l-186 371l31 22l206 -178l285 178l27 -26l-328 -367h-35z" />
    <glyph glyph-name="Ydieresis" unicode="&#x178;" horiz-adv-x="1300" 
d="M248 0l6 35l201 51l77 496l-278 628l-158 60l6 35h611l-6 -35l-168 -49l213 -553l372 544l-133 60l6 33h426l-6 -37l-164 -62l-467 -608l-81 -512l186 -51l-4 -35h-639zM684 1481q-53 0 -88 35t-35 89t39 95t93 41t88 -36t34 -89t-39 -94t-92 -41zM1174 1616
q0 -53 -40 -94t-92 -41q-53 0 -88 35q-34 35 -34 89t38 95t92 41t89 -36t35 -89z" />
    <glyph glyph-name="Zcaron" unicode="&#x17d;" horiz-adv-x="1273" 
d="M-23 0l-4 20l969 1207l-309 -2q-80 -2 -134 -30t-137 -108l-172 -169l-24 12l98 375h1004l4 -21l-965 -1208l377 4q80 0 131 28t111 95l194 217l25 -12l-103 -408h-1065zM717 1450l-187 371l31 22l207 -178l285 178l26 -26l-327 -367h-35z" />
    <glyph glyph-name="zcaron" unicode="&#x17e;" horiz-adv-x="878" 
d="M604 -23q-68 0 -213 54l-180 61l-172 -94l-31 27l633 692q-270 68 -389 67q-47 0 -76 -14l-2 -8q133 -35 133 -133q-1 -45 -27 -75t-75 -30t-85 39t-36 94q0 100 91 201t216 100q68 0 189 -38l168 -35l143 76l33 -31l-623 -676l295 -64q61 -14 102 6t111 93l16 -8
q-63 -182 -109 -243q-44 -61 -112 -61zM504 1069l-187 371l31 22l207 -178l285 178l26 -26l-327 -367h-35z" />
    <glyph glyph-name="florin" unicode="&#x192;" horiz-adv-x="985" 
d="M29 -379q-82 0 -131 36q-50 36 -50 85t34 83t85 34q125 0 187 -148q51 68 94 326l98 573h-211l6 35l228 80l4 25q25 147 77 244t140 175q129 117 287 117q80 0 135 -39t55 -92t-32 -86t-88 -33t-110 44t-81 128q-64 -49 -104 -143t-77 -311l-6 -41h246l-18 -103h-246
l-59 -350q-33 -203 -85 -325t-143 -211q-100 -103 -235 -103z" />
    <glyph glyph-name="circumflex" unicode="&#x2c6;" horiz-adv-x="641" 
d="M145 1053l-26 26l327 367h35l187 -371l-29 -22l-209 178z" />
    <glyph glyph-name="caron" unicode="&#x2c7;" horiz-adv-x="641" 
d="M371 1069l-187 371l31 22l207 -178l285 178l26 -26l-327 -367h-35z" />
    <glyph glyph-name="breve" unicode="&#x2d8;" horiz-adv-x="696" 
d="M438 1075q-130 0 -194 79t-58 222l47 15q51 -162 223 -162t263 164l45 -17q-78 -301 -326 -301z" />
    <glyph glyph-name="dotaccent" unicode="&#x2d9;" horiz-adv-x="389" 
d="M292 1110q-54 0 -88 36t-34 89t39 94t92 41t87 -35t34 -89t-38 -95t-92 -41z" />
    <glyph glyph-name="ring" unicode="&#x2da;" horiz-adv-x="538" 
d="M365 1087q49 1 73 59t25 128q0 109 -66 108q-49 0 -73 -58t-25 -128q0 -109 66 -109zM367 1044q-89 0 -136 48t-47 124q0 78 60 144t150 66q89 0 136 -48q48 -48 48 -126t-61 -143t-150 -65z" />
    <glyph glyph-name="ogonek" unicode="&#x2db;" horiz-adv-x="559" 
d="M94 -526q-82 0 -140 56t-58 140q0 217 407 426l16 -24q-139 -111 -205 -190t-65 -171q0 -137 141 -137q53 0 107 47l20 -18q-29 -55 -85 -92t-138 -37z" />
    <glyph glyph-name="tilde" unicode="&#x2dc;" horiz-adv-x="706" 
d="M621 1257q70 0 110 93l39 -13q-43 -240 -188 -239q-60 0 -156 39t-135 39q-70 -1 -111 -93l-37 13q41 240 187 239q59 0 154 -39t137 -39z" />
    <glyph glyph-name="hungarumlaut" unicode="&#x2dd;" horiz-adv-x="677" 
d="M442 1059l-22 18q152 289 186 334t78 58q43 13 74 -11q32 -24 28 -64q-4 -42 -41 -83t-303 -252zM166 1059l-25 16q133 279 170 329t80 65t74 -7t30 -66q-1 -42 -44 -90t-285 -247z" />
    <glyph glyph-name="Delta" unicode="&#x394;" 
d="M51 -410v2048h922v-2048h-922z" />
    <glyph glyph-name="Omega" unicode="&#x3a9;" horiz-adv-x="1198" 
d="M924 1196q-64 8 -102 68t-31 163q-18 6 -25 7q-114 -4 -180 -114t-103 -355l-6 -47h367l6 47q23 127 74 231zM1378 1518q82 0 136 -40t54 -94t-32 -86q-33 -32 -89 -32t-111 42q-54 42 -89 124q-72 -52 -117 -148t-75 -309l-8 -57h249l-16 -105h-248l-80 -598
q-26 -201 -74 -332t-143 -225q-106 -111 -229 -111q-70 0 -114 35t-44 85t33 82t84 32q106 0 176 -113q43 76 66 250l118 895h-362l-82 -598q-29 -207 -79 -331t-147 -222t-225 -98q-80 0 -130 38t-50 88t33 82t84 31q117 0 190 -139q51 86 84 328l115 821h-217l6 37l229 80
l7 33q45 283 213 426q125 113 299 112q99 0 165 -38t93 -95q150 150 327 150z" />
    <glyph glyph-name="pi" unicode="&#x3c0;" horiz-adv-x="1511" 
d="M928 792q0 150 -129 158q-39 4 -68 0v-317q31 0 68 4q129 5 129 155zM475 307v33l94 25v573l-94 29v30h361q133 0 196 -58q64 -58 64 -144t-70 -151t-182 -64q-55 0 -113 10v-225l107 -25v-33h-363zM770 29q254 0 434 183t180 440q0 258 -180 440t-434 182t-435 -182
t-181 -440t181 -440q181 -183 435 -183zM770 -31q-284 0 -484 200q-200 199 -200 483t201 484t483 200t484 -200q200 -200 200 -484t-200 -484t-484 -199z" />
    <glyph glyph-name="endash" unicode="&#x2013;" horiz-adv-x="1103" 
d="M80 471l12 80h905l-14 -80h-903z" />
    <glyph glyph-name="emdash" unicode="&#x2014;" horiz-adv-x="1615" 
d="M80 471l12 80h1417l-14 -80h-1415z" />
    <glyph glyph-name="quoteleft" unicode="&#x2018;" horiz-adv-x="436" 
d="M288 842q-64 0 -105 51q-42 51 -42 133q0 201 267 324l22 -27q-154 -133 -184 -244l4 -2l37 10q25 4 35 5q48 0 78 -33t30 -85t-39 -92t-103 -40z" />
    <glyph glyph-name="quoteright" unicode="&#x2019;" horiz-adv-x="436" 
d="M166 1202q0 51 40 92t102 41t105 -51q42 -51 42 -133q-1 -201 -269 -324l-20 27q152 133 184 242l-4 4l-39 -10q-10 -4 -45 -4q-36 0 -66 32q-30 33 -30 84z" />
    <glyph glyph-name="quotesinglbase" unicode="&#x201a;" horiz-adv-x="468" 
d="M138 -14q-34 0 -66 32q-31 32 -31 84q0 50 40 92q41 42 103 42t104 -52t42 -133q-1 -202 -269 -325l-20 26q154 133 184 244l-4 4l-39 -10q-10 -4 -44 -4z" />
    <glyph glyph-name="quotedblleft" unicode="&#x201c;" horiz-adv-x="761" 
d="M282 864q-60 0 -101 49q-40 49 -40 127q0 190 256 310l19 -25q-147 -129 -174 -233l2 -2l37 10q20 4 32 4q45 0 74 -31t29 -81t-37 -89t-97 -39zM622 864q-60 0 -101 49q-40 49 -40 127q0 190 256 310l21 -25q-145 -125 -176 -233l4 -2l37 10q20 4 30 4q45 0 74 -31
t29 -81t-37 -89t-97 -39z" />
    <glyph glyph-name="quotedblright" unicode="&#x201d;" horiz-adv-x="763" 
d="M270 1096q-42 0 -72 32t-30 80q0 49 37 88t97 39t100 -49t40 -127q0 -190 -256 -309l-18 27q145 125 174 231l-2 4l-37 -12q-20 -4 -33 -4zM610 1096q-42 0 -72 32t-30 80q0 49 37 88t99 39t100 -48t38 -128q0 -190 -254 -309l-20 27q145 125 174 231l-2 4l-37 -12
q-20 -4 -33 -4z" />
    <glyph glyph-name="quotedblbase" unicode="&#x201e;" horiz-adv-x="784" 
d="M143 -4q-43 0 -73 32t-29 80q0 48 37 88q36 40 98 40t100 -48t39 -129q0 -192 -254 -309l-20 25q145 125 176 233l-4 4l-37 -12q-20 -4 -33 -4zM485 -4q-43 0 -73 32t-29 80q0 48 37 88q38 40 98 40t100 -48t39 -129q0 -190 -256 -309l-20 25q145 125 176 233l-2 4
l-39 -12q-20 -4 -31 -4z" />
    <glyph glyph-name="dagger" unicode="&#x2020;" horiz-adv-x="901" 
d="M279 -170l165 993l-374 -8l12 82l375 -8l67 483h90l-84 -483l375 8l-12 -82l-375 8l-149 -993h-90z" />
    <glyph glyph-name="daggerdbl" unicode="&#x2021;" horiz-adv-x="901" 
d="M279 -170l86 483l-375 -8l12 82l373 -8l71 444l-376 -8l12 82l375 -8l67 483h90l-86 -483l377 8l-14 -82l-371 8l-71 -444l374 8l-12 -82l-373 8l-69 -483h-90z" />
    <glyph glyph-name="bullet" unicode="&#x2022;" horiz-adv-x="970" 
d="M500 348q-127 0 -216 89t-89 216t89 215t216 88t215 -89t88 -215t-88 -215t-215 -89z" />
    <glyph glyph-name="ellipsis" unicode="&#x2026;" horiz-adv-x="1316" 
d="M179 -33q-56 0 -95 40t-39 95q0 54 39 94t95 40t95 -39t39 -95t-39 -95q-39 -40 -95 -40zM618 -33q-55 0 -95 40t-40 95q0 54 40 94t95 40q54 0 94 -39t40 -95t-40 -95q-40 -40 -94 -40zM1058 -33q-56 0 -95 40t-39 95q0 54 39 94t95 40t95 -39t39 -95t-39 -95
q-39 -40 -95 -40z" />
    <glyph glyph-name="perthousand" unicode="&#x2030;" horiz-adv-x="1511" 
d="M698 952v-297l70 2q63 2 102 41t39 108q0 70 -40 106t-101 38l-51 2h-19zM442 307v33l95 27v573l-95 27v30h406q111 0 169 -49t58 -118q0 -70 -51 -118t-154 -67v-4q123 -18 162 -129q29 -90 66 -135q25 -27 65 -37v-33h-133q-61 0 -89 26t-56 97l-43 109q-18 45 -45 59
t-82 14h-17v-245l95 -27v-33h-351zM770 31q254 0 434 183t180 439q0 257 -180 439t-434 182t-435 -182t-181 -438t181 -440q181 -183 435 -183zM770 -31q-284 0 -484 200q-200 199 -200 483t201 484t483 200t484 -200q200 -200 200 -484t-200 -484t-484 -199z" />
    <glyph glyph-name="guilsinglleft" unicode="&#x2039;" horiz-adv-x="614" 
d="M375 61l-334 390l4 20l453 387l41 -45l-289 -350l174 -365z" />
    <glyph glyph-name="guilsinglright" unicode="&#x203a;" horiz-adv-x="614" 
d="M80 61l-39 45l287 351l-172 364l49 37l332 -389l-5 -20z" />
    <glyph glyph-name="fraction" unicode="&#x2044;" horiz-adv-x="1105" 
d="M123 -70l-66 50l482 667l471 674l65 -51l-481 -666z" />
    <glyph glyph-name="trademark" unicode="&#x2122;" horiz-adv-x="1089" 
d="M240 930v20l53 19v307h-19q-33 -2 -61 -41l-51 -70l-17 2l19 138h354l14 -138l-16 -2l-49 70q-31 39 -61 41h-17v-307l51 -19v-20h-200zM584 930v20l49 25v289l-49 18v23h178l92 -246h4l68 182l20 64h178v-23l-53 -18v-295l53 -19v-20h-192v20l45 19v286h-8l-123 -325
h-37l-131 325h-8v-280l51 -25v-20h-137z" />
    <glyph glyph-name="partialdiff" unicode="&#x2202;" 
d="M51 -410v2048h922v-2048h-922z" />
    <glyph glyph-name="product" unicode="&#x220f;" 
d="M51 -410v2048h922v-2048h-922z" />
    <glyph glyph-name="summation" unicode="&#x2211;" 
d="M51 -410v2048h922v-2048h-922z" />
    <glyph glyph-name="minus" unicode="&#x2212;" horiz-adv-x="1034" 
d="M948 573h-856l17 109h856z" />
    <glyph glyph-name="radical" unicode="&#x221a;" horiz-adv-x="1693" 
d="M477 918h365l8 53q23 135 65 227q-61 12 -96 70t-28 159q-18 6 -27 7q-112 -4 -178 -114t-103 -355zM1047 918h329l56 319q-98 47 -99 199q-18 6 -26 6q-95 -6 -155 -110t-97 -357zM504 -453q-70 0 -114 35t-44 85t33 82t84 32q104 0 178 -113q41 70 66 250l118 895h-362
l-82 -598q-29 -207 -79 -331t-147 -222t-225 -98q-80 0 -130 38t-50 88t33 82t84 31q117 0 190 -139q51 86 84 328l115 821h-217l6 37l229 80l7 33q45 283 213 426q125 113 303 113t247 -120q18 20 64 54q113 82 252 82q94 0 162 -41l151 45l8 -6l-217 -1315q-12 -67 21 -89
t166 -24l4 -14q-152 -96 -277 -97q-160 0 -127 197l109 639h-328l-80 -598q-30 -203 -76 -333t-141 -224q-106 -111 -231 -111z" />
    <glyph glyph-name="infinity" unicode="&#x221e;" 
d="M51 -410v2048h922v-2048h-922z" />
    <glyph glyph-name="integral" unicode="&#x222b;" 
d="M51 -410v2048h922v-2048h-922z" />
    <glyph glyph-name="approxequal" unicode="&#x2248;" horiz-adv-x="1695" 
d="M477 918h365l8 53q23 131 65 227q-59 12 -95 70t-29 159q-18 6 -25 7q-114 -4 -180 -114t-103 -355zM1366 1518q141 0 215 -65t74 -126t-33 -94q-32 -33 -92 -33t-106 62t-46 180q-16 8 -39 8q-113 0 -181 -117t-103 -358l-8 -57h391l151 49l8 -6l-135 -760
q-12 -67 20 -89t169 -24l4 -14q-156 -96 -281 -97q-162 0 -125 197l117 639h-334l-80 -598q-30 -203 -76 -333t-141 -224q-106 -111 -229 -111q-70 0 -114 35t-44 85t32 82t83 32q109 0 178 -113q43 76 66 250l118 895h-362l-82 -598q-29 -207 -79 -331t-147 -222t-225 -98
q-80 0 -130 38t-50 88t33 82t84 31q117 0 190 -139q51 86 84 328l115 821h-217l6 37l229 80l7 33q45 283 213 426q125 113 302 113t246 -116q132 132 324 132z" />
    <glyph glyph-name="notequal" unicode="&#x2260;" 
d="M51 -410v2048h922v-2048h-922z" />
    <glyph glyph-name="lessequal" unicode="&#x2264;" 
d="M51 -410v2048h922v-2048h-922z" />
    <glyph glyph-name="greaterequal" unicode="&#x2265;" 
d="M51 -410v2048h922v-2048h-922z" />
    <glyph glyph-name="lozenge" unicode="&#x25ca;" horiz-adv-x="1032" 
d="M304 1288q-48 0 -48 -55q0 -27 23 -43t77 -36t83 -42q28 -22 28 -73t-41 -87q-76 -65 -213 -14l-18 -23h-21l-4 144h23q76 -115 141 -115q27 0 43 16t16 44q0 27 -21 42q-22 15 -75 33q-117 37 -117 115q0 51 40 85t91 34t92 -17l17 19h20l11 -127l-25 -2
q-74 102 -122 102zM1067 930h-193v20l44 19v286h-7l-125 -325h-36l-129 325h-9v-280l52 -25v-20h-140v20l49 25v289l-49 18v23h181l92 -246h4l88 246h178v-23l-53 -18v-295l53 -19v-20z" />
    <glyph glyph-name="apple" unicode="&#xf8ff;" horiz-adv-x="1421" 
d="M872 580q-31 0 -30 34q0 12 9 24t22 11q13 0 23 -11q10 -10 9 -24q1 -14 -9 -24t-24 -10zM999 612h-24v35h22q20 0 21 -16q-1 -19 -19 -19zM664 823q-35 1 -35 47t30 76l41 -80q-12 -43 -36 -43zM645 1056q0 30 29 29q27 -1 27 -35t-31 -69q-25 45 -25 75zM494 662
l30 -97h17l20 70h2l23 -70h16l29 97h-17l-20 -72h-2l-21 72h-16l-23 -72h-2l-20 72h-16zM270 662v-95h17v66l51 -66h14v95h-16v-66l-51 66h-15zM395 662v-95h68v15h-51v26h45v15h-45v24h51v15h-68zM750 567h16v35l37 60h-19l-26 -46l-27 46h-18l37 -60v-35zM874 565
q22 0 34 15q32 34 0 68q-14 16 -36 16q-20 0 -33 -16t-13 -34q0 -20 12 -34q14 -14 36 -15zM1034 626q0 34 -33 36h-43v-95h17v31h24l21 -31h18l-24 35q20 6 20 24zM1071 662v-95h16v27l15 14l33 -41h18l-39 54l37 41h-21l-43 -50v50h-16zM598 884q0 -92 68 -90q32 0 51 50
h2l24 -49l23 16l-33 61q20 47 27 80l-27 6q-4 -18 -18 -61l-33 64q47 43 47 77q0 72 -55 72q-25 0 -41 -19q-17 -19 -17 -45t29 -79q-47 -37 -47 -83zM985 799q63 0 64 73v281h-33v-281q0 -45 -33 -45q-20 0 -41 13v-33q16 -8 43 -8zM377 1153v-352h31v162h96v-162h31v352
h-31v-162h-96v162h-31zM819 1153v-352h31v160h78v28h-78v135h88v29h-119zM1319 -410h-426l-16 29h-334l-17 -29h-424v621q29 0 48 19q18 19 18 46q0 26 -20 46t-46 20v1135h205l62 161h684l59 -161h207v-1887z" />
    <glyph glyph-name="fi" unicode="&#xfb01;" horiz-adv-x="1124" 
d="M-72 -449q-80 0 -130 38q-50 39 -50 89t33 82t84 31q117 0 190 -139q49 84 84 328l117 833h-217l6 37l229 80l7 41q47 291 215 436q126 111 284 111t232 -65t73 -138q-1 -49 -33 -82t-92 -33t-105 62q-46 62 -46 180q-16 8 -39 8q-114 0 -182 -117t-103 -358l-8 -57h391
l152 49l8 -6l-137 -760q-11 -67 21 -89t169 -24l4 -14q-158 -96 -280 -97q-164 0 -127 197l119 639h-334l-84 -608q-29 -207 -79 -332t-148 -223t-224 -99z" />
    <glyph glyph-name="fl" unicode="&#xfb02;" horiz-adv-x="1124" 
d="M477 918h330l53 319q-96 49 -96 199q-18 6 -27 6q-94 -6 -154 -110t-98 -357zM-72 -449q-80 0 -130 38q-50 39 -50 89t33 82t84 31q117 0 190 -139q49 84 84 328l117 833h-217l6 37l229 80l7 41q45 285 215 430q129 117 295 117q92 0 159 -41l154 45l8 -6l-217 -1315
q-13 -67 19 -89t167 -24l4 -14q-152 -96 -278 -97q-158 0 -125 197l106 639h-325l-84 -608q-29 -207 -79 -332t-148 -223t-224 -99z" />
    <glyph glyph-name="NUL" horiz-adv-x="0" 
 />
  </font>
</defs>
</svg>
