<?xml version="1.0" standalone="no"?>
<!DOCTYPE svg PUBLIC "-//W3C//DTD SVG 1.1//EN" "http://www.w3.org/Graphics/SVG/1.1/DTD/svg11.dtd" >
<svg xmlns="http://www.w3.org/2000/svg">
<metadata>
Created by FontPrep 20130207 at Tue Feb 13 02:16:57 2018
 By Sun Law
Copyright (C) 1996-2005, Hoefler &#38; Frere-Jones, Inc. www.typography.com
</metadata>
<defs>
<font id="d19576345faa5a4f92459e1185a6060d" horiz-adv-x='1024' >
  <font-face 
    font-family="Mercury-DisplayItalic"
    font-weight="500"
    font-style="italic"
    font-stretch="normal"
    units-per-em="2048"
    panose-1="0 0 0 0 0 0 0 0 0 0"
    ascent="1638"
    descent="-410"
    x-height="950"
    cap-height="1305"
    bbox="-313 -545 1991 1845"
    underline-thickness="57"
    underline-position="-176"
    slope="-12"
    unicode-range="U+0020-FB02"
  />
<missing-glyph 
 />
    <glyph glyph-name=".notdef" 
 />
    <glyph glyph-name=".null" horiz-adv-x="0" 
 />
    <glyph glyph-name="nonmarkingreturn" horiz-adv-x="681" 
 />
    <glyph glyph-name="space" unicode=" " horiz-adv-x="430" 
 />
    <glyph glyph-name="exclam" unicode="!" horiz-adv-x="565" 
d="M203 -31q-51 0 -87 36t-36 87t36 87t87 36t87 -36t36 -87t-36 -87t-87 -36zM264 354l-43 6q19 728 39 852t111 123q111 0 110 -129q0 -94 -217 -852z" />
    <glyph glyph-name="quotedbl" unicode="&#x22;" horiz-adv-x="698" 
d="M352 1337q72 0 72 -57q0 -30 -15 -56t-147 -196l-100 -131l-23 10l56 150q68 186 88 221q31 59 69 59zM614 1337q72 0 72 -57q0 -30 -15 -56t-147 -196l-100 -131l-23 10l56 150q68 186 88 221q31 59 69 59z" />
    <glyph glyph-name="numbersign" unicode="#" horiz-adv-x="1206" 
d="M420 475h282l48 158l34 129h-282zM100 408v67h252l47 158l35 129h-270v67h289l92 330l69 -20l-92 -310h281l92 330l70 -20l-93 -310h234v-67h-254l-82 -287h272v-67h-290l-84 -314l-72 21l86 293h-281l-84 -314l15 314h-232z" />
    <glyph glyph-name="dollar" unicode="$" horiz-adv-x="1034" 
d="M709 258q0 96 -45 150t-132 104l-75 -485q113 -1 183 67t69 164zM354 985q0 -131 156 -227l74 469q-90 0 -160 -67t-70 -175zM184 903q0 153 122 263t286 118l22 148l76 -11l-24 -141q172 -14 262 -76l-39 -282l-33 -7q-45 137 -92 208t-111 91l-84 -489q58 -29 78 -41
t52 -30t43 -28q11 -8 36 -28t34 -34q10 -14 26 -38q38 -53 41 -149q-1 -174 -133 -284t-297 -122l-27 -174l-76 8q29 164 29 166q-180 12 -324 90l47 332l31 6q90 -319 258 -364l90 508q-75 39 -109 61t-86 66q-98 81 -98 233z" />
    <glyph glyph-name="percent" unicode="%" horiz-adv-x="1400" 
d="M963 12q88 0 134 117t46 227t-34 172q-34 61 -99 62q-88 0 -134 -117t-46 -227t33 -172q34 -62 100 -62zM395 666q88 0 134 116t46 228q0 234 -133 233q-88 0 -134 -117t-46 -227q0 -109 34 -171t99 -62zM924 -31q-108 0 -174 68t-66 207t101 264t264 125q109 0 175 -68
t64 -188q0 -158 -101 -283t-263 -125zM236 -63l-54 40l498 668l489 674l54 -43l-498 -666zM356 623q-108 -1 -174 67t-65 189q0 159 101 283t263 124q109 0 175 -68t65 -206q1 -140 -101 -264t-264 -125z" />
    <glyph glyph-name="ampersand" unicode="&#x26;" horiz-adv-x="1351" 
d="M547 119q125 0 258 84l76 465h-275q-168 -23 -250 -110t-82 -210q1 -229 273 -229zM432 -23q-150 0 -256 86q-106 85 -106 219t99 234t271 152v8q-111 28 -166 96t-55 156q-1 145 147 256t300 110q78 0 122 -34t46 -77q0 -44 -29 -73t-81 -29t-99 39t-78 109
q-68 -27 -110 -105t-42 -179t75 -163t208 -71l244 100l125 176l45 -12l-39 -225h250l-15 -82h-248l-69 -406q-20 -117 24 -149q33 -25 125 -25t135 4v-20q-170 -94 -274 -94t-146 41q-42 42 -38 131l-9 4q-155 -177 -356 -177z" />
    <glyph glyph-name="quotesingle" unicode="'" horiz-adv-x="436" 
d="M352 1337q72 0 72 -57q0 -30 -15 -56t-147 -196l-100 -131l-23 10l56 150q68 186 88 221q31 59 69 59z" />
    <glyph glyph-name="parenleft" unicode="(" horiz-adv-x="694" 
d="M121 453q0 325 194 614q96 143 254 262t359 189l8 -33q-316 -131 -490 -427t-174 -634q0 -233 98 -435t279 -317l-20 -32q-242 112 -375 330t-133 483z" />
    <glyph glyph-name="parenright" unicode=")" horiz-adv-x="694" 
d="M373 733q0 233 -98 435q-97 202 -279 317l20 33q242 -111 375 -330t133 -483q0 -326 -194 -615q-96 -144 -254 -262t-359 -188l-8 32q315 131 490 427q174 296 174 634z" />
    <glyph glyph-name="asterisk" unicode="*" horiz-adv-x="722" 
d="M360 702l-24 5q-37 51 -27 110t58 156l-9 6q-88 -72 -144 -91t-110 5l-8 22q23 55 79 78t167 31l2 8q-98 37 -148 78t-55 100l17 19q57 8 105 -30t110 -130l10 4q-16 105 -7 165t58 97l25 -2q37 -49 25 -115t-56 -153l8 -6q78 63 140 88t114 -2l10 -23q-25 -56 -79 -78
q-55 -23 -168 -28v-10q102 -41 149 -80t51 -97l-14 -20q-59 -8 -107 31t-110 129l-8 -2q14 -117 4 -175t-58 -90z" />
    <glyph glyph-name="plus" unicode="+" horiz-adv-x="1034" 
d="M932 582h-375l-61 -379h-95l62 379h-377l14 92h377l58 373h94l-58 -373h375z" />
    <glyph glyph-name="comma" unicode="," horiz-adv-x="491" 
d="M170 -16q-43 0 -71 30q-27 30 -27 77q0 48 36 85t94 37t96 -47t38 -125t-62 -157t-184 -138l-20 25q141 119 170 223l-4 2l-35 -8q-20 -4 -31 -4z" />
    <glyph glyph-name="hyphen" unicode="-" horiz-adv-x="704" 
d="M74 422l18 117h459l-19 -117h-458z" />
    <glyph glyph-name="period" unicode="." horiz-adv-x="448" 
d="M205 -33q-51 0 -88 36t-37 87t37 87t88 36t87 -36t36 -87t-36 -87t-87 -36z" />
    <glyph glyph-name="slash" unicode="/" horiz-adv-x="716" 
d="M-145 -430l-58 31l570 954l567 963l55 -29l-569 -957z" />
    <glyph glyph-name="zero" unicode="0" horiz-adv-x="1120" 
d="M511 25q126 0 231 216t106 556q0 250 -98 368q-55 66 -138 66q-131 0 -236 -217t-106 -557q0 -182 58 -307t183 -125zM446 -31q-180 1 -276 143t-96 347q0 348 172 588t424 239q182 0 278 -142t96 -349q0 -348 -173 -587t-425 -239z" />
    <glyph glyph-name="one" unicode="1" horiz-adv-x="782" 
d="M-4 0l4 33l238 67l159 996l-217 84l4 24l410 68l6 -6l-184 -1166l217 -67l-6 -33h-631z" />
    <glyph glyph-name="two" unicode="2" horiz-adv-x="1005" 
d="M688 918q0 96 -53 155t-171 59t-288 -141l-16 25q76 131 187 201q112 69 241 69t215 -88t86 -215q0 -170 -160 -355t-506 -460l2 -6h451l188 184l21 -6l-117 -340h-805l-8 25q303 217 481 417q252 279 252 476z" />
    <glyph glyph-name="three" unicode="3" horiz-adv-x="948" 
d="M313 -31q-143 -1 -236 63t-93 150q0 57 32 91q33 34 82 34q74 1 102 -67t-10 -158q88 -59 182 -59q94 1 166 73t72 196t-79 206t-250 108l2 23q377 125 376 344q0 78 -44 123t-132 45q-129 0 -288 -113l-19 23q186 236 402 235q120 0 190 -73t70 -175t-69 -182t-220 -158
l-2 -14q119 -45 180 -132t61 -190q0 -150 -133 -272t-342 -121z" />
    <glyph glyph-name="four" unicode="4" horiz-adv-x="1085" 
d="M205 524h364l76 473h-4zM289 0l4 33l209 67l47 293h-496l-12 37l799 854l26 -12l-118 -748h237l-20 -131h-238l-47 -293l201 -67l-4 -33h-588z" />
    <glyph glyph-name="five" unicode="5" horiz-adv-x="923" 
d="M350 -31q-143 0 -239 66t-97 151q0 55 32 89t81 34q75 -1 103 -67t-9 -156q89 -63 183 -63q94 -1 160 75t67 209q0 133 -117 227t-364 128l133 591h489l78 78l16 -6l-49 -248h-516l-59 -252q266 -33 411 -147t145 -285q0 -172 -126 -298q-127 -126 -322 -126z" />
    <glyph glyph-name="six" unicode="6" horiz-adv-x="999" 
d="M266 404q0 -164 56 -276t154 -112q100 0 166 119t65 272q1 153 -61 243t-179 89q-82 0 -129 -20q-72 -150 -72 -315zM897 465q1 -195 -137 -345t-311 -151q-173 0 -272 121t-99 313q0 311 241 574q242 262 623 332l8 -35q-399 -172 -585 -502l4 -8q102 49 200 49
q141 0 235 -96t93 -252z" />
    <glyph glyph-name="seven" unicode="7" horiz-adv-x="901" 
d="M31 -31l358 500l414 612h-533l-114 -120l-21 6l88 340l19 6l43 -60h684l6 -14l-789 -1270h-155z" />
    <glyph glyph-name="eight" unicode="8" horiz-adv-x="962" 
d="M209 270q-1 -114 65 -184t163 -70t157 56t61 150q0 94 -42 160t-90 104q-48 36 -146 100q-168 -115 -168 -316zM739 1030q0 96 -53 152t-143 55q-91 0 -153 -71t-62 -156t37 -142t77 -89t119 -81q178 129 178 332zM825 340q-1 -160 -123 -266t-285 -105q-163 0 -272 82
t-109 203t84 212q83 91 228 138q-180 121 -180 288q0 166 114 280t269 114t255 -79t99 -199q0 -240 -307 -334q227 -150 227 -334z" />
    <glyph glyph-name="nine" unicode="9" horiz-adv-x="999" 
d="M555 535q82 0 125 18q70 157 70 315t-46 266t-139 107q-113 0 -185 -118t-71 -272t65 -235t181 -81zM461 459q-145 0 -244 96q-98 96 -98 252q0 193 135 336t310 143q174 0 276 -117t102 -317q0 -285 -244 -548t-624 -357l-8 33q426 207 589 524l-4 6q-106 -51 -190 -51z
" />
    <glyph glyph-name="colon" unicode=":" horiz-adv-x="489" 
d="M172 -33q-51 0 -87 36t-36 87t36 87t87 36t87 -36t36 -87t-36 -87t-87 -36zM268 575q-51 0 -87 36t-36 87t36 87t87 36t87 -36t36 -87t-36 -87t-87 -36z" />
    <glyph glyph-name="semicolon" unicode=";" horiz-adv-x="489" 
d="M147 -16q-45 0 -73 30t-27 77q0 48 36 85q37 37 95 37t96 -47t37 -125q0 -78 -61 -157t-182 -138l-21 25q137 117 170 223l-4 2l-35 -8q-20 -4 -31 -4zM268 575q-51 0 -87 36t-36 87t36 87t87 36t87 -36t36 -87t-36 -87t-87 -36z" />
    <glyph glyph-name="less" unicode="&#x3c;" horiz-adv-x="1034" 
d="M809 229l-657 371l8 55l776 371l6 -94l-659 -309l561 -308z" />
    <glyph glyph-name="equal" unicode="=" horiz-adv-x="1034" 
d="M98 406l15 90h739l-14 -90h-740zM154 758l14 90h739l-14 -90h-739z" />
    <glyph glyph-name="greater" unicode="&#x3e;" horiz-adv-x="1034" 
d="M127 229l-6 95l659 309l-561 307l35 86l657 -371l-8 -55z" />
    <glyph glyph-name="question" unicode="?" horiz-adv-x="821" 
d="M260 -31q-51 0 -88 36t-37 87t37 87t88 36t87 -36t36 -87t-36 -87t-87 -36zM390 346q-83 0 -157 54q-73 54 -73 148t64 152q65 58 196 120t191 114q61 52 61 138q0 84 -58 146t-130 63t-113 -26q14 -37 14 -85t-33 -86q-33 -36 -79 -36q-47 0 -79 34q-32 32 -32 94
t78 111q78 48 221 48t245 -93t103 -228q0 -135 -74 -206q-73 -71 -187 -118t-149 -64t-63 -46t-27 -64q-1 -68 59 -94t144 -19l6 -22q-45 -35 -128 -35z" />
    <glyph glyph-name="at" unicode="@" horiz-adv-x="1777" 
d="M686 383q0 -101 42 -161t115 -60t154 74l82 477q-75 84 -161 84t-159 -122t-73 -292zM898 -328q-322 0 -547 204q-226 204 -226 547t248 585t602 241q301 0 489 -189t188 -432t-144 -412t-332 -169q-86 0 -137 41q-50 41 -50 100l-6 5q-106 -129 -231 -130q-86 0 -148 75
q-61 75 -61 208q0 197 147 362t348 164q63 0 127 -34l70 59l10 -6l-117 -631q-29 -156 82 -156q145 0 232 130q86 130 86 358t-169 404t-450 178q-281 0 -461 -205t-180 -545q0 -285 186 -469t509 -184q248 0 464 106l13 -16q-220 -189 -542 -189z" />
    <glyph glyph-name="A" unicode="A" horiz-adv-x="1284" 
d="M385 547h365l-107 530h-2q-254 -530 -256 -530zM-104 0l6 35l153 55l647 1227h82l273 -1235l160 -47l-7 -35h-577l4 35l209 37l-82 407h-410l-190 -395l141 -49l-6 -35h-403z" />
    <glyph glyph-name="B" unicode="B" horiz-adv-x="1228" 
d="M532 53q170 1 264 97t93 239q0 262 -289 262h-115l-92 -583q67 -15 139 -15zM604 709q158 0 238 87t80 224q0 231 -215 231q-68 0 -129 -12l-84 -530h110zM743 1305q201 0 293 -76t92 -198t-89 -207t-248 -117l-3 -11q315 -39 316 -311q0 -153 -151 -269t-363 -116h-608
l4 35l209 37l184 1161l-197 37l6 35h555z" />
    <glyph glyph-name="C" unicode="C" horiz-adv-x="1337" 
d="M700 -31q-262 0 -436 164q-174 163 -174 447t202 520t496 235q201 0 351 -82l112 88h25l-55 -438l-33 -4q-115 389 -393 389q-189 0 -337 -213t-149 -545q0 -219 124 -358t292 -139q102 0 166 26l254 310l18 -9l-57 -299q-193 -92 -406 -92z" />
    <glyph glyph-name="D" unicode="D" horiz-adv-x="1437" 
d="M551 68q193 0 332 101q264 192 266 609q0 211 -111 335t-333 124h-127l-185 -1169h158zM735 1305q295 0 464 -151t169 -398q0 -316 -221 -536t-608 -220h-557l4 35l209 37l184 1161l-199 37l6 35h549z" />
    <glyph glyph-name="E" unicode="E" horiz-adv-x="1269" 
d="M803 1237h-225l-89 -551h91q92 0 149 43t102 150l29 67h31l-92 -575h-31l-8 63q-14 109 -55 152t-136 43h-88l-88 -559h295q104 0 158 46q20 17 63 62l215 230l19 -9l-101 -399h-1062l6 35l209 37l184 1161l-197 37l4 35h983l-6 -351l-22 -14l-129 174q-57 78 -91 100
t-118 23z" />
    <glyph glyph-name="F" unicode="F" horiz-adv-x="1202" 
d="M813 1237h-235l-89 -559h123q94 0 150 43q55 43 102 151l29 68h31l-90 -575h-33l-6 63q-11 106 -55 150t-136 43h-125l-86 -549l209 -37l-4 -35h-618l6 35l209 37l184 1161l-197 37l4 35h994l-6 -351l-23 -14l-129 174q-57 78 -93 100t-116 23z" />
    <glyph glyph-name="G" unicode="G" horiz-adv-x="1388" 
d="M610 -31q-223 0 -371 170t-149 426q0 299 202 535t496 235q195 0 345 -82l112 88h25l-56 -438l-32 -4q-115 389 -387 389q-189 0 -337 -210t-149 -535q-1 -223 101 -353t256 -131q154 0 258 62l77 407l-180 39l6 35h525l-6 -35l-156 -37l-88 -546l-21 -9l-143 105
q-168 -111 -328 -111z" />
    <glyph glyph-name="H" unicode="H" horiz-adv-x="1603" 
d="M-20 0l6 35l209 37l184 1161l-197 37l4 35h607l-7 -35l-208 -37l-84 -522h630l84 522l-198 37l6 35h604l-4 -35l-209 -37l-184 -1161l196 -37l-6 -35h-604l6 35l209 37l90 571h-631l-90 -571l197 -37l-6 -35h-604z" />
    <glyph glyph-name="I" unicode="I" horiz-adv-x="835" 
d="M4 0l6 35l215 37l185 1161l-203 37l4 35h618l-6 -35l-215 -37l-184 -1161l203 -37l-4 -35h-619z" />
    <glyph glyph-name="J" unicode="J" horiz-adv-x="1017" 
d="M240 -37q-145 0 -212 55t-67 122t33 105t86 38q84 0 116 -78t-14 -178q166 4 239 90t99 254l135 862l-202 37l6 35h610l-6 -35l-207 -37l-125 -782q-20 -135 -55 -219t-103 -142q-145 -127 -333 -127z" />
    <glyph glyph-name="K" unicode="K" horiz-adv-x="1390" 
d="M-20 0l6 35l209 37l184 1161l-197 37l4 35h607l-7 -35l-208 -37l-89 -547h140l485 516l-141 76l4 27h446l-6 -35l-192 -74l-477 -477l374 -625l164 -59l-4 -35h-543l6 35l150 49l-297 534h-119l-86 -546l197 -37l-4 -35h-606z" />
    <glyph glyph-name="L" unicode="L" horiz-adv-x="1216" 
d="M676 70q104 0 158 46q20 17 63 62l215 230l18 -9l-100 -399h-1050l6 35l209 37l184 1161l-197 37l4 35h607l-7 -35l-208 -37l-185 -1163h283z" />
    <glyph glyph-name="M" unicode="M" horiz-adv-x="1845" 
d="M12 0l6 35l170 55l181 1139l-154 41l4 35h424l43 -211l176 -809h10l545 1020h447l-6 -35l-209 -37l-185 -1161l197 -37l-6 -35h-604l6 35l209 37l178 1128h-12l-652 -1200h-49l-285 1200h-14l-176 -1110l154 -55l-7 -35h-391z" />
    <glyph glyph-name="N" unicode="N" horiz-adv-x="1495" 
d="M1075 -12l-117 209l-528 907h-12l-162 -1014l152 -55l-5 -35h-393l6 35l170 55l181 1127l-154 53l6 35h344l545 -963h14l140 872l-154 56l6 35h391l-4 -35l-172 -56l-194 -1226h-60z" />
    <glyph glyph-name="O" unicode="O" horiz-adv-x="1425" 
d="M635 16q180 0 327 216q146 216 146 556q0 289 -141 426q-76 74 -185 74q-180 0 -326 -216t-147 -556q0 -289 141 -425q76 -75 185 -75zM639 -31q-249 0 -399 168t-150 428q0 193 85 369t247 289t358 112q246 0 397 -168t150 -426q0 -193 -85 -369q-86 -176 -246 -289
q-160 -114 -357 -114z" />
    <glyph glyph-name="P" unicode="P" horiz-adv-x="1218" 
d="M610 625q164 0 255 95q91 94 91 232t-70 218t-190 81q-57 0 -118 -12l-95 -604q61 -10 127 -10zM741 1305q213 -1 323 -99t110 -250t-136 -273q-136 -120 -362 -120q-102 0 -203 23l-80 -514l197 -37l-6 -35h-604l6 35l207 37l186 1161l-199 37l6 35h555z" />
    <glyph glyph-name="Q" unicode="Q" horiz-adv-x="1425" 
d="M635 16q180 0 327 216q146 216 146 556q0 289 -141 426q-76 74 -185 74q-180 0 -326 -216t-147 -556q0 -289 141 -425q76 -75 185 -75zM967 -428q-113 0 -173 14t-108 52t-117 192l-67 156q-190 44 -301 202t-111 364t85 382t247 289t358 112q246 0 397 -168t150 -426
q0 -180 -76 -348q-76 -167 -219 -283t-321 -137q86 -203 177 -273t218 -95l-6 -33h-133z" />
    <glyph glyph-name="R" unicode="R" horiz-adv-x="1298" 
d="M616 668q158 0 249 93t91 221t-67 199q-68 71 -191 70q-59 0 -120 -12l-91 -571h129zM754 1305q213 0 318 -86q106 -86 106 -218q0 -133 -106 -229t-296 -133l-2 -10q70 -25 110 -78t56 -102t26 -78t20 -59q9 -30 19 -51q9 -21 26 -64t56 -81t72 -56t94 -25l-6 -35h-229
q-84 0 -132 30q-43 25 -91 187l-76 236q-33 100 -64 129t-100 28h-76l-86 -538l197 -37l-6 -35h-604l6 35l209 37l184 1161l-197 37l4 35h568z" />
    <glyph glyph-name="S" unicode="S" horiz-adv-x="1062" 
d="M482 29q116 -1 189 71t72 187q0 79 -51 146q-34 49 -140 102t-159 87q-136 87 -172 175q-23 55 -22 127q1 172 121 292t288 119q121 0 217 -63l95 69h28l-26 -393l-33 -4q-66 186 -123 259q-58 73 -152 73t-167 -70t-73 -182t85 -180q60 -49 154 -99q93 -49 129 -71
t85 -65q93 -80 93 -216q0 -193 -142 -309t-314 -115q-171 0 -288 64l-94 -70h-29l45 449l35 4q57 -215 145 -301t204 -86z" />
    <glyph glyph-name="T" unicode="T" horiz-adv-x="1277" 
d="M518 1237q-76 0 -121 -29t-135 -127l-143 -157l-21 12l115 369h1063l14 -369l-22 -12l-101 157q-63 98 -100 127t-115 29h-118l-185 -1165l211 -37l-6 -35h-631l4 35l224 37l184 1165h-117z" />
    <glyph glyph-name="U" unicode="U" horiz-adv-x="1480" 
d="M684 -35q-258 0 -373 127t-73 381l120 760l-196 37l6 35h606l-4 -35l-209 -37l-123 -776q-31 -197 52 -288t253 -91t274 106q103 106 132 281l119 749l-154 56l6 35h391l-6 -35l-170 -56l-127 -794q-33 -199 -177 -327t-347 -128z" />
    <glyph glyph-name="V" unicode="V" horiz-adv-x="1290" 
d="M524 -12l-272 1235l-172 47l6 35h590l-4 -35l-209 -37l194 -991l510 970l-137 58l4 35h375l-4 -35l-158 -58l-659 -1224h-64z" />
    <glyph glyph-name="W" unicode="W" horiz-adv-x="1869" 
d="M434 -12l-182 1235l-172 47l4 35h580l-7 -35l-194 -37l112 -975l412 823l-26 142l-160 47l6 35h555l-4 -35l-197 -37l156 -979l430 958l-135 58l4 35h375l-6 -35l-156 -58l-584 -1224h-63l-174 983l-510 -983h-64z" />
    <glyph glyph-name="X" unicode="X" horiz-adv-x="1406" 
d="M-35 0l6 35l176 55l478 535l-297 598l-172 47l6 35h577l-4 -35l-184 -37q18 -43 79 -183q62 -140 91 -206l27 -68l368 445l-141 49l6 35h432l-6 -35l-176 -56l-445 -503l316 -629l172 -47l-6 -35h-578l4 35l185 37q-217 494 -220 493l-397 -481l141 -49l-6 -35h-432z" />
    <glyph glyph-name="Y" unicode="Y" horiz-adv-x="1306" 
d="M246 0l6 35l215 37l80 508l-281 643l-172 47l6 35h578l-6 -35l-183 -37l224 -582l401 570l-141 49l6 35h420l-6 -35l-170 -56l-473 -616l-84 -526l202 -37l-4 -35h-618z" />
    <glyph glyph-name="Z" unicode="Z" horiz-adv-x="1284" 
d="M612 1237q-80 0 -126 -22t-115 -85l-187 -174l-16 15l98 334h973l4 -21l-979 -1214h430q84 0 124 16t91 72l207 221l21 -12l-107 -367h-1032l-4 20l977 1217h-359z" />
    <glyph glyph-name="bracketleft" unicode="[" horiz-adv-x="595" 
d="M-14 -360l299 1878h516l-8 -54h-349l-282 -1771h350l-10 -53h-516z" />
    <glyph glyph-name="backslash" unicode="\" horiz-adv-x="804" 
d="M819 -430l-409 962l-422 957l67 29l410 -963l422 -954z" />
    <glyph glyph-name="bracketright" unicode="]" horiz-adv-x="595" 
d="M-233 -360l8 53h348l283 1771h-349l9 54h516l-299 -1878h-516z" />
    <glyph glyph-name="asciicircum" unicode="^" horiz-adv-x="628" 
d="M147 1034l-20 21l305 362h29l176 -362l-27 -21l-196 203z" />
    <glyph glyph-name="underscore" unicode="_" horiz-adv-x="917" 
d="M8 0v68h901v-68h-901z" />
    <glyph glyph-name="grave" unicode="`" horiz-adv-x="503" 
d="M424 1061q-29 41 -103 136t-93 130t-11 67t37 48q28 16 56 6t42 -37t28 -80t36 -129q20 -76 35 -123z" />
    <glyph glyph-name="a" unicode="a" horiz-adv-x="950" 
d="M227 352q0 -112 47 -184t129 -72t179 88l100 574q-86 100 -184 100t-184 -148t-87 -358zM320 -23q-112 -1 -188 89q-77 90 -77 241q0 242 175 443t405 200q70 0 149 -41l84 72l13 -8l-150 -803q-6 -35 0 -50q15 -38 184 -42l5 -15q-137 -86 -244 -86q-102 0 -103 150
l-8 6q-133 -156 -245 -156z" />
    <glyph glyph-name="b" unicode="b" horiz-adv-x="956" 
d="M446 70q106 0 195 145q88 145 88 350q0 121 -50 194t-143 73t-176 -58l-106 -604q86 -100 192 -100zM338 -23q-147 0 -254 97l209 1255l-133 64v20l313 107l8 -7l-114 -690l8 -6q147 133 261 133t190 -90q75 -90 75 -250q0 -227 -178 -430t-385 -203z" />
    <glyph glyph-name="c" unicode="c" horiz-adv-x="813" 
d="M393 -23q-158 1 -248 105t-90 258q0 230 161 420t372 190q104 0 160 -51t55 -107q0 -56 -27 -90q-28 -32 -74 -32t-76 35t-30 93t22 111q-162 -2 -276 -167t-113 -365q0 -145 67 -213q66 -68 188 -68t235 109l14 -19q-47 -90 -143 -150t-197 -59z" />
    <glyph glyph-name="d" unicode="d" horiz-adv-x="970" 
d="M227 362q1 -122 51 -194t139 -72t185 88l100 574q-86 100 -192 100t-194 -145t-89 -351zM324 -23q-106 -1 -188 91t-81 249q0 236 178 435t418 198q47 0 80 -10l66 389l-133 64v20l311 107l8 -7l-227 -1343q-10 -55 23 -73q34 -17 161 -19l4 -15q-139 -86 -248 -86
q-102 0 -102 150l-8 6q-133 -156 -262 -156z" />
    <glyph glyph-name="e" unicode="e" horiz-adv-x="825" 
d="M547 901q-106 1 -188 -113t-115 -268q100 -12 181 8t127 64q95 90 93 190q0 53 -25 86q-26 33 -73 33zM53 330q0 150 62 288q61 140 182 236t272 96q107 0 169 -55t63 -133q0 -121 -141 -212t-424 -81q-23 -176 37 -276t192 -101q63 0 130 31t112 82l14 -19
q-45 -90 -142 -149t-192 -60q-156 -1 -245 101t-89 252z" />
    <glyph glyph-name="f" unicode="f" horiz-adv-x="606" 
d="M-76 -449q-66 0 -106 33t-39 74q0 41 28 67q29 26 78 25q96 0 164 -110q68 106 96 313l123 870h-215l6 37l224 58l10 71q25 168 76 264q51 97 157 181t236 84q78 0 123 -34t45 -78t-29 -73t-81 -29t-99 40q-47 38 -78 108q-74 -56 -118 -154t-72 -303l-13 -88h232
l-15 -84h-229l-90 -645q-33 -226 -73 -332t-130 -196q-94 -99 -211 -99z" />
    <glyph glyph-name="g" unicode="g" horiz-adv-x="899" 
d="M376 -387q118 0 185 45q68 45 68 123t-88 141t-308 125q-152 -70 -151 -209q0 -88 88 -156t206 -69zM431 319q83 -1 140 101t57 221t-43 189q-44 70 -127 69q-82 0 -140 -101t-58 -220t44 -189t127 -70zM776 -148q0 -110 -118 -206t-316 -95q-196 0 -308 77
q-112 76 -112 182t88 178t223 98l50 197q-88 29 -138 101q-49 73 -49 167q0 155 117 277t295 122q135 0 211 -86q117 111 196 111q51 0 81 -28q30 -27 30 -69t-24 -72t-60 -30t-58 25t-20 61l-125 -22q51 -74 52 -174q0 -154 -116 -276t-294 -122h-14q-27 -82 36 -102
q211 -70 292 -138q81 -66 81 -176z" />
    <glyph glyph-name="h" unicode="h" horiz-adv-x="1011" 
d="M736 -23q-106 0 -105 103q0 37 14 108l68 383q20 123 -3 181q-24 57 -112 57q-60 0 -108 -18t-140 -66l-121 -725h-157l221 1329l-133 64v20l313 107l8 -7l-123 -743l9 -4q221 184 339 184t158 -87t13 -240l-84 -453q-10 -51 24 -71q35 -19 160 -21l6 -15
q-141 -86 -247 -86z" />
    <glyph glyph-name="i" unicode="i" horiz-adv-x="522" 
d="M217 -23q-61 0 -88 43t-16 103l112 649l-133 64v20l314 107l8 -7l-133 -786q-10 -55 24 -73q35 -17 160 -19l4 -15q-137 -86 -252 -86zM382 1137q-98 0 -98 104q0 53 37 101q36 48 82 48q47 0 71 -24q24 -25 24 -79t-35 -102t-81 -48z" />
    <glyph glyph-name="j" unicode="j" horiz-adv-x="507" 
d="M-100 -449q-66 0 -105 32t-41 74t26 68t77 25q100 0 168 -110q68 113 96 313l119 819l-136 64v20l312 107l8 -7l-111 -778q-33 -226 -73 -332t-132 -200q-91 -94 -208 -95zM390 1137q-98 0 -98 104q0 53 37 101q36 48 82 48q47 0 71 -24q24 -25 24 -79t-35 -102t-81 -48z
" />
    <glyph glyph-name="k" unicode="k" horiz-adv-x="913" 
d="M713 -23q-121 0 -152 127q-55 217 -97 285t-155 84l-80 -473h-157l223 1329l-135 64v20l313 107l8 -7l-164 -983q127 31 223 78t134 92q-35 56 -35 114t33 99q34 41 78 41t69 -34t25 -91q0 -190 -365 -290v-9q59 -12 91 -34t73 -86q41 -62 74 -240q10 -50 53 -70t170 -22
l4 -15q-137 -86 -231 -86z" />
    <glyph glyph-name="l" unicode="l" horiz-adv-x="522" 
d="M219 -23q-63 0 -90 42t-16 104l204 1206l-133 64v20l314 107l8 -7l-223 -1343q-10 -55 23 -73q34 -17 161 -19l4 -15q-137 -86 -252 -86z" />
    <glyph glyph-name="m" unicode="m" horiz-adv-x="1531" 
d="M1258 -23q-106 0 -107 103q0 37 14 108l68 383q27 117 11 177t-102 61q-87 0 -245 -84l-121 -725h-158l97 571q30 158 5 198t-89 40q-63 0 -111 -18t-141 -66l-121 -725h-158l131 772l-133 64v20l299 107l9 -7l-19 -186l8 -4q113 96 194 140t154 44q156 0 156 -184l8 -6
q215 190 355 190q106 0 137 -88t-2 -239l-84 -453q-10 -51 24 -71q35 -19 160 -21l6 -15q-139 -86 -245 -86z" />
    <glyph glyph-name="n" unicode="n" horiz-adv-x="1040" 
d="M766 -23q-106 0 -107 103q0 47 13 108l69 383q45 238 -100 238q-73 0 -121 -18t-141 -66l-121 -725h-158l131 772l-133 64v20l299 107l9 -7l-21 -186l10 -4q113 96 194 140t154 44q109 0 150 -87t12 -240l-84 -453q-10 -50 25 -70t160 -22l4 -15q-138 -86 -244 -86z" />
    <glyph glyph-name="o" unicode="o" horiz-adv-x="925" 
d="M430 39q68 0 122 54t84 136q60 164 60 286t-17 195t-65 126t-116 53q-70 0 -123 -54q-90 -92 -131 -315t35 -381q47 -100 151 -100zM870 602q0 -158 -56 -296q-56 -136 -174 -232t-264 -97q-146 1 -234 97t-87 268q-1 224 141 416t367 192q139 0 223 -95t84 -253z" />
    <glyph glyph-name="p" unicode="p" horiz-adv-x="985" 
d="M475 70q106 0 194 145q87 145 87 350q0 119 -50 193t-138 74t-187 -87l-98 -575q86 -100 192 -100zM930 610q0 -227 -179 -430t-386 -203q-57 0 -111 17l-59 -346l159 -49l-4 -27h-463l7 27l143 49l194 1124l-133 64v20l299 107l9 -7l-15 -153l6 -6q133 154 277 153
q106 0 181 -90t75 -250z" />
    <glyph glyph-name="q" unicode="q" horiz-adv-x="923" 
d="M227 362q1 -122 51 -194t139 -72t185 88l98 574q-86 100 -192 100t-194 -145q-87 -145 -87 -351zM322 -23q-106 -1 -186 91t-81 249q0 236 178 435t418 198q68 0 148 -41l84 72l14 -8l-227 -1325l127 -49l-4 -27h-449l4 27l164 49l82 479l-8 6q-133 -156 -264 -156z" />
    <glyph glyph-name="r" unicode="r" horiz-adv-x="745" 
d="M646 954q58 0 92 -28t34 -72q0 -45 -31 -75t-73 -29q-68 0 -131 61q-80 -25 -164 -119l-115 -692h-158l131 772l-133 64v20l301 107l9 -7l-25 -206l8 -7q51 95 124 153t131 58z" />
    <glyph glyph-name="s" unicode="s" horiz-adv-x="743" 
d="M643 282q0 -126 -97 -216q-98 -89 -236 -89q-138 -1 -215 55t-77 136q0 55 30 90t71 35q63 -1 85 -63t-9 -152q65 -39 145 -39t121 43t41 113q0 92 -125 178l-92 63q-82 56 -118 110t-36 128q0 106 91 191t212 85t179 -49q59 -49 59 -98t-23 -74t-61 -24q-96 0 -131 174
q-41 10 -84 10t-76 -37t-33 -94q0 -98 119 -176l117 -78q143 -96 143 -222z" />
    <glyph glyph-name="t" unicode="t" horiz-adv-x="628" 
d="M300 -16q-110 0 -152 52t-23 163l106 624h-141l4 29l176 117l125 176l47 -12l-39 -226h250l-14 -84h-250l-94 -557q-19 -118 19 -146t120 -28t146 6v-20q-170 -94 -280 -94z" />
    <glyph glyph-name="u" unicode="u" horiz-adv-x="1032" 
d="M311 -23q-111 1 -157 89t-17 239l84 467l-133 64v20l313 107l9 -7l-107 -598q-19 -125 3 -182t110 -57q59 0 108 18t140 68l96 567l-133 64v20l311 107l8 -7l-133 -786q-10 -54 24 -72t160 -20l4 -15q-137 -86 -220 -86q-83 1 -107 49t-17 132l-8 6q-199 -187 -338 -187z
" />
    <glyph glyph-name="v" unicode="v" horiz-adv-x="931" 
d="M172 817q-41 0 -119 -24l-10 14q47 55 109 99t106 44q43 0 70 -16t37 -34q9 -18 33 -70t46 -250t25 -385l8 -5q225 279 273 445q-91 195 -22 278q30 37 75 37t73 -42t27 -107q0 -277 -575 -836l-43 23l39 108q-33 508 -91 662q-20 59 -61 59z" />
    <glyph glyph-name="w" unicode="w" horiz-adv-x="1353" 
d="M163 817q-32 0 -110 -24l-10 14q47 55 109 99t115 44q52 0 78 -24q27 -24 53 -86q26 -60 48 -258t25 -387l8 -5q141 205 240 431q-33 213 -39 260l145 82h11q80 -594 104 -768l8 -5q178 236 230 445q-97 191 -30 279q28 36 74 36t72 -41t31 -108q5 -152 -145 -380
t-377 -456l-43 23l37 108q-49 340 -58 393q-178 -299 -411 -524l-43 23l41 108q-46 649 -116 708q-16 13 -47 13z" />
    <glyph glyph-name="x" unicode="x" horiz-adv-x="970" 
d="M119 -27q-53 0 -87 28t-34 73q0 44 30 74t82 30t111 -55q80 57 211 283q-106 268 -142 328t-50 76q-37 40 -162 40l-4 16q14 8 44 26l42 24q58 34 108 34q84 0 146 -104t116 -287l9 -2q86 215 161 306q76 91 158 91q51 0 85 -28t34 -72q0 -45 -30 -75q-30 -29 -82 -29
t-105 55q-109 -96 -205 -305q84 -219 143 -330q29 -54 65 -72t136 -20l2 -15q-25 -18 -49 -30q-24 -13 -42 -23q-52 -30 -110 -33q-82 -1 -136 95t-109 282l-11 2q-171 -383 -325 -383z" />
    <glyph glyph-name="y" unicode="y" horiz-adv-x="925" 
d="M-53 -302q0 122 101 122q50 0 81 -58t27 -139q82 45 162 143t139 211q-45 240 -109 476q-63 236 -93 300t-72 64t-115 -24l-11 14q43 57 99 100t105 43q50 0 79 -26q28 -26 62 -90t85 -259t70 -362h10q133 391 207 750h8l154 -82q-43 -91 -140 -323q-96 -232 -160 -374
t-156 -301q-92 -158 -173 -227q-123 -105 -200 -105q-77 -1 -119 45t-41 102z" />
    <glyph glyph-name="z" unicode="z" horiz-adv-x="837" 
d="M598 -23q-53 0 -211 50l-197 63l-143 -96l-27 22l625 740q-262 55 -352 55t-121 -23v-8q57 -12 87 -46t30 -72q-1 -38 -21 -65q-20 -26 -61 -26t-76 36t-35 87q0 94 95 175t210 81q31 0 80 -8l246 -39l102 64l33 -27l-618 -723l344 -70q47 -9 83 9t91 71l12 -6
q-45 -137 -84 -191t-92 -53z" />
    <glyph glyph-name="braceleft" unicode="{" horiz-adv-x="698" 
d="M551 -360q-102 4 -167 19t-115 52q-96 71 -64 283l47 299q24 150 -26 213t-199 82l6 33q153 17 225 81t94 213l37 248q31 203 139 274q109 71 322 81l-8 -41q-140 -23 -196 -74t-77 -189l-34 -233q-31 -201 -110 -275t-239 -100l-2 -4q159 -32 201 -93q42 -60 40 -135
q-1 -75 -11 -147l-45 -286q-20 -137 18 -189q39 -51 170 -74z" />
    <glyph glyph-name="bar" unicode="|" horiz-adv-x="565" 
d="M246 -494l6 965l-6 965h73l-6 -965l6 -965h-73z" />
    <glyph glyph-name="braceright" unicode="}" horiz-adv-x="698" 
d="M-158 -360l6 38q139 23 196 74q56 51 77 189l39 247q31 201 108 274q78 73 240 101v4q-152 29 -207 102t-22 273l45 272q22 136 -18 188t-171 75l6 41q207 -10 293 -82t53 -273l-47 -286q-26 -151 26 -215t202 -80l-6 -33q-154 -16 -225 -81t-95 -214l-41 -260
q-31 -203 -139 -274q-109 -70 -320 -80z" />
    <glyph glyph-name="asciitilde" unicode="~" horiz-adv-x="755" 
d="M297 754q55 0 149 -36t132 -36q70 0 102 86l27 -12q-31 -203 -164 -203q-53 0 -149 36t-134 36q-65 0 -102 -84l-27 10q33 203 166 203z" />
    <glyph glyph-name="nbspace" unicode="&#xa0;" horiz-adv-x="215" 
 />
    <glyph glyph-name="exclamdown" unicode="&#xa1;" horiz-adv-x="534" 
d="M123 -545q-111 0 -111 129q0 94 217 852l43 -6q-20 -729 -40 -852t-109 -123zM291 575q-51 0 -87 36t-36 87t36 87t87 36t87 -36t36 -87t-36 -87t-87 -36z" />
    <glyph glyph-name="cent" unicode="&#xa2;" horiz-adv-x="915" 
d="M369 119l59 342l64 413q-115 -53 -184 -199t-68 -298q0 -192 129 -258zM592 950q113 0 175 -53t62 -115q1 -62 -25 -97q-26 -34 -69 -34q-77 0 -105 71t19 171q-43 8 -86 2l-76 -442l-55 -353q29 -4 70 -4q42 0 116 30t119 79l15 -19q-42 -86 -142 -145t-196 -64
l-27 -163l-70 6l29 162q-133 18 -207 116t-73 242q0 190 128 374t308 226l26 166l70 -8l-25 -148h19z" />
    <glyph glyph-name="sterling" unicode="&#xa3;" horiz-adv-x="1087" 
d="M51 -31q-96 0 -96 80q0 55 71 98t195 50q152 154 152 288q0 57 -13 107h-251l12 82h221q-16 82 -16 141q0 186 152 329q153 142 366 142q86 0 131 -36t45 -86t-28 -79t-83 -29t-104 46q-49 45 -80 121q-111 -49 -157 -133t-46 -218q0 -62 12 -121t15 -77h297l-12 -82
h-277v-25q0 -94 -70 -196t-194 -164v-14q80 7 243 -7t193 -14q80 0 116 43t79 154l45 -2q-31 -180 -114 -289t-204 -109t-407 152q-38 -70 -92 -111t-101 -41z" />
    <glyph glyph-name="currency" unicode="&#xa4;" horiz-adv-x="1146" 
d="M614 -31q-200 1 -318 139t-130 353h-131l10 67h119q2 90 29 187h-121l12 67h131q78 216 250 360t360 144q129 0 187 -57t57 -121q0 -64 -33 -104q-33 -39 -80 -39q-90 0 -120 83t14 185q-174 -2 -292 -131t-169 -320h535l-11 -67h-540q-16 -102 -17 -187h531l-10 -67
h-517q20 -164 112 -256t208 -92q193 0 330 125l18 -21q-61 -121 -172 -185t-242 -63z" />
    <glyph glyph-name="yen" unicode="&#xa5;" horiz-adv-x="1259" 
d="M205 0l4 35l215 37l47 293h-344l10 69h344l21 135h-342l10 70h313l-221 532l-172 48l6 34h580l-6 -34l-185 -37l187 -529l377 516l-142 50l6 34h418l-4 -34l-170 -56l-414 -524h316l-12 -70h-345l-22 -135h346l-12 -69h-344l-45 -293l202 -37l-6 -35h-616z" />
    <glyph glyph-name="brokenbar" unicode="&#xa6;" horiz-adv-x="548" 
d="M311 -494h-73l6 422l-6 422h73l-6 -422zM311 592h-73l6 422l-6 422h73l-6 -422z" />
    <glyph glyph-name="section" unicode="&#xa7;" horiz-adv-x="944" 
d="M688 249q0 63 -22 141t-50 134q-27 57 -90 148t-146 197t-86 110t-10 12t-12 15q-10 -51 -10 -99q0 -176 100 -348t316 -430q10 57 10 120zM360 -201q-152 0 -248 76t-98 172q0 59 32 97t87 38q76 0 103 -74t-15 -167q66 -88 199 -88q80 0 148 59t100 170
q-260 166 -386 334t-126 392t136 396q136 170 355 170q125 0 193 -57t67 -135q-1 -47 -27 -79t-80 -32t-94 52t-40 151q-47 39 -117 39t-150 -71t-116 -187q516 -328 516 -723q0 -225 -120 -379t-319 -154z" />
    <glyph glyph-name="dieresis" unicode="&#xa8;" horiz-adv-x="675" 
d="M257 1126q-44 0 -73 29q-28 29 -28 73t31 77q32 33 77 33t73 -30q28 -28 28 -71t-32 -77t-76 -34zM686 1237q0 -43 -32 -77t-75 -34q-44 0 -72 29t-28 72t32 77t76 34q43 0 71 -30q28 -28 28 -71z" />
    <glyph glyph-name="copyright" unicode="&#xa9;" horiz-adv-x="1519" 
d="M780 291q-166 0 -268 97t-102 254q0 156 108 264t266 108q92 0 158 -33l37 37h25l12 -248l-29 -2q-92 203 -233 203q-80 0 -136 -76q-56 -77 -57 -231q0 -154 69 -239t179 -85q49 0 74 12l127 162l20 -4l-22 -168q-109 -51 -228 -51zM760 16q262 0 447 186t185 450
t-184 450q-186 186 -448 186t-448 -186t-185 -450q-1 -264 185 -450t448 -186zM760 -31q-283 0 -484 200q-200 199 -200 483t200 484q201 200 484 200q284 0 484 -200t200 -484t-200 -484t-484 -199z" />
    <glyph glyph-name="ordfeminine" unicode="&#xaa;" horiz-adv-x="827" 
d="M394 735q67 0 134 76l72 389q-63 70 -140 70t-139 -102t-63 -246q0 -84 34 -136t102 -51zM329 651q-85 0 -149 65q-63 65 -63 175q0 164 136 304t314 140q45 0 115 -37l70 58l10 -4l-113 -566q-9 -33 5 -43q29 -20 126 -20l4 -12q-108 -59 -186 -59t-78 104l-6 4
q-100 -109 -185 -109z" />
    <glyph glyph-name="guillemotleft" unicode="&#xab;" horiz-adv-x="980" 
d="M354 63l-331 388l4 20l450 387l35 -39l-293 -356l178 -369zM733 63l-332 388l5 20l450 387l35 -39l-293 -356l176 -369z" />
    <glyph glyph-name="logicalnot" unicode="&#xac;" horiz-adv-x="1034" 
d="M932 582h-846l14 92h846z" />
    <glyph glyph-name="registered" unicode="&#xae;" horiz-adv-x="770" 
d="M512 1104q0 61 -72 61h-30v-127h22q80 0 80 66zM578 1112q0 -66 -89 -80v-8q41 -8 63 -55t36 -59t41 -15v-18h-62q-27 0 -39 10t-24 43l-23 53q-12 31 -55 31h-16v-107l53 -12v-18h-170v18l55 12v250l-55 14v19h174q53 0 82 -22t29 -56zM446 754q115 0 192 79t77 195
t-77 196q-77 79 -192 79q-116 0 -192 -79t-76 -196q0 -118 76 -196t192 -78zM446 721q-131 0 -219 88t-88 219t88 219t219 88q132 0 220 -88t88 -219t-88 -219t-220 -88z" />
    <glyph glyph-name="macron" unicode="&#xaf;" horiz-adv-x="673" 
d="M182 1124l15 86h489l-12 -86h-492z" />
    <glyph glyph-name="degree" unicode="&#xb0;" horiz-adv-x="802" 
d="M426 762q66 0 109 59q71 97 71 260q0 213 -133 213q-67 0 -109 -59q-70 -96 -69 -258q0 -215 131 -215zM393 721q-113 0 -179 60t-64 187q0 126 98 248t258 121q116 0 180 -60t64 -187t-98 -248t-259 -121z" />
    <glyph glyph-name="plusminus" unicode="&#xb1;" 
d="M51 -410v2048h922v-2048h-922z" />
    <glyph glyph-name="twosuperior" unicode="&#xb2;" 
d="M51 -410v2048h922v-2048h-922z" />
    <glyph glyph-name="threesuperior" unicode="&#xb3;" 
d="M51 -410v2048h922v-2048h-922z" />
    <glyph glyph-name="acute" unicode="&#xb4;" horiz-adv-x="503" 
d="M184 1061l-22 18q35 55 99 174q65 119 91 151t60 44q36 12 62 -6t24 -53t-29 -68t-131 -123t-154 -137z" />
    <glyph glyph-name="mu" unicode="&#xb5;" horiz-adv-x="1034" 
d="M571 616l228 -307l-76 -55l-221 307l-328 -268l-53 65l336 273l-228 307l76 55l221 -307l328 268l53 -65z" />
    <glyph glyph-name="paragraph" unicode="&#xb6;" horiz-adv-x="1415" 
d="M827 -102l160 4l225 1413l-157 4zM887 -170q-375 0 -582 198t-207 492q0 371 285 619t715 247h407l-4 -32l-219 -39l-225 -1413l219 -37l-4 -35h-385z" />
    <glyph glyph-name="periodcentered" unicode="&#xb7;" horiz-adv-x="448" 
d="M225 528q-51 0 -88 36t-37 87t37 87t88 36t87 -36t36 -87t-36 -87t-87 -36z" />
    <glyph glyph-name="cedilla" unicode="&#xb8;" horiz-adv-x="593" 
d="M33 -508q-81 0 -119 27t-37 61q0 69 60 72q55 0 55 -62q0 -27 -21 -47q25 -14 56 -14q98 0 98 121t-115 121q-25 0 -59 -11l-33 35l367 307l28 -39l-243 -204q76 -9 122 -57t46 -126t-62 -130q-62 -54 -143 -54z" />
    <glyph glyph-name="onesuperior" unicode="&#xb9;" 
d="M51 -410v2048h922v-2048h-922z" />
    <glyph glyph-name="ordmasculine" unicode="&#xba;" horiz-adv-x="843" 
d="M422 694q51 0 91 38q69 65 96 211q11 58 12 108q0 240 -138 239q-94 0 -145 -119t-51 -235q0 -242 135 -242zM383 651q-104 0 -172 69t-68 187q1 168 107 298t278 130q104 1 169 -67t65 -189q0 -170 -104 -299t-275 -129z" />
    <glyph glyph-name="guillemotright" unicode="&#xbb;" horiz-adv-x="980" 
d="M55 63l-35 39l293 357l-176 368l41 31l332 -387l-4 -20zM434 63l-35 39l293 357l-178 368l43 31l332 -387l-4 -20z" />
    <glyph glyph-name="onequarter" unicode="&#xbc;" 
d="M51 -410v2048h922v-2048h-922z" />
    <glyph glyph-name="onehalf" unicode="&#xbd;" 
d="M51 -410v2048h922v-2048h-922z" />
    <glyph glyph-name="threequarters" unicode="&#xbe;" 
d="M51 -410v2048h922v-2048h-922z" />
    <glyph glyph-name="questiondown" unicode="&#xbf;" horiz-adv-x="729" 
d="M343 444q83 0 157 -54t74 -148t-65 -152t-196 -120t-191 -114t-60 -137t56 -147q58 -62 130 -62q72 -2 114 25q-14 37 -14 86t33 85t79 36t79 -33t33 -95t-78 -111q-78 -48 -222 -48t-245 93q-103 92 -103 228t74 207t188 118t148 64t62 46t28 63q0 68 -59 94t-144 19
l-6 23q45 34 128 34zM473 821q51 0 88 -36t37 -87t-37 -87t-88 -36t-87 36t-36 87t36 87t87 36z" />
    <glyph glyph-name="Agrave" unicode="&#xc0;" horiz-adv-x="1284" 
d="M385 547h365l-107 530h-2q-254 -530 -256 -530zM-104 0l6 35l153 55l647 1227h82l273 -1235l160 -47l-7 -35h-577l4 35l209 37l-82 407h-410l-190 -395l141 -49l-6 -35h-403zM805 1442q-29 41 -103 136t-93 130t-11 67t37 48t57 6t41 -37q15 -27 29 -80t34 -129t35 -123z
" />
    <glyph glyph-name="Aacute" unicode="&#xc1;" horiz-adv-x="1284" 
d="M385 547h365l-107 530h-2q-254 -530 -256 -530zM-104 0l6 35l153 55l647 1227h82l273 -1235l160 -47l-7 -35h-577l4 35l209 37l-82 407h-410l-190 -395l141 -49l-6 -35h-403zM741 1442l-22 18q35 55 99 174t90 151t61 44t61 -6q26 -17 25 -53q-2 -36 -29 -68
q-28 -32 -132 -123q-104 -90 -153 -137z" />
    <glyph glyph-name="Acircumflex" unicode="&#xc2;" horiz-adv-x="1284" 
d="M385 547h365l-107 530h-2q-254 -530 -256 -530zM-104 0l6 35l153 55l647 1227h82l273 -1235l160 -47l-7 -35h-577l4 35l209 37l-82 407h-410l-190 -395l141 -49l-6 -35h-403zM522 1415l-20 21l305 362h29l176 -362l-27 -21l-197 203z" />
    <glyph glyph-name="Atilde" unicode="&#xc3;" horiz-adv-x="1284" 
d="M385 547h365l-107 530h-2q-254 -530 -256 -530zM-104 0l6 35l153 55l647 1227h82l273 -1235l160 -47l-7 -35h-577l4 35l209 37l-82 407h-410l-190 -395l141 -49l-6 -35h-403zM655 1694q53 0 149 -36t132 -36q66 0 98 86l31 -12q-33 -203 -166 -203q-55 0 -149 36t-132 36
q-65 0 -98 -84l-31 10q31 203 166 203z" />
    <glyph glyph-name="Adieresis" unicode="&#xc4;" horiz-adv-x="1284" 
d="M385 547h365l-107 530h-2q-254 -530 -256 -530zM-104 0l6 35l153 55l647 1227h82l273 -1235l160 -47l-7 -35h-577l4 35l209 37l-82 407h-410l-190 -395l141 -49l-6 -35h-403zM634 1507q-44 0 -73 29t-29 73t32 77q32 32 77 32t73 -28t28 -72q0 -43 -32 -77t-76 -34z
M955 1507q-43 0 -71 29t-28 72q0 42 32 76t76 34t72 -28t27 -72q0 -43 -32 -77t-76 -34z" />
    <glyph glyph-name="Aring" unicode="&#xc5;" horiz-adv-x="1284" 
d="M385 547h365l-107 530h-2q-254 -530 -256 -530zM743 1329q53 1 80 59t27 119q0 123 -68 123q-53 0 -80 -58t-26 -122q-1 -121 67 -121zM780 1663q80 0 122 -43t42 -111t-44 -128t-114 -78l271 -1221l160 -47l-7 -35h-577l4 35l209 37l-82 407h-410l-190 -395l141 -49
l-6 -35h-403l6 35l153 55l639 1210q-114 26 -114 162q0 70 60 136t140 65z" />
    <glyph glyph-name="AE" unicode="&#xc6;" horiz-adv-x="1839" 
d="M522 604h324l86 539h-4zM1372 1237h-225l-88 -551h90q92 0 146 42t104 151l31 67h30l-92 -575h-33l-6 63q-10 106 -54 150t-136 45h-88l-90 -559h294q109 0 160 46q20 17 64 62l215 230l16 -9l-98 -399h-1063l4 35l209 37l74 465h-365l-340 -453l141 -49l-4 -35h-403
l4 35l156 55l888 1127l-188 53l4 35h1010l-6 -351l-23 -14l-131 174q-32 47 -38 52q-7 4 -20 20t-21 20t-22 12t-28 11q-14 2 -34 5t-44 3z" />
    <glyph glyph-name="Ccedilla" unicode="&#xc7;" horiz-adv-x="1337" 
d="M762 -324q0 -78 -62 -130q-62 -54 -142 -54q-81 0 -119 27t-38 61q0 69 60 72q55 0 55 -62q0 -27 -20 -47q25 -14 55 -14q98 0 98 121t-114 121q-25 0 -60 -11l-33 35l211 176q-247 16 -405 177t-158 417q0 299 202 535t496 235q201 0 351 -82l112 88h25l-55 -438l-33 -4
q-115 389 -393 389q-189 0 -337 -213t-149 -545q0 -219 124 -358t292 -139q102 0 166 26l254 310l18 -9l-57 -299q-182 -86 -379 -92l-133 -110q76 -9 122 -57t46 -126z" />
    <glyph glyph-name="Egrave" unicode="&#xc8;" horiz-adv-x="1269" 
d="M803 1237h-225l-89 -551h91q92 0 149 43t102 150l29 67h31l-92 -575h-31l-8 63q-14 109 -55 152t-136 43h-88l-88 -559h295q104 0 158 46q20 17 63 62l215 230l19 -9l-101 -399h-1062l6 35l209 37l184 1161l-197 37l4 35h983l-6 -351l-22 -14l-129 174q-57 78 -91 100
t-118 23zM801 1442q-29 41 -103 136t-93 130t-11 67t37 48t57 6t41 -37q15 -27 29 -80t34 -129t35 -123z" />
    <glyph glyph-name="Eacute" unicode="&#xc9;" horiz-adv-x="1269" 
d="M803 1237h-225l-89 -551h91q92 0 149 43t102 150l29 67h31l-92 -575h-31l-8 63q-14 109 -55 152t-136 43h-88l-88 -559h295q104 0 158 46q20 17 63 62l215 230l19 -9l-101 -399h-1062l6 35l209 37l184 1161l-197 37l4 35h983l-6 -351l-22 -14l-129 174q-57 78 -91 100
t-118 23zM705 1442l-23 18q35 55 99 174q65 119 91 151t60 44q36 12 62 -6q26 -17 24 -53t-29 -68t-131 -123q-104 -90 -153 -137z" />
    <glyph glyph-name="Ecircumflex" unicode="&#xca;" horiz-adv-x="1269" 
d="M803 1237h-225l-89 -551h91q92 0 149 43t102 150l29 67h31l-92 -575h-31l-8 63q-14 109 -55 152t-136 43h-88l-88 -559h295q104 0 158 46q20 17 63 62l215 230l19 -9l-101 -399h-1062l6 35l209 37l184 1161l-197 37l4 35h983l-6 -351l-22 -14l-129 174q-57 78 -91 100
t-118 23zM537 1436l-21 20l305 363h29l176 -363l-27 -20l-196 202z" />
    <glyph glyph-name="Edieresis" unicode="&#xcb;" horiz-adv-x="1269" 
d="M803 1237h-225l-89 -551h91q92 0 149 43t102 150l29 67h31l-92 -575h-31l-8 63q-14 109 -55 152t-136 43h-88l-88 -559h295q104 0 158 46q20 17 63 62l215 230l19 -9l-101 -399h-1062l6 35l209 37l184 1161l-197 37l4 35h983l-6 -351l-22 -14l-129 174q-57 78 -91 100
t-118 23zM729 1618q1 -43 -31 -77t-76 -34t-73 29t-29 73t32 77q32 32 77 32t73 -28t27 -72zM943 1507q-44 0 -72 29t-27 72q0 42 32 76t76 34t71 -28q28 -28 28 -72q0 -43 -32 -77t-76 -34z" />
    <glyph glyph-name="Igrave" unicode="&#xcc;" horiz-adv-x="835" 
d="M4 0l6 35l215 37l185 1161l-203 37l4 35h618l-6 -35l-215 -37l-184 -1161l203 -37l-4 -35h-619zM535 1442q-29 41 -103 136t-93 130t-11 67t37 48t57 6t41 -37q15 -27 29 -80t34 -129t35 -123z" />
    <glyph glyph-name="Iacute" unicode="&#xcd;" horiz-adv-x="835" 
d="M4 0l6 35l215 37l185 1161l-203 37l4 35h618l-6 -35l-215 -37l-184 -1161l203 -37l-4 -35h-619zM487 1442l-22 18q35 55 99 174t90 151t61 44t61 -6q26 -17 25 -53q-2 -36 -29 -68q-28 -32 -132 -123q-104 -90 -153 -137z" />
    <glyph glyph-name="Icircumflex" unicode="&#xce;" horiz-adv-x="835" 
d="M4 0l6 35l215 37l185 1161l-203 37l4 35h618l-6 -35l-215 -37l-184 -1161l203 -37l-4 -35h-619zM307 1436l-20 20l305 363h29l176 -363l-27 -20l-197 202z" />
    <glyph glyph-name="Idieresis" unicode="&#xcf;" horiz-adv-x="835" 
d="M4 0l6 35l215 37l185 1161l-203 37l4 35h618l-6 -35l-215 -37l-184 -1161l203 -37l-4 -35h-619zM404 1507q-44 0 -72 29t-29 73q0 44 32 77q32 32 77 32q44 0 72 -28t28 -72q0 -43 -32 -77t-76 -34zM726 1507q-44 0 -72 29t-27 72q-1 42 31 76t76 34t72 -28t28 -72
q0 -43 -32 -77t-76 -34z" />
    <glyph glyph-name="Eth" unicode="&#xd0;" horiz-adv-x="1437" 
d="M551 68q193 0 332 101q264 192 266 609q0 211 -111 335t-333 124h-127q-82 -526 -84 -526h233v-68h-244l-22 -143q-23 -143 -45 -287l-23 -145h158zM111 643v68h184l84 522l-199 37l6 35h549q295 0 464 -151t169 -398q0 -316 -221 -536t-608 -220h-557l4 35l209 37
l90 571h-174z" />
    <glyph glyph-name="Ntilde" unicode="&#xd1;" horiz-adv-x="1495" 
d="M1075 -12l-117 209l-528 907h-12l-162 -1014l152 -55l-5 -35h-393l6 35l170 55l181 1127l-154 53l6 35h344l545 -963h14l140 872l-154 56l6 35h391l-4 -35l-172 -56l-194 -1226h-60zM750 1694q53 0 148 -36t132 -36q66 0 98 86l31 -12q-33 -203 -166 -203q-55 0 -149 36
t-131 36q-66 0 -99 -84l-30 10q31 203 166 203z" />
    <glyph glyph-name="Ograve" unicode="&#xd2;" horiz-adv-x="1425" 
d="M635 16q180 0 327 216q146 216 146 556q0 289 -141 426q-76 74 -185 74q-180 0 -326 -216t-147 -556q0 -289 141 -425q76 -75 185 -75zM639 -31q-249 0 -399 168t-150 428q0 193 85 369t247 289t358 112q246 0 397 -168t150 -426q0 -193 -85 -369q-86 -176 -246 -289
q-160 -114 -357 -114zM846 1442q-29 41 -103 136t-93 130t-11 67t37 48q28 16 56 6t42 -37t28 -80t36 -129q20 -76 34 -123z" />
    <glyph glyph-name="Oacute" unicode="&#xd3;" horiz-adv-x="1425" 
d="M635 16q180 0 327 216q146 216 146 556q0 289 -141 426q-76 74 -185 74q-180 0 -326 -216t-147 -556q0 -289 141 -425q76 -75 185 -75zM639 -31q-249 0 -399 168t-150 428q0 193 85 369t247 289t358 112q246 0 397 -168t150 -426q0 -193 -85 -369q-86 -176 -246 -289
q-160 -114 -357 -114zM774 1442l-22 18q35 55 99 174q65 119 91 151t60 44t61 -6q27 -17 25 -53t-30 -68q-26 -32 -130 -123q-104 -90 -154 -137z" />
    <glyph glyph-name="Ocircumflex" unicode="&#xd4;" horiz-adv-x="1425" 
d="M635 16q180 0 327 216q146 216 146 556q0 289 -141 426q-76 74 -185 74q-180 0 -326 -216t-147 -556q0 -289 141 -425q76 -75 185 -75zM639 -31q-249 0 -399 168t-150 428q0 193 85 369t247 289t358 112q246 0 397 -168t150 -426q0 -193 -85 -369q-86 -176 -246 -289
q-160 -114 -357 -114zM578 1436l-21 20l305 363h29l176 -363l-27 -20l-196 202z" />
    <glyph glyph-name="Otilde" unicode="&#xd5;" horiz-adv-x="1425" 
d="M635 16q180 0 327 216q146 216 146 556q0 289 -141 426q-76 74 -185 74q-180 0 -326 -216t-147 -556q0 -289 141 -425q76 -75 185 -75zM639 -31q-249 0 -399 168t-150 428q0 193 85 369t247 289t358 112q246 0 397 -168t150 -426q0 -193 -85 -369q-86 -176 -246 -289
q-160 -114 -357 -114zM700 1694q52 0 148 -36t133 -36q66 0 98 86l31 -12q-33 -203 -166 -203q-55 0 -149 36t-131 36q-66 0 -99 -84l-30 10q31 203 165 203z" />
    <glyph glyph-name="Odieresis" unicode="&#xd6;" horiz-adv-x="1425" 
d="M635 16q180 0 327 216q146 216 146 556q0 289 -141 426q-76 74 -185 74q-180 0 -326 -216t-147 -556q0 -289 141 -425q76 -75 185 -75zM639 -31q-249 0 -399 168t-150 428q0 193 85 369t247 289t358 112q246 0 397 -168t150 -426q0 -193 -85 -369q-86 -176 -246 -289
q-160 -114 -357 -114zM646 1507q-44 0 -73 29t-29 73t33 77q33 32 77 32t72 -28t28 -72q0 -43 -32 -77t-76 -34zM868 1608q0 42 32 76t76 34t72 -28t28 -72q0 -43 -32 -77t-76 -34t-72 29t-28 72z" />
    <glyph glyph-name="multiply" unicode="&#xd7;" horiz-adv-x="1034" 
d="M571 616l228 -307l-76 -55l-221 307l-328 -268l-53 65l336 273l-228 307l76 55l221 -307l328 268l53 -65z" />
    <glyph glyph-name="Oslash" unicode="&#xd8;" horiz-adv-x="1425" 
d="M638 16q177 0 324 216q146 216 146 556q0 137 -37 252l-696 -845q86 -179 263 -179zM779 1288q-177 0 -323 -216t-147 -556q0 -137 37 -254l696 848q-86 178 -263 178zM90 565q0 193 85 369t247 289t362 113t344 -122l127 156l52 -43l-131 -160q152 -162 151 -426
q0 -193 -85 -369t-246 -289q-160 -114 -360 -114t-347 121l-127 -156l-51 41l131 160q-152 164 -152 430z" />
    <glyph glyph-name="Ugrave" unicode="&#xd9;" horiz-adv-x="1480" 
d="M684 -35q-258 0 -373 127t-73 381l120 760l-196 37l6 35h606l-4 -35l-209 -37l-123 -776q-31 -197 52 -288t253 -91t274 106q103 106 132 281l119 749l-154 56l6 35h391l-6 -35l-170 -56l-127 -794q-33 -199 -177 -327t-347 -128zM952 1442q-29 41 -103 136t-92 130
q-19 35 -12 67q8 32 37 48t57 6t42 -37t46 -148t52 -184z" />
    <glyph glyph-name="Uacute" unicode="&#xda;" horiz-adv-x="1480" 
d="M684 -35q-258 0 -373 127t-73 381l120 760l-196 37l6 35h606l-4 -35l-209 -37l-123 -776q-31 -197 52 -288t253 -91t274 106q103 106 132 281l119 749l-154 56l6 35h391l-6 -35l-170 -56l-127 -794q-33 -199 -177 -327t-347 -128zM893 1442l-23 18q35 55 100 174
q64 119 90 151t60 44t62 -6q26 -17 24 -53t-28 -68t-132 -123q-104 -90 -153 -137z" />
    <glyph glyph-name="Ucircumflex" unicode="&#xdb;" horiz-adv-x="1480" 
d="M684 -35q-258 0 -373 127t-73 381l120 760l-196 37l6 35h606l-4 -35l-209 -37l-123 -776q-31 -197 52 -288t253 -91t274 106q103 106 132 281l119 749l-154 56l6 35h391l-6 -35l-170 -56l-127 -794q-33 -199 -177 -327t-347 -128zM717 1436l-21 20l305 363h29l176 -363
l-26 -20l-197 202z" />
    <glyph glyph-name="Udieresis" unicode="&#xdc;" horiz-adv-x="1480" 
d="M684 -35q-258 0 -373 127t-73 381l120 760l-196 37l6 35h606l-4 -35l-209 -37l-123 -776q-31 -197 52 -288t253 -91t274 106q103 106 132 281l119 749l-154 56l6 35h391l-6 -35l-170 -56l-127 -794q-33 -199 -177 -327t-347 -128zM777 1507q-45 0 -73 29t-28 73t32 77
q32 32 76 32t73 -28q28 -28 28 -72q0 -43 -32 -77t-76 -34zM999 1608q0 42 32 76t76 34t72 -28q27 -28 27 -72q0 -43 -32 -77t-75 -34q-44 0 -72 29t-28 72z" />
    <glyph glyph-name="Yacute" unicode="&#xdd;" horiz-adv-x="1306" 
d="M246 0l6 35l215 37l80 508l-281 643l-172 47l6 35h578l-6 -35l-183 -37l224 -582l401 570l-141 49l6 35h420l-6 -35l-170 -56l-473 -616l-84 -526l202 -37l-4 -35h-618zM803 1442l-23 18q35 55 100 174q64 119 90 151t60 44t62 -6q26 -17 24 -53t-29 -68t-131 -123
q-104 -90 -153 -137z" />
    <glyph glyph-name="Thorn" unicode="&#xde;" horiz-adv-x="1187" 
d="M559 340q164 0 254 95t90 233t-69 218q-70 81 -191 81q-51 0 -113 -13l-96 -606q74 -8 125 -8zM-23 0l7 33l209 37l184 1163l-199 37l6 35h604l-4 -35l-209 -37l-36 -232q66 18 149 19q215 0 324 -98q108 -98 108 -251t-136 -273t-361 -119q-86 0 -197 20l-35 -229
l197 -37l-6 -33h-605z" />
    <glyph glyph-name="germandbls" unicode="&#xdf;" horiz-adv-x="954" 
d="M-168 -449q-68 0 -106 32t-39 74q0 42 28 68q29 26 76 25q98 0 166 -110q68 113 96 313l146 1036q23 152 75 256q53 105 159 189t240 84t204 -78t69 -195q0 -227 -356 -473q135 -111 219 -250t84 -254q0 -114 -79 -202t-202 -88q-122 0 -188 52q-66 54 -66 128
q0 47 28 78q28 30 76 30t67 -55t-9 -133q56 -39 112 -39t90 37t34 96q0 104 -86 242t-240 280v21q172 119 261 261t89 279q0 211 -147 211q-92 0 -166 -126t-107 -345l-116 -817q-33 -226 -73 -332t-131 -200t-208 -95z" />
    <glyph glyph-name="agrave" unicode="&#xe0;" horiz-adv-x="950" 
d="M227 352q0 -112 47 -184t129 -72t179 88l100 574q-86 100 -184 100t-184 -148t-87 -358zM320 -23q-112 -1 -188 89q-77 90 -77 241q0 242 175 443t405 200q70 0 149 -41l84 72l13 -8l-150 -803q-6 -35 0 -50q15 -38 184 -42l5 -15q-137 -86 -244 -86q-102 0 -103 150
l-8 6q-133 -156 -245 -156zM631 1061q-29 41 -103 136t-93 130t-11 67t37 48t57 6t41 -37q15 -27 29 -80t34 -129t35 -123z" />
    <glyph glyph-name="aacute" unicode="&#xe1;" horiz-adv-x="950" 
d="M227 352q0 -112 47 -184t129 -72t179 88l100 574q-86 100 -184 100t-184 -148t-87 -358zM320 -23q-112 -1 -188 89q-77 90 -77 241q0 242 175 443t405 200q70 0 149 -41l84 72l13 -8l-150 -803q-6 -35 0 -50q15 -38 184 -42l5 -15q-137 -86 -244 -86q-102 0 -103 150
l-8 6q-133 -156 -245 -156zM543 1061l-23 18q35 55 100 174q64 119 90 151t60 44t62 -6q26 -18 24 -53t-29 -68t-131 -123t-153 -137z" />
    <glyph glyph-name="acircumflex" unicode="&#xe2;" horiz-adv-x="950" 
d="M227 352q0 -112 47 -184t129 -72t179 88l100 574q-86 100 -184 100t-184 -148t-87 -358zM320 -23q-112 -1 -188 89q-77 90 -77 241q0 242 175 443t405 200q70 0 149 -41l84 72l13 -8l-150 -803q-6 -35 0 -50q15 -38 184 -42l5 -15q-137 -86 -244 -86q-102 0 -103 150
l-8 6q-133 -156 -245 -156zM395 1055l-20 20l305 363h29l176 -363l-27 -20l-196 202z" />
    <glyph glyph-name="atilde" unicode="&#xe3;" horiz-adv-x="950" 
d="M227 352q0 -112 47 -184t129 -72t179 88l100 574q-86 100 -184 100t-184 -148t-87 -358zM320 -23q-112 -1 -188 89q-77 90 -77 241q0 242 175 443t405 200q70 0 149 -41l84 72l13 -8l-150 -803q-6 -35 0 -50q15 -38 184 -42l5 -15q-137 -86 -244 -86q-102 0 -103 150
l-8 6q-133 -156 -245 -156zM510 1313q53 0 148 -36t133 -36q66 0 98 86l31 -12q-33 -203 -166 -203q-54 0 -150 36t-131 36q-65 0 -98 -84l-31 10q31 203 166 203z" />
    <glyph glyph-name="adieresis" unicode="&#xe4;" horiz-adv-x="950" 
d="M227 352q0 -112 47 -184t129 -72t179 88l100 574q-86 100 -184 100t-184 -148t-87 -358zM320 -23q-112 -1 -188 89q-77 90 -77 241q0 242 175 443t405 200q70 0 149 -41l84 72l13 -8l-150 -803q-6 -35 0 -50q15 -38 184 -42l5 -15q-137 -86 -244 -86q-102 0 -103 150
l-8 6q-133 -156 -245 -156zM468 1126q-44 0 -73 29t-29 73t32 77t77 33t73 -30q28 -28 28 -71t-32 -77t-76 -34zM789 1126q-43 0 -71 29t-28 72t32 77t76 34t72 -30q28 -28 27 -71q0 -43 -32 -77t-76 -34z" />
    <glyph glyph-name="aring" unicode="&#xe5;" horiz-adv-x="950" 
d="M227 352q0 -112 47 -184t129 -72t179 88l100 574q-86 100 -184 100t-184 -148t-87 -358zM616 1083q53 1 80 59t27 120q0 123 -68 122q-53 0 -80 -58t-26 -122q-1 -121 67 -121zM320 -23q-112 -1 -188 89q-77 90 -77 241q0 242 175 443t405 200q70 0 149 -41l84 72l13 -8
l-150 -803q-6 -35 0 -50q15 -38 184 -42l5 -15q-137 -86 -244 -86q-102 0 -103 150l-8 6q-133 -156 -245 -156zM617 1051q-81 0 -123 43q-42 44 -41 118q0 74 60 140q59 66 139 66t122 -44t43 -118q0 -74 -59 -140q-60 -65 -141 -65z" />
    <glyph glyph-name="ae" unicode="&#xe6;" horiz-adv-x="1304" 
d="M219 326q0 -102 49 -164t128 -62t161 90q-25 68 -25 146q1 232 146 420q-84 111 -164 110q-117 0 -206 -160t-89 -380zM1124 782q0 53 -25 86q-26 33 -73 33q-106 -1 -189 -113t-114 -268q193 -26 297 62t104 200zM47 282q0 140 79 296t214 264t265 108t190 -82
q119 82 239 82t184 -55q62 -55 62 -133q0 -121 -141 -212t-424 -81q-23 -176 37 -276t192 -101q63 0 130 31t112 82l14 -19q-45 -90 -142 -149q-96 -59 -196 -59t-176 48t-115 130h-8q-102 -178 -252 -179q-109 0 -187 82q-78 83 -77 223z" />
    <glyph glyph-name="ccedilla" unicode="&#xe7;" horiz-adv-x="813" 
d="M320 -508q-80 0 -118 27t-38 61q0 69 59 72q55 0 56 -62q0 -27 -21 -47q25 -14 55 -14q99 0 99 121t-115 121q-25 0 -59 -11l-33 35l219 185q-10 -2 -31 -3q-158 1 -248 105t-90 258q0 230 161 420t372 190q104 0 160 -51t55 -107q0 -56 -27 -90q-28 -32 -74 -32t-76 35
t-30 93t22 111q-162 -2 -276 -167t-113 -365q0 -145 67 -213q66 -68 188 -68t235 109l14 -19q-61 -121 -201 -180l-176 -147q76 -9 122 -57t46 -126t-61 -131q-62 -53 -143 -53z" />
    <glyph glyph-name="egrave" unicode="&#xe8;" horiz-adv-x="825" 
d="M547 901q-106 1 -188 -113t-115 -268q100 -12 181 8t127 64q95 90 93 190q0 53 -25 86q-26 33 -73 33zM53 330q0 150 62 288q61 140 182 236t272 96q107 0 169 -55t63 -133q0 -121 -141 -212t-424 -81q-23 -176 37 -276t192 -101q63 0 130 31t112 82l14 -19
q-45 -90 -142 -149t-192 -60q-156 -1 -245 101t-89 252zM559 1061q-29 41 -103 136t-93 130t-11 67t37 48t57 6t41 -37q15 -27 29 -80t34 -129t36 -123z" />
    <glyph glyph-name="eacute" unicode="&#xe9;" horiz-adv-x="825" 
d="M547 901q-106 1 -188 -113t-115 -268q100 -12 181 8t127 64q95 90 93 190q0 53 -25 86q-26 33 -73 33zM53 330q0 150 62 288q61 140 182 236t272 96q107 0 169 -55t63 -133q0 -121 -141 -212t-424 -81q-23 -176 37 -276t192 -101q63 0 130 31t112 82l14 -19
q-45 -90 -142 -149t-192 -60q-156 -1 -245 101t-89 252zM479 1061l-22 18q35 55 99 174t90 151t61 44t61 -6t25 -53q-2 -35 -29 -68q-28 -33 -132 -123t-153 -137z" />
    <glyph glyph-name="ecircumflex" unicode="&#xea;" horiz-adv-x="825" 
d="M547 901q-106 1 -188 -113t-115 -268q100 -12 181 8t127 64q95 90 93 190q0 53 -25 86q-26 33 -73 33zM53 330q0 150 62 288q61 140 182 236t272 96q107 0 169 -55t63 -133q0 -121 -141 -212t-424 -81q-23 -176 37 -276t192 -101q63 0 130 31t112 82l14 -19
q-45 -90 -142 -149t-192 -60q-156 -1 -245 101t-89 252zM319 1055l-20 20l305 363h29l176 -363l-27 -20l-196 202z" />
    <glyph glyph-name="edieresis" unicode="&#xeb;" horiz-adv-x="825" 
d="M547 901q-106 1 -188 -113t-115 -268q100 -12 181 8t127 64q95 90 93 190q0 53 -25 86q-26 33 -73 33zM53 330q0 150 62 288q61 140 182 236t272 96q107 0 169 -55t63 -133q0 -121 -141 -212t-424 -81q-23 -176 37 -276t192 -101q63 0 130 31t112 82l14 -19
q-45 -90 -142 -149t-192 -60q-156 -1 -245 101t-89 252zM388 1126q-44 0 -73 29t-29 73t32 77t77 33t73 -30q28 -28 28 -71t-32 -77t-76 -34zM710 1126q-44 0 -72 29t-28 72t32 77t76 34t72 -30q28 -28 28 -71t-32 -77t-76 -34z" />
    <glyph glyph-name="igrave" unicode="&#xec;" horiz-adv-x="522" 
d="M217 -23q-61 0 -88 43t-16 103l112 649l-133 64v20l314 107l8 -7l-133 -786q-10 -55 24 -73q35 -17 160 -19l4 -15q-137 -86 -252 -86zM367 1061q-29 41 -103 136t-93 130t-11 67t37 48t57 6t41 -37q15 -27 29 -80t34 -129t35 -123z" />
    <glyph glyph-name="iacute" unicode="&#xed;" horiz-adv-x="522" 
d="M217 -23q-61 0 -88 43t-16 103l112 649l-133 64v20l314 107l8 -7l-133 -786q-10 -55 24 -73q35 -17 160 -19l4 -15q-137 -86 -252 -86zM250 1061l-23 18q35 55 100 174t91 151t60 44t61 -6t25 -53t-30 -68q-27 -33 -131 -123t-153 -137z" />
    <glyph glyph-name="icircumflex" unicode="&#xee;" horiz-adv-x="522" 
d="M217 -23q-61 0 -88 43t-16 103l112 649l-133 64v20l314 107l8 -7l-133 -786q-10 -55 24 -73q35 -17 160 -19l4 -15q-137 -86 -252 -86zM94 1055l-20 20l305 363h29l176 -363l-27 -20l-197 202z" />
    <glyph glyph-name="idieresis" unicode="&#xef;" horiz-adv-x="522" 
d="M217 -23q-61 0 -88 43t-16 103l112 649l-133 64v20l314 107l8 -7l-133 -786q-10 -55 24 -73q35 -17 160 -19l4 -15q-137 -86 -252 -86zM187 1126q-45 0 -73 29t-28 73t32 77t77 33t73 -30q28 -28 27 -71q0 -43 -32 -77t-76 -34zM509 1126q-44 0 -72 29t-27 72q0 43 31 77
q32 34 76 34t72 -30q27 -28 27 -71t-32 -77t-75 -34z" />
    <glyph glyph-name="eth" unicode="&#xf0;" horiz-adv-x="935" 
d="M436 72q109 0 196 144t87 349q0 123 -54 208q-55 85 -153 85t-185 -145t-87 -351q0 -122 53 -206t143 -84zM334 -23q-106 -1 -188 91t-80 246q0 154 77 297q78 145 215 241t295 98q-55 147 -141 248l-45 -33q-45 -33 -90 -65l-45 -33l-37 51l172 127q-92 92 -283 199
l17 33q207 -55 356 -164l166 121l35 -52l-148 -108q283 -240 283 -590q0 -133 -52 -275t-128 -225q-174 -207 -379 -207z" />
    <glyph glyph-name="ntilde" unicode="&#xf1;" horiz-adv-x="1040" 
d="M766 -23q-106 0 -107 103q0 47 13 108l69 383q45 238 -100 238q-73 0 -121 -18t-141 -66l-121 -725h-158l131 772l-133 64v20l299 107l9 -7l-21 -186l10 -4q113 96 194 140t154 44q109 0 150 -87t12 -240l-84 -453q-10 -50 25 -70t160 -22l4 -15q-138 -86 -244 -86z
M483 1313q53 0 149 -36t132 -36q66 0 98 86l31 -12q-33 -203 -166 -203q-55 0 -149 36t-132 36q-65 0 -98 -84l-31 10q31 203 166 203z" />
    <glyph glyph-name="ograve" unicode="&#xf2;" horiz-adv-x="925" 
d="M430 39q68 0 122 54t84 136q60 164 60 286t-17 195t-65 126t-116 53q-70 0 -123 -54q-90 -92 -131 -315t35 -381q47 -100 151 -100zM870 602q0 -158 -56 -296q-56 -136 -174 -232t-264 -97q-146 1 -234 97t-87 268q-1 224 141 416t367 192q139 0 223 -95t84 -253z
M563 1061q-29 41 -102 134t-92 130q-20 37 -13 69q8 32 37 48t57 6t42 -37t46 -148t52 -184z" />
    <glyph glyph-name="oacute" unicode="&#xf3;" horiz-adv-x="925" 
d="M430 39q68 0 122 54t84 136q60 164 60 286t-17 195t-65 126t-116 53q-70 0 -123 -54q-90 -92 -131 -315t35 -381q47 -100 151 -100zM870 602q0 -158 -56 -296q-56 -136 -174 -232t-264 -97q-146 1 -234 97t-87 268q-1 224 141 416t367 192q139 0 223 -95t84 -253z
M500 1061l-23 18q35 55 100 174t91 151t60 44t60 -6t25 -53q-2 -35 -29 -68t-131 -123t-153 -137z" />
    <glyph glyph-name="ocircumflex" unicode="&#xf4;" horiz-adv-x="925" 
d="M430 39q68 0 122 54t84 136q60 164 60 286t-17 195t-65 126t-116 53q-70 0 -123 -54q-90 -92 -131 -315t35 -381q47 -100 151 -100zM870 602q0 -158 -56 -296q-56 -136 -174 -232t-264 -97q-146 1 -234 97t-87 268q-1 224 141 416t367 192q139 0 223 -95t84 -253z
M315 1055l-20 20l305 363h29l176 -363l-27 -20l-196 202z" />
    <glyph glyph-name="otilde" unicode="&#xf5;" horiz-adv-x="925" 
d="M430 39q68 0 122 54t84 136q60 164 60 286t-17 195t-65 126t-116 53q-70 0 -123 -54q-90 -92 -131 -315t35 -381q47 -100 151 -100zM870 602q0 -158 -56 -296q-56 -136 -174 -232t-264 -97q-146 1 -234 97t-87 268q-1 224 141 416t367 192q139 0 223 -95t84 -253z
M459 1313q53 0 148 -36t132 -36q66 0 99 86l30 -12q-33 -203 -166 -203q-55 0 -149 36t-131 36q-65 0 -98 -84l-31 10q31 203 166 203z" />
    <glyph glyph-name="odieresis" unicode="&#xf6;" horiz-adv-x="925" 
d="M430 39q68 0 122 54t84 136q60 164 60 286t-17 195t-65 126t-116 53q-70 0 -123 -54q-90 -92 -131 -315t35 -381q47 -100 151 -100zM870 602q0 -158 -56 -296q-56 -136 -174 -232t-264 -97q-146 1 -234 97t-87 268q-1 224 141 416t367 192q139 0 223 -95t84 -253z
M425 1126q-44 0 -73 29q-28 29 -28 73t31 77q32 33 77 33t73 -30q27 -28 27 -71t-32 -77t-75 -34zM746 1126q-44 0 -72 29t-27 72q0 43 32 77t76 34q43 0 71 -30q28 -28 28 -71t-32 -77t-76 -34z" />
    <glyph glyph-name="divide" unicode="&#xf7;" horiz-adv-x="1034" 
d="M467 201q-47 -1 -81 33t-34 81t34 81t81 34t81 -34t34 -81t-34 -81t-81 -33zM932 582h-846l14 92h846zM567 825q-47 0 -81 34t-33 81q0 47 33 81q34 34 81 34t81 -34t34 -81t-34 -81t-81 -34z" />
    <glyph glyph-name="oslash" unicode="&#xf8;" horiz-adv-x="925" 
d="M430 39q68 0 122 54t84 136q60 164 60 318q0 80 -14 143l-412 -534q51 -117 160 -117zM496 889q-68 0 -121 -54q-90 -92 -128 -299q-15 -83 -15 -159t14 -146l411 537q-49 121 -161 121zM55 342q-1 224 141 416t367 192q113 0 187 -61l81 104l52 -43q-84 -109 -84 -110
q71 -98 71 -248t-56 -286t-175 -232t-250 -96t-209 61l-80 -105l-51 41l84 109q-78 98 -78 258z" />
    <glyph glyph-name="ugrave" unicode="&#xf9;" horiz-adv-x="1032" 
d="M311 -23q-111 1 -157 89t-17 239l84 467l-133 64v20l313 107l9 -7l-107 -598q-19 -125 3 -182t110 -57q59 0 108 18t140 68l96 567l-133 64v20l311 107l8 -7l-133 -786q-10 -54 24 -72t160 -20l4 -15q-137 -86 -220 -86q-83 1 -107 49t-17 132l-8 6q-199 -187 -338 -187z
M588 1061q-29 41 -103 136t-93 130t-11 67t37 48q28 16 56 6t42 -37t28 -80t36 -129q20 -76 34 -123z" />
    <glyph glyph-name="uacute" unicode="&#xfa;" horiz-adv-x="1032" 
d="M311 -23q-111 1 -157 89t-17 239l84 467l-133 64v20l313 107l9 -7l-107 -598q-19 -125 3 -182t110 -57q59 0 108 18t140 68l96 567l-133 64v20l311 107l8 -7l-133 -786q-10 -54 24 -72t160 -20l4 -15q-137 -86 -220 -86q-83 1 -107 49t-17 132l-8 6q-199 -187 -338 -187z
M524 1061l-22 18q35 55 99 174q65 119 91 151t60 44q36 12 62 -6t24 -53t-29 -68t-131 -123t-154 -137z" />
    <glyph glyph-name="ucircumflex" unicode="&#xfb;" horiz-adv-x="1032" 
d="M311 -23q-111 1 -157 89t-17 239l84 467l-133 64v20l313 107l9 -7l-107 -598q-19 -125 3 -182t110 -57q59 0 108 18t140 68l96 567l-133 64v20l311 107l8 -7l-133 -786q-10 -54 24 -72t160 -20l4 -15q-137 -86 -220 -86q-83 1 -107 49t-17 132l-8 6q-199 -187 -338 -187z
M352 1055l-20 20l305 363h29l176 -363l-27 -20l-197 202z" />
    <glyph glyph-name="udieresis" unicode="&#xfc;" horiz-adv-x="1032" 
d="M311 -23q-111 1 -157 89t-17 239l84 467l-133 64v20l313 107l9 -7l-107 -598q-19 -125 3 -182t110 -57q59 0 108 18t140 68l96 567l-133 64v20l311 107l8 -7l-133 -786q-10 -54 24 -72t160 -20l4 -15q-137 -86 -220 -86q-83 1 -107 49t-17 132l-8 6q-199 -187 -338 -187z
M429 1126q-44 0 -73 29q-28 29 -28 73t31 77q32 33 77 33t73 -30q28 -28 28 -71t-32 -77t-76 -34zM858 1237q0 -43 -32 -77t-75 -34q-44 0 -72 29t-28 72t32 77t76 34q43 0 71 -30q28 -28 28 -71z" />
    <glyph glyph-name="yacute" unicode="&#xfd;" horiz-adv-x="925" 
d="M-53 -302q0 122 101 122q50 0 81 -58t27 -139q82 45 162 143t139 211q-45 240 -109 476q-63 236 -93 300t-72 64t-115 -24l-11 14q43 57 99 100t105 43q50 0 79 -26q28 -26 62 -90t85 -259t70 -362h10q133 391 207 750h8l154 -82q-43 -91 -140 -323q-96 -232 -160 -374
t-156 -301q-92 -158 -173 -227q-123 -105 -200 -105q-77 -1 -119 45t-41 102zM541 1061l-23 18q35 55 99 174q65 119 91 151t60 44t62 -6q26 -18 24 -53t-29 -68t-131 -123t-153 -137z" />
    <glyph glyph-name="thorn" unicode="&#xfe;" horiz-adv-x="960" 
d="M448 72q108 0 194 144q87 144 87 349q0 121 -50 195t-140 74t-179 -60l-104 -604q84 -98 192 -98zM638 950q113 0 189 -89t76 -249q0 -229 -179 -432t-386 -203q-57 0 -111 17l-59 -346l160 -49l-4 -27h-463l6 27l143 49l285 1681l-133 64v20l313 107l8 -4l-114 -691
l6 -6q150 131 263 131z" />
    <glyph glyph-name="ydieresis" unicode="&#xff;" horiz-adv-x="925" 
d="M-53 -302q0 122 101 122q50 0 81 -58t27 -139q82 45 162 143t139 211q-45 240 -109 476q-63 236 -93 300t-72 64t-115 -24l-11 14q43 57 99 100t105 43q50 0 79 -26q28 -26 62 -90t85 -259t70 -362h10q133 391 207 750h8l154 -82q-43 -91 -140 -323q-96 -232 -160 -374
t-156 -301q-92 -158 -173 -227q-123 -105 -200 -105q-77 -1 -119 45t-41 102zM392 1126q-44 0 -73 29t-29 73t33 77t77 33t72 -30q28 -28 28 -71t-32 -77t-76 -34zM714 1126q-44 0 -72 29t-28 72t32 77t76 34t72 -30q28 -28 28 -71t-32 -77t-76 -34z" />
    <glyph glyph-name="dotlessi" unicode="&#x131;" horiz-adv-x="522" 
d="M217 -23q-61 0 -88 43t-16 103l112 649l-133 64v20l314 107l8 -7l-133 -786q-10 -55 24 -73q35 -17 160 -19l4 -15q-137 -86 -252 -86z" />
    <glyph glyph-name="Lslash" unicode="&#x141;" horiz-adv-x="1216" 
d="M676 70q104 0 158 46q20 17 63 62l215 230l18 -9l-100 -399h-1050l6 35l209 37l81 520l-135 -37l-16 66l164 45l90 567l-197 37l4 35h607l-7 -35l-208 -37l-82 -512l252 67l18 -65l-283 -76l-90 -577h283z" />
    <glyph glyph-name="lslash" unicode="&#x142;" horiz-adv-x="552" 
d="M219 -23q-61 0 -89 43t-17 103l92 545l-121 -35l-16 65l149 43l100 588l-133 64v20l314 107l8 -7l-121 -722l152 45l18 -66l-182 -53l-90 -547q-10 -53 24 -72q35 -18 160 -20l4 -15q-137 -86 -252 -86z" />
    <glyph glyph-name="OE" unicode="&#x152;" horiz-adv-x="1955" 
d="M752 68h127l186 1169h-158q-193 0 -332 -101q-264 -192 -266 -608q0 -212 111 -336t332 -124zM723 0q-295 0 -464 152t-169 399q0 315 221 534t609 220h935l-6 -351l-22 -14l-131 174q-30 44 -37 51q-8 6 -22 22q-44 50 -148 50h-225l-88 -551h88q94 0 150 43t102 150
l28 67h31l-90 -575h-33l-6 63q-10 106 -54 150t-137 45h-90l-88 -559h295q84 0 123 22t100 86l215 230l17 -9l-98 -399h-1006z" />
    <glyph glyph-name="oe" unicode="&#x153;" horiz-adv-x="1452" 
d="M430 39q68 0 122 54t84 136q60 164 60 286t-17 195t-65 126t-116 53q-70 0 -123 -54q-90 -92 -131 -315t35 -381q47 -100 151 -100zM1276 784q0 51 -26 84t-72 33q-106 1 -188 -113t-116 -268q100 -12 182 8t127 64q93 87 93 192zM1200 950q106 0 168 -55t64 -133
q0 -121 -142 -212t-424 -81q-22 -176 38 -276t192 -101q63 0 130 31t111 82l15 -19q-44 -90 -142 -149t-200 -59t-178 50t-115 138q-133 -188 -348 -189q-139 1 -227 97t-87 268q-1 224 141 416t367 192q94 0 162 -53q67 -54 96 -152q154 205 379 205z" />
    <glyph glyph-name="Scaron" unicode="&#x160;" horiz-adv-x="1062" 
d="M482 29q116 -1 189 71t72 187q0 79 -51 146q-34 49 -140 102t-159 87q-136 87 -172 175q-23 55 -22 127q1 172 121 292t288 119q121 0 217 -63l95 69h28l-26 -393l-33 -4q-66 186 -123 259q-58 73 -152 73t-167 -70t-73 -182t85 -180q60 -49 154 -99q93 -49 129 -71
t85 -65q93 -80 93 -216q0 -193 -142 -309t-314 -115q-171 0 -288 64l-94 -70h-29l45 449l35 4q57 -215 145 -301t204 -86zM635 1462l-176 363l28 20l195 -205l266 205l21 -20l-305 -363h-29z" />
    <glyph glyph-name="scaron" unicode="&#x161;" horiz-adv-x="743" 
d="M643 282q0 -126 -97 -216q-98 -89 -236 -89q-138 -1 -215 55t-77 136q0 55 30 90t71 35q63 -1 85 -63t-9 -152q65 -39 145 -39t121 43t41 113q0 92 -125 178l-92 63q-82 56 -118 110t-36 128q0 106 91 191t212 85t179 -49q59 -49 59 -98t-23 -74t-61 -24q-96 0 -131 174
q-41 10 -84 10t-76 -37t-33 -94q0 -98 119 -176l117 -78q143 -96 143 -222zM463 1081l-176 363l28 20l195 -204l266 204l21 -20l-305 -363h-29z" />
    <glyph glyph-name="Ydieresis" unicode="&#x178;" horiz-adv-x="1306" 
d="M246 0l6 35l215 37l80 508l-281 643l-172 47l6 35h578l-6 -35l-183 -37l224 -582l401 570l-141 49l6 35h420l-6 -35l-170 -56l-473 -616l-84 -526l202 -37l-4 -35h-618zM691 1507q-44 0 -73 29q-28 29 -28 73t32 77q32 32 76 32t73 -28q28 -28 28 -72q0 -43 -32 -77
t-76 -34zM913 1608q0 42 32 76t76 34t72 -28q27 -28 27 -72q0 -43 -32 -77t-75 -34q-44 0 -72 29t-28 72z" />
    <glyph glyph-name="Zcaron" unicode="&#x17d;" horiz-adv-x="1284" 
d="M612 1237q-80 0 -126 -22t-115 -85l-187 -174l-16 15l98 334h973l4 -21l-979 -1214h430q84 0 124 16t91 72l207 221l21 -12l-107 -367h-1032l-4 20l977 1217h-359zM715 1462l-176 363l28 20l195 -205l266 205l21 -20l-306 -363h-28z" />
    <glyph glyph-name="zcaron" unicode="&#x17e;" horiz-adv-x="837" 
d="M598 -23q-53 0 -211 50l-197 63l-143 -96l-27 22l625 740q-262 55 -352 55t-121 -23v-8q57 -12 87 -46t30 -72q-1 -38 -21 -65q-20 -26 -61 -26t-76 36t-35 87q0 94 95 175t210 81q31 0 80 -8l246 -39l102 64l33 -27l-618 -723l344 -70q47 -9 83 9t91 71l12 -6
q-45 -137 -84 -191t-92 -53zM487 1081l-176 363l29 20l195 -204l266 204l20 -20l-305 -363h-29z" />
    <glyph glyph-name="florin" unicode="&#x192;" horiz-adv-x="933" 
d="M2 -379q-78 0 -120 30t-42 74q0 43 31 71t80 28q117 0 178 -131q61 82 102 321l101 607h-211l8 34l219 60l6 43q25 168 75 264t158 180t242 84q78 0 130 -34q53 -34 53 -81t-30 -75t-82 -29q-52 0 -102 43t-69 125q-74 -51 -121 -155t-82 -316l-10 -62h232l-17 -81h-229
l-64 -375q-39 -228 -80 -332t-134 -198t-222 -95z" />
    <glyph glyph-name="circumflex" unicode="&#x2c6;" horiz-adv-x="628" 
d="M135 1055l-20 20l305 363h29l176 -363l-27 -20l-197 202z" />
    <glyph glyph-name="caron" unicode="&#x2c7;" horiz-adv-x="628" 
d="M358 1081l-176 363l29 20l195 -204l266 204l20 -20l-305 -363h-29z" />
    <glyph glyph-name="breve" unicode="&#x2d8;" horiz-adv-x="704" 
d="M422 1079q-238 0 -232 264l37 15q51 -160 222 -160q82 0 138 38t109 122l33 -15q-76 -264 -307 -264z" />
    <glyph glyph-name="dotaccent" unicode="&#x2d9;" horiz-adv-x="352" 
d="M255 1126q-44 0 -72 29t-27 72q0 43 31 77q32 34 76 34t72 -30q27 -28 27 -71t-32 -77t-75 -34z" />
    <glyph glyph-name="ring" unicode="&#x2da;" horiz-adv-x="546" 
d="M360 1083q53 1 80 59t27 120q0 123 -68 122q-53 0 -80 -58t-26 -122q-1 -121 67 -121zM361 1051q-81 0 -123 43q-42 44 -41 118q0 74 60 140q59 66 139 66t122 -44t43 -118q0 -74 -59 -140q-60 -65 -141 -65z" />
    <glyph glyph-name="ogonek" unicode="&#x2db;" horiz-adv-x="567" 
d="M93 -508q-79 0 -133 50t-54 130q0 205 387 430l16 -20q-141 -111 -208 -191t-66 -172q0 -139 141 -139q53 0 117 58l16 -17q-29 -53 -83 -91t-133 -38z" />
    <glyph glyph-name="tilde" unicode="&#x2dc;" horiz-adv-x="694" 
d="M307 1313q53 0 149 -36t132 -36q66 0 98 86l31 -12q-33 -203 -166 -203q-55 0 -149 36t-132 36q-65 0 -98 -84l-31 10q31 203 166 203z" />
    <glyph glyph-name="hungarumlaut" unicode="&#x2dd;" horiz-adv-x="671" 
d="M182 1065l-24 16q29 47 91 169t85 154q22 32 58 45t60 -4t22 -50t-22 -62q-22 -29 -66 -71t-106 -102q-62 -58 -98 -95zM428 1065l-22 16q31 49 100 172t95 155q27 32 59 43t59 -6t23 -50t-26 -62q-23 -29 -135 -128t-153 -140z" />
    <glyph glyph-name="Delta" unicode="&#x394;" 
d="M51 -410v2048h922v-2048h-922z" />
    <glyph glyph-name="Omega" unicode="&#x3a9;" horiz-adv-x="1173" 
d="M748 1442q-115 0 -187 -100t-110 -365l-11 -70h408l12 82q19 119 66 223q-66 -2 -102 56t-27 162q-20 12 -49 12zM1354 1518q78 0 123 -34t45 -78t-29 -73t-81 -29t-99 40q-47 38 -78 108q-86 -52 -136 -152t-79 -305l-12 -88h231l-14 -84h-230l-90 -645
q-33 -226 -73 -332t-130 -196q-94 -98 -210 -99q-66 0 -106 33t-40 74t29 67t78 25q96 0 163 -110q68 106 97 313l123 870h-408l-88 -630q-31 -223 -72 -329t-132 -200q-91 -96 -210 -96q-66 0 -106 32t-39 74q0 42 29 67q29 26 77 26q96 0 166 -111q66 111 94 313l121 854
h-215l6 37l224 58l8 53q49 322 221 448q106 80 230 80t191 -44t83 -105q45 49 84 80q111 88 254 88z" />
    <glyph glyph-name="pi" unicode="&#x3c0;" horiz-adv-x="1519" 
d="M788 635q140 4 140 160t-140 159q-59 0 -69 -2v-315q8 -2 69 -2zM481 305v33l103 22v582l-103 23v30h338q127 0 191 -55t63 -140q0 -85 -64 -148q-65 -62 -178 -62q-43 0 -112 8v-238l106 -22v-33h-344zM760 14q262 0 447 186t185 450t-184 450q-186 186 -448 186
t-448 -186t-185 -450q-1 -264 185 -450t448 -186zM760 -33q-283 0 -484 200q-200 199 -200 483t200 484q201 200 484 200q284 0 484 -200t200 -484t-200 -484t-484 -199z" />
    <glyph glyph-name="endash" unicode="&#x2013;" horiz-adv-x="1118" 
d="M82 471l10 68h873l-13 -68h-870z" />
    <glyph glyph-name="emdash" unicode="&#x2014;" horiz-adv-x="1630" 
d="M82 471l10 68h1385l-13 -68h-1382z" />
    <glyph glyph-name="quoteleft" unicode="&#x2018;" horiz-adv-x="425" 
d="M248 883q-58 0 -96 47t-39 125q0 79 62 157t183 138l21 -25q-137 -117 -170 -223l4 -2l35 8q20 4 31 4q45 0 73 -30t27 -78q0 -48 -36 -84q-37 -37 -95 -37z" />
    <glyph glyph-name="quoteright" unicode="&#x2019;" horiz-adv-x="425" 
d="M254 1106q-43 0 -71 30q-27 30 -27 78t35 84q36 37 95 37q58 0 96 -47t38 -125t-62 -156t-184 -139l-20 25q141 121 170 223l-5 2l-34 -8q-20 -4 -31 -4z" />
    <glyph glyph-name="quotesinglbase" unicode="&#x201a;" horiz-adv-x="491" 
d="M170 -16q-43 0 -71 30q-27 30 -27 77q0 48 36 85t94 37t96 -47t38 -125t-62 -156t-184 -139l-20 25q141 121 170 223l-4 2l-35 -8q-20 -4 -31 -4z" />
    <glyph glyph-name="quotedblleft" unicode="&#x201c;" horiz-adv-x="735" 
d="M242 905q-55 0 -92 45t-37 119t59 149t174 132l19 -23q-135 -115 -160 -213l2 -2l33 8q20 4 30 4q41 0 68 -28t27 -74q0 -45 -34 -81t-89 -36zM565 905q-55 0 -92 45t-37 119t60 149t174 132l20 -23q-133 -113 -162 -213l4 -2l33 8q20 4 29 4q41 0 68 -28q26 -28 26 -74
q0 -45 -34 -81t-89 -36z" />
    <glyph glyph-name="quotedblright" unicode="&#x201d;" horiz-adv-x="739" 
d="M236 1116q-25 0 -53 30q-27 30 -27 75t34 79t90 35q56 0 92 -44q36 -45 36 -119t-58 -149t-176 -132l-18 24q133 113 161 213l-4 2l-32 -10q-20 -4 -45 -4zM575 1116q-41 0 -67 29t-27 75q0 46 34 80t89 35q55 0 92 -44q37 -43 37 -117t-59 -150t-174 -133l-21 24
q133 113 162 213l-4 2l-33 -10q-20 -4 -29 -4z" />
    <glyph glyph-name="quotedblbase" unicode="&#x201e;" horiz-adv-x="778" 
d="M152 -6q-25 0 -53 30q-27 30 -27 74t34 80q35 35 90 35q56 0 92 -44t36 -119q0 -76 -58 -150t-176 -131l-18 24q133 113 161 213l-4 2l-32 -10q-20 -4 -45 -4zM492 -6q-41 0 -68 29t-27 75t34 80q34 35 89 35t92 -44t37 -118q0 -73 -59 -149t-174 -133l-21 24
q133 113 162 213l-4 2l-33 -10q-20 -4 -28 -4z" />
    <glyph glyph-name="dagger" unicode="&#x2020;" horiz-adv-x="890" 
d="M256 -170l168 1004l-375 -9l10 66l373 -8l70 489h78l-86 -489l374 8l-10 -66l-373 9l-151 -1004h-78z" />
    <glyph glyph-name="daggerdbl" unicode="&#x2021;" horiz-adv-x="890" 
d="M256 -170l86 489l-375 -8l10 66l373 -8l74 465l-375 -9l10 66l373 -8l70 489h78l-88 -489l376 8l-12 -66l-371 9l-73 -465l374 8l-10 -66l-373 8l-69 -489h-78z" />
    <glyph glyph-name="bullet" unicode="&#x2022;" horiz-adv-x="978" 
d="M487 377q-115 0 -195 81q-80 80 -79 194q0 114 80 195q81 81 195 81t195 -80t81 -195t-81 -195t-196 -81z" />
    <glyph glyph-name="ellipsis" unicode="&#x2026;" horiz-adv-x="1312" 
d="M205 -33q-51 0 -88 36t-37 87t37 87t88 36t87 -36t36 -87t-36 -87t-87 -36zM637 -33q-51 0 -88 36t-37 87t37 87t88 36t87 -36t36 -87t-36 -87t-87 -36zM1069 -33q-51 0 -88 36t-37 87t37 87t88 36t87 -36t36 -87t-36 -87t-87 -36z" />
    <glyph glyph-name="perthousand" unicode="&#x2030;" horiz-adv-x="1519" 
d="M913 811q0 72 -43 109q-43 36 -106 36t-74 -2v-297l72 2q66 2 108 41t43 111zM455 307v33l100 22v582l-100 23v30h360q115 0 179 -49t65 -119q0 -143 -201 -182v-4q98 -19 143 -125t78 -139t82 -39v-33h-129q-59 0 -84 24t-57 95l-51 117q-23 47 -48 61q-26 14 -75 14
h-27v-256l101 -22v-33h-336zM760 16q262 0 447 186t185 450t-184 450q-186 186 -448 186t-448 -186t-185 -450q-1 -264 185 -450t448 -186zM760 -31q-283 0 -484 200q-200 199 -200 483t200 484q201 200 484 200q284 0 484 -200t200 -484t-200 -484t-484 -199z" />
    <glyph glyph-name="guilsinglleft" unicode="&#x2039;" horiz-adv-x="602" 
d="M354 63l-331 388l4 20l450 387l35 -39l-293 -356l178 -369z" />
    <glyph glyph-name="guilsinglright" unicode="&#x203a;" horiz-adv-x="602" 
d="M55 63l-35 39l293 357l-176 368l41 31l332 -387l-4 -20z" />
    <glyph glyph-name="fraction" unicode="&#x2044;" horiz-adv-x="1114" 
d="M111 -66l-60 41l481 668l472 674l59 -43l-481 -666z" />
    <glyph glyph-name="trademark" unicode="&#x2122;" horiz-adv-x="1060" 
d="M250 940v18l55 19v295h-26q-33 0 -64 -41l-43 -55l-14 2l18 127h338l18 -127l-14 -2l-43 55q-31 41 -63 41h-23v-295l53 -19v-18h-192zM571 940v18l45 23v285l-45 20v19h164l99 -254h6l92 254h168v-19l-53 -18v-291l53 -19v-18h-187v18l50 19v280h-7l-122 -317h-41
l-127 317h-9v-276l48 -23v-18h-134z" />
    <glyph glyph-name="partialdiff" unicode="&#x2202;" 
d="M51 -410v2048h922v-2048h-922z" />
    <glyph glyph-name="product" unicode="&#x220f;" 
d="M51 -410v2048h922v-2048h-922z" />
    <glyph glyph-name="summation" unicode="&#x2211;" 
d="M51 -410v2048h922v-2048h-922z" />
    <glyph glyph-name="minus" unicode="&#x2212;" horiz-adv-x="1034" 
d="M932 582h-846l14 92h846z" />
    <glyph glyph-name="radical" unicode="&#x221a;" horiz-adv-x="1636" 
d="M745 1442q-113 0 -185 -100t-109 -365l-11 -70h406l12 82q20 135 55 223q-59 4 -93 62t-25 156q-20 12 -50 12zM1315 1460q-115 0 -188 -99t-109 -366l-12 -88h356l59 348q-70 55 -57 193q-20 12 -49 12zM1329 1518q92 0 164 -39l119 41l8 -7l-223 -1343q-10 -53 25 -72
q36 -18 161 -20l4 -15q-139 -86 -252 -86q-61 0 -89 43t-17 103l119 700h-355l-90 -645q-33 -226 -73 -332t-130 -196q-94 -99 -211 -99q-65 0 -105 33t-40 74t29 67t78 25q94 0 165 -110q66 109 95 313l125 870h-408l-88 -630q-31 -223 -72 -329t-132 -200
q-91 -96 -210 -96q-66 0 -106 32t-39 74q0 42 29 67q29 26 77 26q96 0 166 -111q66 111 94 313l121 854h-215l6 37l224 58l8 53q49 322 221 448q106 80 248 80q96 0 161 -37t89 -92q128 148 319 148z" />
    <glyph glyph-name="infinity" unicode="&#x221e;" 
d="M51 -410v2048h922v-2048h-922z" />
    <glyph glyph-name="integral" unicode="&#x222b;" 
d="M51 -410v2048h922v-2048h-922z" />
    <glyph glyph-name="approxequal" unicode="&#x2248;" horiz-adv-x="1640" 
d="M748 1442q-115 0 -187 -100t-110 -365l-11 -70h406l12 82q20 135 55 223q-59 4 -93 62t-23 156q-20 12 -49 12zM1329 1518q123 0 193 -58t69 -129q1 -43 -27 -71t-82 -29q-54 0 -90 57t-28 160q-20 12 -49 12q-115 0 -187 -99t-108 -366l-12 -88h350l164 56l8 -7
l-131 -786q-10 -53 24 -72q35 -18 160 -20l4 -15q-137 -86 -252 -86q-61 0 -88 42t-16 104l121 700h-357l-92 -645q-33 -226 -73 -332t-130 -200t-208 -95q-68 0 -107 32t-39 74t29 68t76 25q98 0 165 -110q68 113 97 313l123 870h-408l-88 -630q-31 -223 -72 -329
t-132 -200q-91 -96 -210 -96q-66 0 -106 32t-39 74q0 42 29 67q29 26 77 26q96 0 166 -111q66 111 94 313l121 854h-215l6 37l224 58l8 53q49 322 221 448q106 80 250 80q96 0 160 -37t88 -92q128 148 319 148z" />
    <glyph glyph-name="notequal" unicode="&#x2260;" 
d="M51 -410v2048h922v-2048h-922z" />
    <glyph glyph-name="lessequal" unicode="&#x2264;" 
d="M51 -410v2048h922v-2048h-922z" />
    <glyph glyph-name="greaterequal" unicode="&#x2265;" 
d="M51 -410v2048h922v-2048h-922z" />
    <glyph glyph-name="lozenge" unicode="&#x25ca;" horiz-adv-x="1019" 
d="M471 1044q0 -50 -40 -83q-39 -33 -101 -33t-107 18l-18 -22h-19l-2 139l19 2q72 -109 135 -109t63 56q0 27 -22 43q-23 16 -74 32q-111 35 -110 113q0 51 37 82q38 31 92 31t88 -15l16 19h18l9 -125l-21 -2q-68 98 -118 98t-50 -55q0 -27 22 -42t76 -35t80 -40
q27 -22 27 -72zM1059 940h-187v18l50 19v280h-7l-122 -317h-41l-127 317h-9v-276l48 -23v-18h-134v18l45 23v285l-45 20v19h164l99 -254h6l92 254h168v-19l-53 -18v-291l53 -19v-18z" />
    <glyph glyph-name="apple" unicode="&#xf8ff;" horiz-adv-x="1421" 
d="M872 580q-31 0 -30 34q0 12 9 24t22 11q13 0 23 -11q10 -10 9 -24q1 -14 -9 -24t-24 -10zM999 612h-24v35h22q20 0 21 -16q-1 -19 -19 -19zM664 823q-35 1 -35 47t30 76l41 -80q-12 -43 -36 -43zM645 1056q0 30 29 29q27 -1 27 -35t-31 -69q-25 45 -25 75zM494 662
l30 -97h17l20 70h2l23 -70h16l29 97h-17l-20 -72h-2l-21 72h-16l-23 -72h-2l-20 72h-16zM270 662v-95h17v66l51 -66h14v95h-16v-66l-51 66h-15zM395 662v-95h68v15h-51v26h45v15h-45v24h51v15h-68zM750 567h16v35l37 60h-19l-26 -46l-27 46h-18l37 -60v-35zM874 565
q22 0 34 15q32 34 0 68q-14 16 -36 16q-20 0 -33 -16t-13 -34q0 -20 12 -34q14 -14 36 -15zM1034 626q0 34 -33 36h-43v-95h17v31h24l21 -31h18l-24 35q20 6 20 24zM1071 662v-95h16v27l15 14l33 -41h18l-39 54l37 41h-21l-43 -50v50h-16zM598 884q0 -92 68 -90q32 0 51 50
h2l24 -49l23 16l-33 61q20 47 27 80l-27 6q-4 -18 -18 -61l-33 64q47 43 47 77q0 72 -55 72q-25 0 -41 -19q-17 -19 -17 -45t29 -79q-47 -37 -47 -83zM985 799q63 0 64 73v281h-33v-281q0 -45 -33 -45q-20 0 -41 13v-33q16 -8 43 -8zM377 1153v-352h31v162h96v-162h31v352
h-31v-162h-96v162h-31zM819 1153v-352h31v160h78v28h-78v135h88v29h-119zM1319 -410h-426l-16 29h-334l-17 -29h-424v621q29 0 48 19q18 19 18 46q0 26 -20 46t-46 20v1135h205l62 161h684l59 -161h207v-1887z" />
    <glyph glyph-name="fi" unicode="&#xfb01;" horiz-adv-x="1073" 
d="M-76 -449q-66 0 -106 33t-39 74q0 41 28 67q29 26 78 25q94 0 166 -110q66 109 94 313l123 870h-215l6 37l224 58l10 71q45 315 223 447q109 82 240 82q132 0 200 -58t68 -129q0 -43 -27 -71t-81 -29q-54 0 -90 57t-27 160q-20 12 -49 12q-115 0 -188 -99t-109 -366
l-13 -88h353l163 56l9 -7l-134 -786q-10 -54 26 -72t161 -20l4 -15q-139 -86 -252 -86q-61 0 -89 43t-17 103l122 700h-358l-90 -645q-33 -226 -73 -332t-130 -196q-94 -99 -211 -99z" />
    <glyph glyph-name="fl" unicode="&#xfb02;" horiz-adv-x="1071" 
d="M750 1460q-115 0 -188 -99t-109 -366l-13 -88h355l59 348q-70 55 -55 193q-20 12 -49 12zM-76 -449q-66 0 -106 33t-39 74q0 41 28 67q29 26 78 25q94 0 166 -110q66 109 94 313l123 870h-215l6 37l224 58l10 71q45 315 223 447q109 82 248 82q90 0 162 -39l121 41l8 -7
l-224 -1343q-10 -54 24 -72t161 -20l4 -15q-137 -86 -252 -86q-63 0 -90 42t-16 104l118 700h-352l-90 -645q-33 -226 -73 -332t-130 -196q-94 -99 -211 -99z" />
    <glyph glyph-name="CR" horiz-adv-x="430" 
 />
    <glyph glyph-name="NUL" horiz-adv-x="0" 
 />
    </font>
</defs>
</svg>
