<?xml version="1.0" standalone="no"?>
<!DOCTYPE svg PUBLIC "-//W3C//DTD SVG 1.1//EN" "http://www.w3.org/Graphics/SVG/1.1/DTD/svg11.dtd" >
<svg xmlns="http://www.w3.org/2000/svg">
<metadata>
Created by FontPrep 20130207 at Tue Feb 13 02:16:54 2018
 By Sun Law
Copyright (C) 1996-2005, Hoefler &#38; Frere-Jones, Inc. www.typography.com
</metadata>
<defs>
<font id="f7da414457db7c33495b512da400b112" horiz-adv-x='1024' >
  <font-face 
    font-family="Mercury-DisplayBoldItalic"
    font-weight="700"
    font-style="italic"
    font-stretch="normal"
    units-per-em="2048"
    panose-1="0 0 0 0 0 0 0 0 0 0"
    ascent="1638"
    descent="-410"
    x-height="958"
    cap-height="1305"
    bbox="-338 -543.016 2011 1872.1"
    underline-thickness="57"
    underline-position="-176"
    slope="-12"
    unicode-range="U+0020-FB02"
  />
<missing-glyph 
 />
    <glyph glyph-name=".notdef" 
 />
    <glyph glyph-name=".null" horiz-adv-x="0" 
 />
    <glyph glyph-name="nonmarkingreturn" horiz-adv-x="681" 
 />
    <glyph glyph-name="space" unicode=" " horiz-adv-x="389" 
 />
    <glyph glyph-name="exclam" unicode="!" horiz-adv-x="544" 
d="M219 -33q-59 0 -102 43q-43 42 -43 102t43 102t102 42t101 -42t42 -101t-41 -103q-43 -43 -102 -43zM541 1198q0 -72 -38 -196q-39 -124 -105 -312t-101 -303l-68 12q2 113 -1 302t-4 281t9 198q27 158 152 157q156 0 156 -139z" />
    <glyph glyph-name="quotedbl" unicode="&#x22;" horiz-adv-x="663" 
d="M176 885l-26 14l40 156q33 121 68 211q27 70 94 69q41 1 66 -27q47 -51 11 -119q-36 -67 -136 -177zM725 1248q1 -34 -25 -78t-129 -156l-120 -129l-27 14l47 160q47 153 76 215t79 62t74 -28q24 -26 25 -60z" />
    <glyph glyph-name="numbersign" unicode="#" horiz-adv-x="1165" 
d="M440 485h252l74 263h-250zM104 391v94h238l47 156l29 107h-250v94h276l88 319l101 -31l-88 -288h248l90 319l98 -31l-86 -288h217v-94h-246l-41 -140l-32 -123h256v-94h-283l-82 -299l-100 31l80 268h-248l-82 -299l-98 31l79 268h-211z" />
    <glyph glyph-name="dollar" unicode="$" horiz-adv-x="1079" 
d="M723 262q0 113 -156 211l-92 -424q113 -18 181 41t67 172zM445 1000q0 -106 137 -195l88 399q-102 20 -164 -39t-61 -165zM188 877q0 180 140 299t360 106l33 150l74 -19l-35 -139q141 -25 252 -98l-41 -314l-47 -4q-76 256 -187 322l-100 -408q14 -8 65 -37t108 -66
t78 -62q21 -26 54 -71t33 -137q0 -188 -141 -314t-375 -114l-39 -176l-74 19l39 163q-211 25 -330 86l60 383l43 3q80 -305 250 -383l104 438q-164 94 -213 139q-111 98 -111 234z" />
    <glyph glyph-name="percent" unicode="%" horiz-adv-x="1421" 
d="M991 20q70 0 115 121t45 260q0 176 -98 177q-70 0 -115 -121t-45 -260q0 -177 98 -177zM416 674q70 0 114 121q45 121 45 260q0 176 -98 176q-70 0 -115 -121t-45 -260q1 -176 99 -176zM980 -35q-278 0 -278 281q0 145 112 266t250 121t208 -68t69 -196q0 -162 -111 -283
q-112 -121 -250 -121zM180 -57l-61 49l586 651l581 664l62 -50l-586 -651zM500 1286q266 0 266 -280q0 -146 -112 -267t-250 -121t-208 68t-69 214q0 146 112 266t261 120z" />
    <glyph glyph-name="ampersand" unicode="&#x26;" horiz-adv-x="1372" 
d="M555 145q111 0 223 68l78 432h-297q-101 -37 -161 -123t-60 -170q0 -207 217 -207zM383 -23q-160 0 -258 81t-98 215q0 133 104 233t301 139v8q-221 80 -221 271q0 147 143 259t353 111q121 0 184 -45t63 -101t-38 -92t-102 -36t-126 49q-63 49 -96 143q-49 -34 -78 -102
t-29 -154q-1 -86 49 -152q50 -65 134 -89l254 102l215 205l39 -12l-43 -242h245l-20 -123h-248l-63 -346q-19 -111 15 -145t140 -33q45 0 113 6v-35q-72 -45 -172 -81t-188 -36t-133 41q-44 41 -46 131l-8 5q-160 -175 -385 -175z" />
    <glyph glyph-name="quotesingle" unicode="'" horiz-adv-x="378" 
d="M174 885l-27 14l43 158q35 129 67 204t95 74q39 1 65 -27q48 -51 8 -124q-40 -72 -132 -170z" />
    <glyph glyph-name="parenleft" unicode="(" horiz-adv-x="722" 
d="M115 428q0 395 235 695q236 300 574 395l10 -45q-178 -72 -312 -253q-134 -180 -199 -408t-65 -467t78 -409t215 -253l-24 -43q-223 90 -368 297q-144 207 -144 491z" />
    <glyph glyph-name="parenright" unicode=")" horiz-adv-x="722" 
d="M639 729q1 -395 -235 -695t-574 -394l-10 45q178 72 312 253t199 408t65 466t-79 409q-78 170 -215 254l25 43q223 -90 367 -297t145 -492z" />
    <glyph glyph-name="asterisk" unicode="*" horiz-adv-x="688" 
d="M743 1108q-15 -120 -260 -111l-2 -10q113 -29 168 -74t47 -108l-18 -25q-115 -49 -227 172l-9 -6q60 -231 -55 -276l-29 4q-96 81 35 280l-6 9q-85 -84 -151 -111t-117 18l-10 27q11 122 258 109l2 10q-107 31 -167 74t-44 112l18 23q54 20 112 -22t113 -148l9 4
q-62 239 53 276l31 -4q97 -77 -35 -278l8 -9q172 172 266 93z" />
    <glyph glyph-name="plus" unicode="+" horiz-adv-x="1034" 
d="M965 569h-373l-62 -376h-118l61 376h-375l19 117h375l57 371h119l-58 -371h373z" />
    <glyph glyph-name="comma" unicode="," horiz-adv-x="446" 
d="M116 -14q-38 0 -71 34t-33 92t42 101t111 43t114 -55t45 -144q0 -225 -289 -350l-23 29q162 139 199 262l-4 4l-41 -12q-12 -4 -50 -4z" />
    <glyph glyph-name="hyphen" unicode="-" horiz-adv-x="665" 
d="M66 410l28 165h510l-29 -165h-509z" />
    <glyph glyph-name="period" unicode="." horiz-adv-x="425" 
d="M156 -33q-59 0 -103 43q-43 42 -43 102t43 102t103 42t101 -42q42 -42 42 -101t-42 -103t-101 -43z" />
    <glyph glyph-name="slash" unicode="/" horiz-adv-x="714" 
d="M-131 -432l-78 39l571 954l560 959l77 -39l-573 -959z" />
    <glyph glyph-name="zero" unicode="0" horiz-adv-x="1134" 
d="M518 43q80 0 142 98q103 163 145 525q16 137 16 272q0 274 -159 272q-80 0 -142 -98t-96 -242q-64 -279 -66 -528q0 -162 40 -230t120 -69zM490 -33q-194 0 -306 134q-110 133 -110 347t70 401q71 187 211 312t335 125q196 0 306 -134t110 -347t-71 -401t-211 -312
q-140 -125 -334 -125z" />
    <glyph glyph-name="one" unicode="1" horiz-adv-x="798" 
d="M-12 0l6 33l237 92l150 946l-201 109l4 24l473 68l9 -6l-181 -1141l201 -92l-6 -33h-692z" />
    <glyph glyph-name="two" unicode="2" horiz-adv-x="999" 
d="M641 885q0 96 -53 145t-142 49q-139 0 -284 -118l-19 24q205 301 443 301q152 0 240 -89t89 -224q0 -172 -139 -333t-491 -396l4 -13h428l176 185l25 -6l-132 -410h-817l-4 57q242 187 459 415t217 413z" />
    <glyph glyph-name="three" unicode="3" horiz-adv-x="940" 
d="M396 -33q-198 0 -300 67t-102 171q0 67 43 111t100 44q104 0 139 -92t-4 -182q47 -43 140 -43t155 67q61 67 62 169q0 238 -346 329l4 25q217 69 293 143t76 153t-49 121q-48 42 -134 42q-135 0 -297 -111l-18 23q168 283 442 282q141 0 225 -74t84 -186
q0 -215 -299 -319v-15q133 -49 199 -132t65 -179q0 -172 -140 -293t-338 -121z" />
    <glyph glyph-name="four" unicode="4" horiz-adv-x="1073" 
d="M221 510h324l63 397h-4zM246 0l6 33l231 92l33 207h-506l-10 35l891 919l35 -16l-121 -760h190l-28 -178h-191l-33 -207l191 -92l-6 -33h-682z" />
    <glyph glyph-name="five" unicode="5" horiz-adv-x="999" 
d="M438 -33q-168 0 -282 71t-113 179q0 72 43 118t107 46q104 0 138 -91t-20 -198q53 -49 143 -49t146 68q55 67 55 195t-102 205t-383 114l137 628h574l90 101l26 -8l-67 -324h-586l-39 -184q332 -46 469 -150t137 -284t-131 -308q-131 -129 -342 -129z" />
    <glyph glyph-name="six" unicode="6" horiz-adv-x="1040" 
d="M508 37q84 0 140 124t57 275q0 272 -222 273q-51 0 -102 -17q-49 -141 -49 -308t46 -257t130 -90zM977 467q0 -195 -129 -345t-350 -151q-221 0 -326 125q-104 125 -104 326q0 286 208 528q104 121 282 216t409 143l12 -47q-412 -170 -565 -490l12 -8q90 53 209 53
q156 0 249 -98t93 -252z" />
    <glyph glyph-name="seven" unicode="7" horiz-adv-x="933" 
d="M66 -31l362 500l383 547h-541l-118 -121l-23 6l109 412l20 8l39 -68h727l14 -20l-714 -1264h-258z" />
    <glyph glyph-name="eight" unicode="8" horiz-adv-x="999" 
d="M460 31q87 0 136 57t49 130t-21 130q-29 79 -214 225q-137 -129 -138 -307q0 -102 50 -168t138 -67zM764 1022q0 88 -49 143t-125 55t-122 -54t-46 -138t54 -152t157 -147q131 125 131 293zM907 338q1 -150 -119 -262t-319 -111q-199 0 -307 88t-109 211q0 123 83 212
t237 128q-94 76 -147 151q-52 75 -52 177q0 148 116 252t294 104t280 -84t103 -203q0 -221 -293 -305q74 -59 116 -100t80 -112t37 -146z" />
    <glyph glyph-name="nine" unicode="9" horiz-adv-x="1040" 
d="M612 565q51 0 101 17q43 132 43 294t-46 252t-130 90t-138 -120q-54 -121 -55 -269q0 -264 225 -264zM461 457q-158 0 -252 96t-94 246q0 189 128 337t348 148t324 -125t105 -325q0 -288 -209 -529q-103 -121 -281 -216t-409 -142l-12 47q428 176 573 508l-12 8
q-90 -53 -209 -53z" />
    <glyph glyph-name="colon" unicode=":" horiz-adv-x="446" 
d="M166 -33q-59 0 -103 43q-43 42 -43 102t43 102t103 42t101 -42q42 -42 42 -101t-42 -103t-101 -43zM266 594q-59 0 -102 42t-43 102t43 102t102 43q60 0 102 -42q42 -43 42 -103t-42 -102t-102 -42z" />
    <glyph glyph-name="semicolon" unicode=";" horiz-adv-x="466" 
d="M122 -14q-38 0 -71 34t-33 92t42 101t111 43t114 -55t45 -144q0 -225 -289 -350l-23 29q162 139 199 262l-4 4l-41 -12q-12 -4 -50 -4zM270 594q-59 0 -102 42t-43 102t43 102t102 43q60 0 102 -42q42 -43 42 -103t-42 -102t-102 -42z" />
    <glyph glyph-name="less" unicode="&#x3c;" horiz-adv-x="1034" 
d="M788 231l-634 359l12 76l749 362l7 -117l-619 -290l528 -287z" />
    <glyph glyph-name="equal" unicode="=" horiz-adv-x="1034" 
d="M70 379l18 117h866l-18 -117h-866zM129 758l18 114h867l-19 -114h-866z" />
    <glyph glyph-name="greater" unicode="&#x3e;" horiz-adv-x="1034" 
d="M166 231l-6 117l618 291l-528 287l43 102l635 -358l-13 -76z" />
    <glyph glyph-name="question" unicode="?" horiz-adv-x="823" 
d="M293 -33q-59 0 -103 43q-43 42 -43 102t43 102q42 42 102 42t102 -42t42 -101t-42 -103t-101 -43zM374 365q-98 0 -166 57t-69 163q0 106 80 171q43 35 79 55t132 67q96 46 152 94t55 124q0 76 -48 118q-49 42 -123 41q-74 0 -120 -28q27 -47 27 -108t-38 -107
q-37 -46 -99 -47q-62 0 -105 39t-43 102q0 102 93 166t260 63q167 0 289 -96t122 -242t-93 -220q-46 -36 -87 -55q-40 -19 -128 -51t-132 -63t-45 -88q0 -109 194 -106l2 -21q-91 -28 -189 -28z" />
    <glyph glyph-name="at" unicode="@" horiz-adv-x="1697" 
d="M819 217q49 0 119 53l66 394q-52 88 -116 88t-106 -70q-74 -123 -75 -307q-1 -158 112 -158zM94 391q0 233 121 432t323 312t433 112q309 0 489 -177t180 -423q0 -145 -58 -275t-176 -216t-269 -86q-184 0 -199 139l-10 4q-50 -71 -100 -101t-132 -30t-142 68
q-58 68 -58 180q0 184 154 350q155 166 335 166q76 0 131 -31l103 39l14 -4l-88 -531q-29 -156 86 -155q100 0 170 120t69 312q0 246 -140 412t-414 166t-458 -204t-184 -522t193 -490q193 -173 460 -173t484 121l23 -33q-242 -201 -560 -201t-541 177q-111 87 -175 227
t-64 315z" />
    <glyph glyph-name="A" unicode="A" horiz-adv-x="1302" 
d="M412 516h321l-86 459h-4zM-90 0l6 35l152 67l661 1215h133l268 -1223l154 -59l-6 -35h-639l6 35l170 49l-65 352h-379l-170 -338l153 -63l-6 -35h-438z" />
    <glyph glyph-name="B" unicode="B" horiz-adv-x="1302" 
d="M608 66q133 0 209 95t76 253q0 231 -256 231h-76l-88 -565q63 -14 135 -14zM653 715q143 0 224 84q80 84 79 229q0 98 -50 150t-163 55l-88 4l-84 -522h82zM745 1305q518 0 519 -285q0 -141 -114 -227t-308 -103l-2 -10q186 -29 280 -114t94 -199q0 -171 -144 -269
t-435 -98h-655l6 35l186 49l180 1137l-170 49l6 35h557z" />
    <glyph glyph-name="C" unicode="C" horiz-adv-x="1302" 
d="M762 -31q-280 0 -470 140q-96 71 -150 189t-54 271q0 326 221 546t547 220q197 0 336 -67l92 73h37l-59 -475l-52 -4q-92 242 -167 320t-189 78t-200 -71t-134 -183q-102 -234 -101 -482t104 -358t261 -109q61 0 113 15l279 370l32 -8l-71 -389q-156 -76 -375 -76z" />
    <glyph glyph-name="D" unicode="D" horiz-adv-x="1441" 
d="M1092 809q0 186 -83 299t-255 121l-99 4l-184 -1159l104 8q141 10 246 80q179 121 244 402q27 118 27 245zM758 1305q291 -1 472 -141t181 -410q0 -336 -228 -545t-640 -209h-563l6 35l186 49l180 1137l-170 49l6 35h570z" />
    <glyph glyph-name="E" unicode="E" horiz-adv-x="1314" 
d="M602 692q102 0 165 45q62 45 120 150l26 49h41l-90 -567h-37l-12 61q-19 96 -69 137t-148 41h-41l-86 -536l246 12q150 8 272 135l213 215l37 -14l-106 -420h-1153l6 35l186 49l180 1137l-170 49l6 35h1069l-10 -441l-41 -10l-147 225q-55 86 -103 114t-147 34l-154 8
l-86 -543h33z" />
    <glyph glyph-name="F" unicode="F" horiz-adv-x="1234" 
d="M604 662q102 0 165 45q62 45 120 149l26 49h41l-90 -567h-37l-12 61q-18 95 -68 137t-149 42h-49l-78 -494l182 -49l-6 -35h-669l6 35l186 49l180 1137l-170 49l6 35h1059l-10 -441l-41 -10l-147 225q-55 86 -101 114t-143 34l-150 8l-90 -573h39z" />
    <glyph glyph-name="G" unicode="G" horiz-adv-x="1415" 
d="M637 -33q-250 1 -398 149t-149 410q0 340 224 574t554 235q193 0 338 -69l97 75h38l-71 -497l-51 -4q-91 227 -179 323q-88 97 -210 97t-222 -117t-143 -275t-43 -319q0 -231 116 -345t281 -114q39 0 70 6l74 422l-177 51l7 33h596l-7 -33l-133 -51l-84 -528l-35 -8
l-163 100q-156 -115 -330 -115z" />
    <glyph glyph-name="H" unicode="H" horiz-adv-x="1591" 
d="M-20 0l6 35l186 49l180 1137l-170 49l6 35h641l-6 -35l-170 -49l-80 -498h523l78 498l-154 49l6 35h641l-6 -35l-186 -49l-181 -1137l170 -49l-6 -35h-641l6 35l170 49l86 547h-520l-86 -547l154 -49l-6 -35h-641z" />
    <glyph glyph-name="I" unicode="I" horiz-adv-x="811" 
d="M0 0l6 35l187 49l180 1137l-170 49l6 35h657l-6 -35l-186 -49l-180 -1137l170 -49l-7 -35h-657z" />
    <glyph glyph-name="J" unicode="J" horiz-adv-x="1073" 
d="M313 -39q-166 0 -250 67q-83 67 -83 155t47 140t118 52q115 -1 156 -107t-29 -221q126 5 180 69t85 265l133 840l-181 49l7 35h667l-6 -35l-186 -49l-121 -760q-44 -264 -174 -382t-363 -118z" />
    <glyph glyph-name="K" unicode="K" horiz-adv-x="1404" 
d="M-20 0l6 35l186 49l180 1137l-170 49l6 35h639l-6 -35l-168 -49l-84 -529h111l424 498l-125 88l4 27h520l-6 -35l-215 -86l-422 -412l352 -666l127 -71l-6 -35h-565l6 35l111 51l-240 512h-90l-82 -514l150 -49l-7 -35h-636z" />
    <glyph glyph-name="L" unicode="L" horiz-adv-x="1218" 
d="M-20 0l6 35l186 49l180 1137l-170 49l6 35h668l-6 -35l-197 -51l-182 -1147l174 10q154 8 275 147l198 226l37 -15l-90 -440h-1085z" />
    <glyph glyph-name="M" unicode="M" horiz-adv-x="1841" 
d="M-8 0l4 35l186 67l176 1115l-165 53l6 35h538l183 -875h8l458 875h531l-6 -35l-187 -49l-180 -1137l170 -49l-6 -35h-641l6 35l170 49l170 1071h-14l-617 -1155h-59l-272 1153h-15l-166 -1051l160 -67l-4 -35h-434z" />
    <glyph glyph-name="N" unicode="N" horiz-adv-x="1503" 
d="M1102 -12l-135 213l-535 827h-14l-146 -919l166 -74l-4 -35h-440l4 35l186 74l172 1087l-149 74l6 35h405l551 -881h15l123 772l-168 74l4 35h442l-4 -35l-186 -74l-193 -1208h-100z" />
    <glyph glyph-name="O" unicode="O" horiz-adv-x="1427" 
d="M420 426q0 -199 68 -292t180 -93q110 0 190 95q80 96 122 236q81 270 82 488t-68 310t-179 94q-110 0 -190 -96q-128 -153 -185 -506q-20 -131 -20 -236zM674 -31q-254 0 -417 158t-163 422q0 332 206 559t509 227q254 1 417 -157t163 -422q0 -332 -206 -560t-509 -227z
" />
    <glyph glyph-name="P" unicode="P" horiz-adv-x="1259" 
d="M977 991q0 227 -217 238l-105 4l-96 -615l96 3q158 2 240 103t82 267zM774 1305q512 0 512 -340q0 -207 -154 -322t-364 -115q-111 0 -221 19l-74 -463l191 -49l-7 -35h-677l6 35l186 49l180 1137l-170 49l6 35h586z" />
    <glyph glyph-name="Q" unicode="Q" horiz-adv-x="1427" 
d="M420 426q0 -199 68 -292t180 -93q110 0 190 95q80 96 122 236q81 270 82 488t-68 310t-179 94q-110 0 -190 -96q-128 -153 -185 -506q-20 -131 -20 -236zM885 -352q-209 0 -277 69q-49 49 -82 191l-18 82q-188 47 -301 195t-113 364q0 332 206 559t509 227
q254 1 417 -157t163 -436t-165 -496q-165 -217 -421 -264q51 -158 108 -205q82 -68 209 -99l-6 -30h-229z" />
    <glyph glyph-name="R" unicode="R" horiz-adv-x="1378" 
d="M983 1004q0 100 -60 160t-180 65l-88 4l-92 -576l111 7q309 18 309 340zM793 1305q508 0 507 -312q0 -170 -129 -260t-331 -106l-2 -11q142 -24 206 -82t102 -205t77 -207t133 -87l-8 -35h-234q-125 0 -176 49t-82 160l-57 211q-29 100 -76 134t-145 34h-25l-80 -504
l166 -49l-6 -35h-653l6 35l186 49l180 1137l-170 49l6 35h605z" />
    <glyph glyph-name="S" unicode="S" horiz-adv-x="1103" 
d="M542 47q118 -1 173 61t55 151t-53 141t-171 118t-163 96q-125 82 -162 174q-20 53 -20 123q0 195 141 310t318 115t278 -81l78 70h45l-21 -430l-51 -6q-90 217 -162 293t-169 76t-150 -62q-53 -61 -53 -144t51 -131q51 -49 168 -113t162 -94t94 -77q88 -84 90 -229
q0 -203 -143 -321t-346 -118t-334 105l-93 -94h-45l33 471l55 4q97 -236 187 -322t208 -86z" />
    <glyph glyph-name="T" unicode="T" horiz-adv-x="1335" 
d="M252 0l6 35l193 49l184 1151l-37 -2q-70 -4 -117 -35t-112 -108l-215 -252l-41 10l110 457h1131l-19 -457l-49 -10l-139 252q-41 76 -82 108t-102 35l-27 2l-184 -1151l180 -49l-6 -35h-674z" />
    <glyph glyph-name="U" unicode="U" horiz-adv-x="1439" 
d="M711 -31q-293 1 -417 143t-83 398l113 711l-170 49l6 35h663l-6 -35l-192 -49l-115 -729q-63 -401 270 -402q158 0 248 96t115 242l125 774l-138 68l7 35h385l-6 -35l-160 -68l-129 -815q-29 -178 -167 -298t-349 -120z" />
    <glyph glyph-name="V" unicode="V" horiz-adv-x="1333" 
d="M559 -12l-299 1222l-151 60l6 35h635l-7 -35l-159 -49l166 -854l434 833l-125 70l6 35h412l-7 -35l-151 -82l-684 -1200h-76z" />
    <glyph glyph-name="W" unicode="W" horiz-adv-x="1884" 
d="M451 -12l-191 1222l-154 60l7 35h616l-6 -35l-145 -49l90 -822l329 617l-39 194l-124 60l6 35h577l-6 -35l-145 -49l125 -815l329 792l-123 72l7 35h407l-6 -35l-154 -84l-573 -1198h-80l-178 903l-498 -903h-71z" />
    <glyph glyph-name="X" unicode="X" horiz-adv-x="1413" 
d="M-29 0l6 35l158 55l475 524l-303 609l-139 47l6 35h627l-6 -35l-152 -43l180 -428l316 415l-144 56l6 35h469l-6 -35l-157 -56l-449 -493l318 -639l139 -47l-6 -35h-627l6 35l152 43l-195 459l-342 -447l143 -55l-6 -35h-469z" />
    <glyph glyph-name="Y" unicode="Y" horiz-adv-x="1294" 
d="M248 0l6 35l188 63l76 484l-274 616l-148 72l6 35h643l-6 -35l-153 -62l202 -524l347 522l-125 66l6 33h432l-8 -39l-158 -68l-461 -600l-78 -500l170 -63l-6 -35h-659z" />
    <glyph glyph-name="Z" unicode="Z" horiz-adv-x="1263" 
d="M-41 0l-4 20l960 1199l-264 -7q-78 -2 -141 -36t-156 -132l-159 -163l-31 10l100 414h1032l4 -21l-952 -1202l328 6q78 2 137 40t129 120l180 211l31 -10l-100 -449h-1094z" />
    <glyph glyph-name="bracketleft" unicode="[" horiz-adv-x="661" 
d="M63 -360l299 1878h570l-12 -78h-342l-275 -1723h342l-12 -77h-570z" />
    <glyph glyph-name="backslash" unicode="\" horiz-adv-x="729" 
d="M711 -432l-408 958l-420 957l80 35l408 -961l420 -954z" />
    <glyph glyph-name="bracketright" unicode="]" horiz-adv-x="661" 
d="M-238 -360l13 77h342l274 1723h-342l12 78h570l-299 -1878h-570z" />
    <glyph glyph-name="asciicircum" unicode="^" horiz-adv-x="653" 
d="M152 1038l-27 27l344 375h43l199 -375l-35 -27l-221 152z" />
    <glyph glyph-name="underscore" unicode="_" horiz-adv-x="901" 
d="M-70 0v92h901v-92h-901z" />
    <glyph glyph-name="grave" unicode="`" horiz-adv-x="487" 
d="M479 1049q-186 181 -222 241t-26 109t54 74q39 25 85 7t64 -67q43 -115 72 -348z" />
    <glyph glyph-name="a" unicode="a" horiz-adv-x="1071" 
d="M453 152q66 0 151 67l84 504q-70 115 -160 115q-55 0 -99 -52q-78 -91 -108 -285q-13 -79 -14 -147q1 -202 146 -202zM303 -23q-119 -1 -193 87t-73 231q0 239 199 451t430 212q90 0 168 -38l131 49l18 -6l-123 -738q-14 -79 20 -101t169 -26l4 -14q-162 -106 -310 -107
q-75 0 -113 43t-40 119l-12 6q-66 -88 -128 -128t-147 -40z" />
    <glyph glyph-name="b" unicode="b" horiz-adv-x="1050" 
d="M511 98q85 0 141 89q95 152 98 395q0 203 -160 202q-74 0 -150 -43l-90 -528q76 -115 161 -115zM387 -23q-88 0 -179 30t-136 69l207 1227l-127 100v20l407 99l8 -6l-114 -691l8 -8q71 72 137 107t152 34q122 0 196 -86t74 -236t-91 -304t-239 -254t-303 -101z" />
    <glyph glyph-name="c" unicode="c" horiz-adv-x="880" 
d="M440 -23q-182 0 -283 108t-102 273q0 250 165 425t382 175q125 0 201 -58t76 -132t-36 -114q-37 -40 -99 -40t-102 42t-40 113t25 130q-105 -11 -207 -159t-103 -343q-1 -129 61 -197t173 -67q111 0 240 84l18 -20q-150 -220 -369 -220z" />
    <glyph glyph-name="d" unicode="d" horiz-adv-x="1081" 
d="M459 152q68 0 153 67l86 504q-76 115 -163 115q-59 0 -105 -52q-80 -89 -111 -285q-12 -79 -12 -147q0 -202 152 -202zM309 -23q-123 0 -197 86t-75 232q0 239 199 451t430 212q33 0 69 -6l60 351l-127 100v20l407 99l8 -6l-213 -1291q-14 -79 20 -101t169 -26l4 -14
q-162 -106 -309 -107q-74 0 -113 43t-41 119l-12 6q-66 -88 -128 -128t-151 -40z" />
    <glyph glyph-name="e" unicode="e" horiz-adv-x="911" 
d="M641 797q0 37 -18 59t-52 23q-80 0 -158 -117t-94 -262q166 10 244 98t78 199zM47 348q0 252 177 431t403 179q117 0 189 -59t71 -147q0 -131 -132 -220q-133 -88 -440 -90q-9 -309 229 -309q118 0 273 94l14 -18q-67 -107 -177 -169t-242 -63q-174 0 -270 108
q-95 108 -95 263z" />
    <glyph glyph-name="f" unicode="f" horiz-adv-x="647" 
d="M-68 -449q-92 0 -152 43q-60 44 -60 102t35 97q36 39 91 39q139 0 211 -170q39 66 78 344l109 799h-217l4 35l237 102q43 256 203 416t338 160q86 0 148 -46q63 -46 63 -107q0 -60 -37 -99t-96 -39t-121 47q-61 47 -102 137q-49 -47 -81 -137t-67 -320l-4 -26h268
l-20 -123h-264l-78 -576q-53 -383 -238 -567q-111 -111 -248 -111z" />
    <glyph glyph-name="g" unicode="g" horiz-adv-x="1003" 
d="M474 -373q150 0 151 125q1 72 -99 128t-305 122q-71 -58 -71 -154t87 -158t237 -63zM440 344q121 0 162 259q8 56 8 104q0 178 -114 178q-45 0 -81 -40q-35 -40 -61 -130t-26 -193q-1 -178 112 -178zM840 -129q0 -131 -136 -225t-348 -95q-213 0 -339 75
q-126 74 -126 176t85 163t237 80l88 242q-109 25 -170 97t-61 179q0 162 134 279q134 116 317 116t276 -102q98 156 209 156q53 0 86 -33q32 -33 32 -83t-30 -84t-69 -34q-38 0 -66 22t-39 60l-99 -33q45 -68 45 -157q0 -162 -134 -279t-312 -117q-29 0 -43 2q-6 -43 13 -60
t112 -50q206 -74 272 -140t66 -155z" />
    <glyph glyph-name="h" unicode="h" horiz-adv-x="1091" 
d="M776 -23q-146 0 -145 140q0 41 14 108l66 328q58 219 -107 219q-78 0 -168 -53l-121 -719h-254l218 1303l-127 100v20l407 99l8 -6l-121 -730l9 -6q184 178 336 178q246 0 178 -344l-76 -389q-15 -79 19 -101t169 -26l4 -14q-163 -107 -309 -107z" />
    <glyph glyph-name="i" unicode="i" horiz-adv-x="602" 
d="M282 -23q-122 1 -155 59t-8 189l102 525l-133 100v20l422 99l8 -6l-141 -732q-17 -81 15 -105t179 -28l4 -14q-171 -107 -293 -107zM408 1090q-64 0 -99 38t-35 109q0 73 52 137t116 64t99 -38t35 -110t-52 -136t-116 -64z" />
    <glyph glyph-name="j" unicode="j" horiz-adv-x="593" 
d="M-92 -449q-86 0 -141 42q-55 41 -55 101t35 99q36 39 91 39q145 0 205 -170q43 55 86 352l107 736l-130 100v20l408 99l8 -6l-108 -740q-29 -197 -71 -319t-134 -213q-139 -140 -301 -140zM426 1090q-64 0 -100 38q-35 38 -35 109q0 73 51 137q52 64 116 64t99 -38
t35 -110t-51 -136t-115 -64z" />
    <glyph glyph-name="k" unicode="k" horiz-adv-x="993" 
d="M729 -23q-67 0 -101 36t-57 126q-45 186 -77 239q-33 52 -105 64l-74 -442h-254l218 1303l-127 100v20l407 99l8 -6l-168 -1016q193 47 312 162q-49 61 -49 133q0 73 42 119t106 46t102 -42q38 -43 38 -101q0 -90 -81 -170t-300 -149v-9q139 -16 197 -120q33 -57 72 -199
q10 -45 43 -58t131 -14l4 -14q-135 -107 -287 -107z" />
    <glyph glyph-name="l" unicode="l" horiz-adv-x="579" 
d="M250 -23q-104 1 -136 59t-10 189l181 1078l-127 100v20l407 99l8 -6l-213 -1285q-14 -81 17 -105t172 -28l4 -14q-162 -107 -303 -107z" />
    <glyph glyph-name="m" unicode="m" horiz-adv-x="1622" 
d="M1308 -23q-146 0 -147 140q0 41 15 108l65 328q23 119 0 169t-93 50t-161 -53l-121 -719h-254l93 553q20 123 1 171q-18 48 -88 48t-159 -53l-121 -719h-256l127 750l-127 100v20l397 99l8 -6l-38 -193l8 -6q201 195 352 194q76 0 120 -51t48 -137l8 -6q201 195 352 194
q105 0 149 -93t13 -251l-76 -389q-14 -75 17 -99t172 -28l4 -14q-162 -107 -308 -107z" />
    <glyph glyph-name="n" unicode="n" horiz-adv-x="1114" 
d="M800 -23q-146 0 -147 140q0 41 15 108l65 328q58 219 -106 219q-78 0 -168 -53l-121 -719h-254l125 750l-127 100v20l397 99l8 -6l-38 -193l8 -6q201 195 356 194q246 0 178 -344l-76 -389q-14 -79 20 -101t169 -26l4 -14q-162 -107 -308 -107z" />
    <glyph glyph-name="o" unicode="o" horiz-adv-x="1052" 
d="M336 312q0 -134 42 -194t108 -61q66 0 120 89q55 89 83 216t28 261q0 135 -42 195t-108 60t-121 -88q-54 -88 -82 -216t-28 -262zM449 -23q-189 -1 -291 99t-103 289q0 237 165 415t384 178q188 0 290 -99t103 -288q-1 -238 -165 -416t-383 -178z" />
    <glyph glyph-name="p" unicode="p" horiz-adv-x="1064" 
d="M537 98q59 0 105 52q80 89 110 285q12 79 12 147q0 203 -156 202q-63 0 -147 -53l-88 -518q76 -115 164 -115zM784 958q104 0 177 -87q74 -87 73 -230q0 -238 -198 -451t-430 -213q-33 0 -70 7l-51 -306l151 -75l-4 -27h-557l6 27l150 78l178 1069l-127 100v20l397 99
l8 -6l-36 -179l8 -6q77 94 149 137t176 43z" />
    <glyph glyph-name="q" unicode="q" horiz-adv-x="1052" 
d="M463 152q70 0 145 43l90 528q-76 115 -163 115q-59 0 -105 -52q-80 -89 -111 -285q-12 -79 -12 -147q0 -202 156 -202zM37 295q0 239 199 451t430 212q90 0 178 -38l131 49l18 -6l-215 -1285l131 -75l-4 -27h-557l6 27l170 78l72 430l-8 8q-140 -141 -272 -141t-206 86
q-74 88 -73 231z" />
    <glyph glyph-name="r" unicode="r" horiz-adv-x="831" 
d="M733 958q70 0 109 -38t39 -102q0 -62 -42 -111t-104 -50q-98 0 -145 99q-80 -29 -144 -111l-108 -645h-254l125 750l-127 100v20l397 99l8 -6l-51 -258l8 -7q141 260 289 260z" />
    <glyph glyph-name="s" unicode="s" horiz-adv-x="833" 
d="M332 -23q-138 -1 -230 63t-92 161q0 61 37 101t99 40t96 -67q35 -67 6 -169q70 -51 162 -51q129 0 129 111q0 88 -129 164l-84 49q-102 59 -152 119t-49 143q0 129 107 223q108 94 282 94q129 0 204 -54t75 -124t-33 -106q-32 -35 -92 -35t-102 61t-40 152q-43 31 -92 31
t-78 -37t-28 -86q0 -78 125 -148l88 -49q111 -61 159 -123t48 -141q0 -133 -110 -227t-306 -95z" />
    <glyph glyph-name="t" unicode="t" horiz-adv-x="700" 
d="M328 -18q-146 0 -185 72t-12 227l88 524h-153l4 31l241 192l205 207l27 -8l-49 -299h268l-21 -123h-268l-84 -500q-19 -111 15 -145t161 -33q45 0 113 6v-35q-204 -116 -350 -116z" />
    <glyph glyph-name="u" unicode="u" horiz-adv-x="1155" 
d="M311 -23q-248 0 -182 345l84 428l-127 100v20l408 99l8 -6l-115 -580q-59 -213 111 -213q86 0 178 57l100 523l-133 100v20l418 99l8 -6l-143 -736q-14 -79 16 -101t172 -28l4 -14q-162 -106 -309 -107q-76 1 -113 47t-28 136l-13 8q-190 -191 -344 -191z" />
    <glyph glyph-name="v" unicode="v" horiz-adv-x="1005" 
d="M163 756q-36 0 -140 -37l-13 16q178 223 320 223q94 0 137 -90q70 -150 94 -622l8 -6q168 176 238 372q-96 80 -96 191q0 63 42 109q41 46 105 46t102 -45t37 -125q1 -136 -151 -338t-484 -505l-55 28l31 88q-20 356 -92 605q-14 46 -30 68t-53 22z" />
    <glyph glyph-name="w" unicode="w" horiz-adv-x="1476" 
d="M167 756q-36 0 -140 -37l-13 16q178 223 316 223q90 0 133 -90q29 -63 55 -236t33 -390l8 -6q131 147 203 286q-49 297 -57 355l233 81h23q43 -397 86 -718l8 -7q172 199 225 375q-51 33 -81 87t-30 114q0 61 42 105q41 44 105 44t104 -47t40 -129q0 -283 -596 -837
l-53 28l33 97q-27 147 -60 321q-147 -190 -426 -446l-55 28l33 97q-18 360 -86 596q-14 46 -30 68t-53 22z" />
    <glyph glyph-name="x" unicode="x" horiz-adv-x="1019" 
d="M588 627q127 336 282 336q76 0 120 -42q44 -41 44 -103t-38 -105t-99 -43q-94 0 -139 82q-55 -27 -140 -199q111 -377 194 -410q40 -16 153 -2l6 -14q-143 -150 -285 -150q-90 0 -140 71t-102 300l-8 2q-72 -197 -144 -287t-151 -90q-80 0 -124 42q-44 41 -44 103t38 105
t100 43q94 0 139 -82q68 35 158 240q-46 160 -96 257t-87 113t-149 1l-8 14q143 150 280 149q92 0 137 -61t95 -268z" />
    <glyph glyph-name="y" unicode="y" horiz-adv-x="1038" 
d="M178 -449q-90 1 -142 53t-52 118t34 109q35 42 100 42q64 0 102 -60t38 -153q49 27 112 95q62 69 109 153q-82 399 -223 760q-20 51 -38 70q-18 20 -55 20q-36 0 -140 -37l-13 16q180 221 309 221q94 0 148 -102q86 -160 178 -657h12q98 356 160 778h25l223 -96
q-179 -423 -280 -632q-188 -387 -353 -560q-129 -138 -254 -138z" />
    <glyph glyph-name="z" unicode="z" horiz-adv-x="919" 
d="M617 -23q-76 0 -224 56l-162 61l-200 -92l-33 29l641 649q-272 80 -391 80q-37 0 -70 -8l-2 -9q150 -39 150 -147q0 -53 -32 -86t-88 -33t-94 42t-38 104q0 102 87 222t222 120q102 0 293 -66l90 -31l186 86l31 -34l-627 -631l248 -58q76 -15 121 5t131 112l21 -8
q-84 -227 -134 -295t-126 -68z" />
    <glyph glyph-name="braceleft" unicode="{" horiz-adv-x="692" 
d="M606 -360q-250 36 -344 114t-65 269l34 235q23 154 -16 214t-182 83l8 47q147 10 205 68t84 209l47 288q31 188 151 261q121 73 377 90l-10 -54q-137 -27 -197 -89t-82 -204l-36 -233q-51 -324 -340 -367v-4q268 -57 219 -385l-27 -182q-20 -141 19 -207t163 -100z" />
    <glyph glyph-name="bar" unicode="|" horiz-adv-x="552" 
d="M227 -494l6 965l-6 965h99l-7 -965l7 -965h-99z" />
    <glyph glyph-name="braceright" unicode="}" horiz-adv-x="692" 
d="M-180 -360l10 53q137 27 197 89q59 62 82 204l36 233q51 324 340 367v4q-268 57 -219 385l27 182q20 141 -19 207t-163 100l8 54q250 -37 344 -115t65 -268l-34 -236q-23 -154 16 -214t182 -83l-8 -47q-148 -9 -206 -67t-83 -209l-47 -289q-32 -188 -152 -261t-376 -89z
" />
    <glyph glyph-name="asciitilde" unicode="~" horiz-adv-x="739" 
d="M287 772q53 0 142 -36t126 -36q63 0 96 84l39 -10q-14 -229 -176 -229q-55 0 -147 37t-129 36q-62 0 -95 -86l-41 13q37 227 185 227z" />
    <glyph glyph-name="nbspace" unicode="&#xa0;" horiz-adv-x="194" 
 />
    <glyph glyph-name="exclamdown" unicode="&#xa1;" horiz-adv-x="544" 
d="M147 -487q-156 0 -155 139q0 72 38 196t104 312t102 303l67 -12q-2 -113 1 -303t4 -280q1 -91 -9 -198q-27 -157 -152 -157zM313 594q-59 0 -101 42t-42 101t42 103t101 43q59 0 103 -43q44 -42 43 -102q1 -60 -43 -102t-103 -42z" />
    <glyph glyph-name="cent" unicode="&#xa2;" horiz-adv-x="886" 
d="M283 383q0 -166 98 -229l53 307l64 413q-90 -55 -152 -190t-63 -301zM31 342q0 231 141 402t338 206l25 156l69 -8l-24 -140h18q133 0 210 -61t77 -131t-36 -110q-36 -38 -93 -38q-94 0 -126 92t3 189q-33 4 -64 0l-127 -772q31 -8 74 -8q123 0 246 90l22 -25
q-59 -82 -156 -143t-208 -64l-27 -163l-69 6l28 162q-145 16 -233 114t-88 246z" />
    <glyph glyph-name="sterling" unicode="&#xa3;" horiz-adv-x="1114" 
d="M117 -31q-61 0 -93 34t-32 77q0 78 78 123t229 49q80 92 80 231q0 51 -10 109h-252l14 96h219q-16 98 -16 146q0 180 155 316q156 136 381 136q111 0 173 -41q63 -41 63 -103t-36 -101q-36 -37 -102 -37t-132 52t-107 146q-123 -51 -123 -280q0 -66 25 -234h301l-14 -96
h-279v-17q0 -121 -67 -199t-197 -140l-2 -15q81 8 233 -2t176 -10q84 0 127 46t82 151l43 -3q-24 -219 -92 -327t-217 -107q-117 0 -202 43t-189 133q-86 -176 -217 -176z" />
    <glyph glyph-name="currency" unicode="&#xa4;" horiz-adv-x="1142" 
d="M639 -31q-211 0 -336 130t-135 341h-152l15 92h137q4 86 25 162h-142l17 92h151q80 220 255 358t378 138q147 0 222 -69t75 -149t-39 -120q-39 -41 -100 -41q-96 0 -133 79t2 228q-131 -8 -241 -120t-161 -304h432l-16 -92h-436q-14 -96 -17 -162h432l-14 -92h-416
q23 -293 287 -293q154 0 318 134l24 -31q-178 -281 -432 -281z" />
    <glyph glyph-name="yen" unicode="&#xa5;" horiz-adv-x="1292" 
d="M229 0l7 35l215 63l36 232h-360l14 92h361l22 137h-360l14 92h316l-220 496l-149 72l4 34h631l-4 -34l-187 -62l174 -487l359 483l-156 70l4 30h461l-4 -34l-186 -84l-390 -484h338l-14 -92h-362l-23 -137h363l-15 -92h-362l-37 -232l199 -63l-7 -35h-682z" />
    <glyph glyph-name="brokenbar" unicode="&#xa6;" horiz-adv-x="552" 
d="M326 -494h-99l6 433l-6 432h99l-7 -432zM326 571h-99l6 433l-6 432h99l-7 -432z" />
    <glyph glyph-name="section" unicode="&#xa7;" horiz-adv-x="944" 
d="M295 918q0 -198 100 -384t303 -399q8 41 9 101q-1 200 -101 380t-305 392q-6 -41 -6 -90zM399 -201q-177 0 -291 88t-114 207q0 66 37 109t98 43q90 0 122 -92t-18 -185q68 -90 218 -90q182 0 235 197q-139 78 -227 139q-232 161 -301 335q-41 103 -41 228q0 238 144 417
t392 179q156 0 247 -64t91 -159q0 -57 -35 -93q-34 -36 -94 -36t-106 58t-47 171q-45 33 -131 33t-160 -52t-105 -163q137 -74 227 -135q90 -62 176 -150q171 -174 171 -442q-1 -221 -135 -382t-353 -161z" />
    <glyph glyph-name="dieresis" unicode="&#xa8;" horiz-adv-x="739" 
d="M430 1235q0 -63 -45 -111t-109 -49q-64 0 -103 42q-40 43 -40 105t45 110q46 48 110 48t103 -41t39 -104zM823 1235q1 -63 -45 -111t-110 -49q-64 0 -104 42q-40 43 -40 105t46 110t110 48t103 -41q40 -41 40 -104z" />
    <glyph glyph-name="copyright" unicode="&#xa9;" horiz-adv-x="1503" 
d="M772 291q-152 0 -253 95t-101 254q0 158 110 266t277 108q96 0 162 -33l26 37h29l18 -277l-39 -2q-33 99 -90 161t-114 63q-176 0 -176 -299q0 -150 51 -233t151 -83q41 0 70 8l131 179l27 -5l-25 -200q-102 -39 -254 -39zM778 43q248 0 424 179t176 430t-176 430
q-176 180 -424 180t-424 -180t-176 -430q0 -251 176 -430t424 -179zM778 -31q-284 0 -484 200q-200 199 -200 483t201 484t483 200t484 -200q200 -200 200 -484t-200 -484t-484 -199z" />
    <glyph glyph-name="ordfeminine" unicode="&#xaa;" horiz-adv-x="790" 
d="M444 1243q-66 -1 -106 -109t-39 -200t25 -122t70 -30t100 41l55 336q-47 84 -105 84zM268 647q-72 1 -124 61t-52 160q0 168 139 318t306 149q74 0 127 -26l102 32l12 -4l-84 -503q-10 -60 15 -76t118 -21l4 -10q-123 -80 -229 -80q-53 0 -85 32t-30 85l-12 4
q-45 -63 -90 -92t-117 -29z" />
    <glyph glyph-name="guillemotleft" unicode="&#xab;" horiz-adv-x="989" 
d="M393 61l-334 390l4 20l455 387l45 -49l-282 -346l168 -361zM756 61l-334 390l4 20l455 387l45 -49l-283 -346l168 -361z" />
    <glyph glyph-name="logicalnot" unicode="&#xac;" horiz-adv-x="1034" 
d="M963 565h-867l21 125h866z" />
    <glyph glyph-name="registered" unicode="&#xae;" horiz-adv-x="770" 
d="M526 1100q0 59 -55 63l-27 2v-127h27q25 0 40 18t15 44zM616 1114q0 -61 -84 -78v-12q59 -8 72 -57q8 -35 20 -49t42 -19v-22h-78q-51 0 -74 61l-14 43q-10 31 -49 31h-7v-99l45 -14v-22h-188v22l53 14v240l-53 16v23h201q54 0 84 -22t30 -56zM471 750q117 0 195 80
t77 198q0 119 -77 199q-78 80 -195 80t-195 -80t-78 -199t78 -199q78 -79 195 -79zM471 717q-133 0 -222 89t-89 222t89 222t222 89t222 -89t89 -222t-89 -222t-222 -89z" />
    <glyph glyph-name="macron" unicode="&#xaf;" horiz-adv-x="655" 
d="M145 1118l23 137h565l-22 -137h-566z" />
    <glyph glyph-name="degree" unicode="&#xb0;" horiz-adv-x="802" 
d="M453 778q59 0 99 112t40 250t-78 138q-59 0 -99 -112t-40 -250t78 -138zM434 721q-118 0 -186 62t-68 175q0 152 100 265t252 112q119 0 187 -62t67 -175q0 -152 -100 -264t-252 -113z" />
    <glyph glyph-name="plusminus" unicode="&#xb1;" 
d="M51 -410v2048h922v-2048h-922z" />
    <glyph glyph-name="twosuperior" unicode="&#xb2;" 
d="M51 -410v2048h922v-2048h-922z" />
    <glyph glyph-name="threesuperior" unicode="&#xb3;" 
d="M51 -410v2048h922v-2048h-922z" />
    <glyph glyph-name="acute" unicode="&#xb4;" horiz-adv-x="487" 
d="M207 1047l-25 18q94 244 176 354q35 49 86 65q52 16 90 -8q38 -26 34 -78t-46 -100q-77 -83 -315 -251z" />
    <glyph glyph-name="mu" unicode="&#xb5;" horiz-adv-x="1034" 
d="M618 616l224 -299l-99 -73l-215 299l-321 -260l-70 88l326 260l-223 299l98 74l215 -299l321 260l70 -88z" />
    <glyph glyph-name="paragraph" unicode="&#xb6;" horiz-adv-x="1497" 
d="M846 -102l211 4l225 1413l-209 4zM905 -170q-375 0 -581 198t-207 492q0 371 284 619q285 248 715 247h498l-4 -32l-234 -39l-225 -1413l223 -37l-6 -35h-463z" />
    <glyph glyph-name="periodcentered" unicode="&#xb7;" horiz-adv-x="473" 
d="M264 506q-59 0 -102 42t-43 102t43 102t102 43q60 0 102 -42q42 -43 42 -103t-42 -102t-102 -42z" />
    <glyph glyph-name="cedilla" unicode="&#xb8;" horiz-adv-x="577" 
d="M289 -332q0 -88 -70 -150t-161 -61q-91 0 -142 37t-51 79t21 66q22 23 56 23t53 -22t19 -58q0 -35 -28 -67q80 -21 120 26q29 33 29 87t-33 87q-32 33 -76 33t-69 -8l-25 24l377 332l37 -43l-221 -192q164 -39 164 -193z" />
    <glyph glyph-name="onesuperior" unicode="&#xb9;" 
d="M51 -410v2048h922v-2048h-922z" />
    <glyph glyph-name="ordmasculine" unicode="&#xba;" horiz-adv-x="755" 
d="M424 709q68 0 113 125q45 124 45 280t-88 156q-68 0 -113 -125t-45 -281t88 -155zM799 1053q1 -172 -115 -290t-262 -118t-224 76q-79 76 -79 205q-1 172 115 290t262 117q146 0 224 -76q79 -76 79 -204z" />
    <glyph glyph-name="guillemotright" unicode="&#xbb;" horiz-adv-x="989" 
d="M104 61l-45 50l283 346l-168 360l55 41l334 -389l-4 -20zM467 61l-45 50l283 346l-168 360l55 41l334 -389l-4 -20z" />
    <glyph glyph-name="onequarter" unicode="&#xbc;" 
d="M51 -410v2048h922v-2048h-922z" />
    <glyph glyph-name="onehalf" unicode="&#xbd;" 
d="M51 -410v2048h922v-2048h-922z" />
    <glyph glyph-name="threequarters" unicode="&#xbe;" 
d="M51 -410v2048h922v-2048h-922z" />
    <glyph glyph-name="questiondown" unicode="&#xbf;" horiz-adv-x="782" 
d="M412 485q98 0 167 -57t69 -164t-81 -170q-43 -35 -79 -55t-132 -67q-96 -46 -151 -94t-55 -124t48 -118t122 -42t120 29q-26 47 -26 108t38 107t99 47q61 0 104 -39t43 -102q0 -102 -93 -166t-260 -63q-167 0 -289 96t-122 242t94 220q46 36 87 55t128 51t132 63t45 88
q0 109 -195 106l-2 21q91 28 189 28zM494 883q59 0 102 -43q43 -42 43 -102t-43 -102t-102 -42t-102 42q-42 42 -42 101t42 103q43 43 102 43z" />
    <glyph glyph-name="Agrave" unicode="&#xc0;" horiz-adv-x="1302" 
d="M412 516h321l-86 459h-4zM-90 0l6 35l152 67l661 1215h133l268 -1223l154 -59l-6 -35h-639l6 35l170 49l-65 352h-379l-170 -338l153 -63l-6 -35h-438zM887 1430q-187 182 -223 241t-26 109t54 73q39 25 85 8t65 -67q43 -115 71 -348z" />
    <glyph glyph-name="Aacute" unicode="&#xc1;" horiz-adv-x="1302" 
d="M412 516h321l-86 459h-4zM-90 0l6 35l152 67l661 1215h133l268 -1223l154 -59l-6 -35h-639l6 35l170 49l-65 352h-379l-170 -338l153 -63l-6 -35h-438zM778 1427l-24 19q94 244 176 354q35 50 86 66t89 -10t35 -78t-46 -99q-78 -84 -316 -252z" />
    <glyph glyph-name="Acircumflex" unicode="&#xc2;" horiz-adv-x="1302" 
d="M412 516h321l-86 459h-4zM-90 0l6 35l152 67l661 1215h133l268 -1223l154 -59l-6 -35h-639l6 35l170 49l-65 352h-379l-170 -338l153 -63l-6 -35h-438zM543 1413l-31 31l348 371h43l195 -379l-31 -23l-221 152z" />
    <glyph glyph-name="Atilde" unicode="&#xc3;" horiz-adv-x="1302" 
d="M412 516h321l-86 459h-4zM-90 0l6 35l152 67l661 1215h133l268 -1223l154 -59l-6 -35h-639l6 35l170 49l-65 352h-379l-170 -338l153 -63l-6 -35h-438zM1180 1739q-53 -275 -201 -275q-74 0 -170 42t-141 42q-72 0 -123 -98l-43 12q54 277 201 277q75 0 169 -43t140 -43
q72 0 123 98z" />
    <glyph glyph-name="Adieresis" unicode="&#xc4;" horiz-adv-x="1302" 
d="M412 516h321l-86 459h-4zM-90 0l6 35l152 67l661 1215h133l268 -1223l154 -59l-6 -35h-639l6 35l170 49l-65 352h-379l-170 -338l153 -63l-6 -35h-438zM780 1616q0 -64 -44 -112t-108 -48t-105 42q-40 42 -40 104t45 111q46 48 110 48t103 -41t39 -104zM1174 1616
q0 -64 -46 -112t-110 -48t-104 42t-40 104t46 111q46 48 110 48t104 -41t40 -104z" />
    <glyph glyph-name="Aring" unicode="&#xc5;" horiz-adv-x="1302" 
d="M412 516h321l-86 459h-4zM799 1329q47 -1 69 59t23 147q0 87 -62 87q-47 0 -69 -59t-22 -147t61 -87zM604 1454q0 88 60 153t159 65q97 0 149 -50q52 -49 52 -123t-41 -131t-115 -80l262 -1194l154 -59l-6 -35h-639l6 35l170 49l-65 352h-379l-170 -338l153 -63l-6 -35
h-438l6 35l152 67l649 1190q-113 41 -113 162z" />
    <glyph glyph-name="AE" unicode="&#xc6;" horiz-adv-x="1935" 
d="M532 565h336l90 565h-4zM1223 692q102 0 165 45q62 45 119 150l27 49h41l-90 -567h-37l-12 61q-18 96 -68 137t-149 41h-41l-86 -536l245 12q150 8 273 135l213 215l37 -14l-107 -420h-1153l6 35l187 49l63 408h-379l-295 -396l146 -61l-6 -35h-437l6 35l154 67l895 1115
l-168 53l6 35h1100l-10 -441l-41 -10l-148 225q-55 86 -102 114t-147 34l-154 8l-86 -543h33z" />
    <glyph glyph-name="Ccedilla" unicode="&#xc7;" horiz-adv-x="1302" 
d="M791 -332q0 -88 -70 -150t-161 -61q-91 0 -142 37t-51 79t21 66q22 23 56 23t53 -22q19 -23 19 -58t-29 -67q79 -24 121 26q29 33 29 87t-33 87t-77 33t-68 -8l-25 24l238 209q-256 23 -420 170t-164 426q0 326 221 546t547 220q197 0 336 -67l92 73h37l-59 -475l-52 -4
q-92 242 -167 320t-189 78t-200 -71t-134 -183q-102 -234 -101 -482t104 -358t261 -109q61 0 113 15l279 370l32 -8l-71 -389q-158 -76 -385 -76l-125 -108q164 -39 164 -193z" />
    <glyph glyph-name="Egrave" unicode="&#xc8;" horiz-adv-x="1314" 
d="M602 692q102 0 165 45q62 45 120 150l26 49h41l-90 -567h-37l-12 61q-19 96 -69 137t-148 41h-41l-86 -536l246 12q150 8 272 135l213 215l37 -14l-106 -420h-1153l6 35l186 49l180 1137l-170 49l6 35h1069l-10 -441l-41 -10l-147 225q-55 86 -103 114t-147 34l-154 8
l-86 -543h33zM860 1430q-186 182 -222 241t-26 109t54 73q39 25 85 8t64 -67q43 -115 72 -348z" />
    <glyph glyph-name="Eacute" unicode="&#xc9;" horiz-adv-x="1314" 
d="M602 692q102 0 165 45q62 45 120 150l26 49h41l-90 -567h-37l-12 61q-19 96 -69 137t-148 41h-41l-86 -536l246 12q150 8 272 135l213 215l37 -14l-106 -420h-1153l6 35l186 49l180 1137l-170 49l6 35h1069l-10 -441l-41 -10l-147 225q-55 86 -103 114t-147 34l-154 8
l-86 -543h33zM731 1427l-24 19q94 244 176 354q35 50 86 66t89 -10t35 -78t-46 -99q-78 -84 -316 -252z" />
    <glyph glyph-name="Ecircumflex" unicode="&#xca;" horiz-adv-x="1314" 
d="M602 692q102 0 165 45q62 45 120 150l26 49h41l-90 -567h-37l-12 61q-19 96 -69 137t-148 41h-41l-86 -536l246 12q150 8 272 135l213 215l37 -14l-106 -420h-1153l6 35l186 49l180 1137l-170 49l6 35h1069l-10 -441l-41 -10l-147 225q-55 86 -103 114t-147 34l-154 8
l-86 -543h33zM553 1434l-31 30l348 371h43l195 -379l-31 -22l-221 151z" />
    <glyph glyph-name="Edieresis" unicode="&#xcb;" horiz-adv-x="1314" 
d="M602 692q102 0 165 45q62 45 120 150l26 49h41l-90 -567h-37l-12 61q-19 96 -69 137t-148 41h-41l-86 -536l246 12q150 8 272 135l213 215l37 -14l-106 -420h-1153l6 35l186 49l180 1137l-170 49l6 35h1069l-10 -441l-41 -10l-147 225q-55 86 -103 114t-147 34l-154 8
l-86 -543h33zM782 1616q0 -64 -44 -112t-108 -48t-105 42q-40 42 -40 104t45 111q46 48 110 48t103 -41t39 -104zM1176 1616q0 -64 -46 -112t-110 -48t-104 42t-40 104t47 111q46 48 109 48q64 0 104 -41t40 -104z" />
    <glyph glyph-name="Igrave" unicode="&#xcc;" horiz-adv-x="811" 
d="M0 0l6 35l187 49l180 1137l-170 49l6 35h657l-6 -35l-186 -49l-180 -1137l170 -49l-7 -35h-657zM569 1430q-186 182 -222 241q-35 59 -25 109t53 73q39 25 85 8t64 -67q43 -115 72 -348z" />
    <glyph glyph-name="Iacute" unicode="&#xcd;" horiz-adv-x="811" 
d="M0 0l6 35l187 49l180 1137l-170 49l6 35h657l-6 -35l-186 -49l-180 -1137l170 -49l-7 -35h-657zM487 1427l-24 19q94 244 176 354q35 50 86 66t89 -10t35 -78t-46 -99q-78 -84 -316 -252z" />
    <glyph glyph-name="Icircumflex" unicode="&#xce;" horiz-adv-x="811" 
d="M0 0l6 35l187 49l180 1137l-170 49l6 35h657l-6 -35l-186 -49l-180 -1137l170 -49l-7 -35h-657zM297 1434l-31 30l348 371h43l195 -379l-31 -22l-221 151z" />
    <glyph glyph-name="Idieresis" unicode="&#xcf;" horiz-adv-x="811" 
d="M0 0l6 35l187 49l180 1137l-170 49l6 35h657l-6 -35l-186 -49l-180 -1137l170 -49l-7 -35h-657zM541 1616q0 -64 -45 -112q-44 -48 -108 -48t-104 42t-40 104t45 111q45 48 109 48t104 -41t39 -104zM934 1616q0 -64 -46 -112t-110 -48t-103 42q-40 42 -40 104t46 111
q45 48 109 48t104 -41t40 -104z" />
    <glyph glyph-name="Eth" unicode="&#xd0;" horiz-adv-x="1441" 
d="M1092 809q0 186 -83 299t-255 121l-99 4l-82 -516h238l-16 -92h-236l-88 -551l104 8q141 10 246 80q179 121 244 402q27 118 27 245zM758 1305q291 -1 472 -141t181 -410q0 -336 -228 -545t-640 -209h-563l6 35l186 49l86 541h-176l16 92h174l80 504l-170 49l6 35h570z
" />
    <glyph glyph-name="Ntilde" unicode="&#xd1;" horiz-adv-x="1503" 
d="M1102 -12l-135 213l-535 827h-14l-146 -919l166 -74l-4 -35h-440l4 35l186 74l172 1087l-149 74l6 35h405l551 -881h15l123 772l-168 74l4 35h442l-4 -35l-186 -74l-193 -1208h-100zM1245 1739q-53 -275 -201 -275q-74 0 -170 42t-141 42q-72 0 -123 -98l-43 12
q54 277 201 277q74 0 169 -43t140 -43q72 0 123 98z" />
    <glyph glyph-name="Ograve" unicode="&#xd2;" horiz-adv-x="1427" 
d="M420 426q0 -199 68 -292t180 -93q110 0 190 95q80 96 122 236q81 270 82 488t-68 310t-179 94q-110 0 -190 -96q-128 -153 -185 -506q-20 -131 -20 -236zM674 -31q-254 0 -417 158t-163 422q0 332 206 559t509 227q254 1 417 -157t163 -422q0 -332 -206 -560t-509 -227z
M895 1430q-186 182 -222 241t-26 109t53 73q39 25 85 8t65 -67q43 -115 72 -348z" />
    <glyph glyph-name="Oacute" unicode="&#xd3;" horiz-adv-x="1427" 
d="M420 426q0 -199 68 -292t180 -93q110 0 190 95q80 96 122 236q81 270 82 488t-68 310t-179 94q-110 0 -190 -96q-128 -153 -185 -506q-20 -131 -20 -236zM674 -31q-254 0 -417 158t-163 422q0 332 206 559t509 227q254 1 417 -157t163 -422q0 -332 -206 -560t-509 -227z
M786 1427l-24 19q94 244 176 354q35 50 86 66t89 -10t35 -78t-46 -99q-78 -84 -316 -252z" />
    <glyph glyph-name="Ocircumflex" unicode="&#xd4;" horiz-adv-x="1427" 
d="M420 426q0 -199 68 -292t180 -93q110 0 190 95q80 96 122 236q81 270 82 488t-68 310t-179 94q-110 0 -190 -96q-128 -153 -185 -506q-20 -131 -20 -236zM674 -31q-254 0 -417 158t-163 422q0 332 206 559t509 227q254 1 417 -157t163 -422q0 -332 -206 -560t-509 -227z
M582 1434l-31 30l348 371h43l195 -379l-31 -22l-221 151z" />
    <glyph glyph-name="Otilde" unicode="&#xd5;" horiz-adv-x="1427" 
d="M420 426q0 -199 68 -292t180 -93q110 0 190 95q80 96 122 236q81 270 82 488t-68 310t-179 94q-110 0 -190 -96q-128 -153 -185 -506q-20 -131 -20 -236zM674 -31q-254 0 -417 158t-163 422q0 332 206 559t509 227q254 1 417 -157t163 -422q0 -332 -206 -560t-509 -227z
M1198 1739q-53 -275 -201 -275q-74 0 -170 42t-141 42q-72 0 -123 -98l-43 12q54 277 201 277q74 0 169 -43t140 -43q72 0 123 98z" />
    <glyph glyph-name="Odieresis" unicode="&#xd6;" horiz-adv-x="1427" 
d="M420 426q0 -199 68 -292t180 -93q110 0 190 95q80 96 122 236q81 270 82 488t-68 310t-179 94q-110 0 -190 -96q-128 -153 -185 -506q-20 -131 -20 -236zM674 -31q-254 0 -417 158t-163 422q0 332 206 559t509 227q254 1 417 -157t163 -422q0 -332 -206 -560t-509 -227z
M817 1616q-1 -64 -45 -112t-108 -48t-104 42t-40 104t45 111q45 48 109 48t104 -41q39 -41 39 -104zM1210 1616q0 -64 -46 -112t-108 -48q-64 0 -105 42q-40 42 -40 104t46 111q45 48 109 48t104 -41t40 -104z" />
    <glyph glyph-name="multiply" unicode="&#xd7;" horiz-adv-x="1034" 
d="M618 616l224 -299l-99 -73l-215 299l-321 -260l-70 88l326 260l-223 299l98 74l215 -299l321 260l70 -88z" />
    <glyph glyph-name="Oslash" unicode="&#xd8;" horiz-adv-x="1427" 
d="M674 41q104 0 184 95q80 96 122 236q81 270 83 507q0 53 -8 127l-619 -750q54 -215 238 -215zM809 1264q-104 0 -184 -96q-128 -153 -185 -506q-20 -131 -20 -203t2 -90l606 737q-61 158 -219 158zM809 1335q188 0 332 -92l147 178l64 -53l-144 -174q180 -160 181 -438
q0 -332 -206 -559t-509 -228q-221 0 -375 121l-141 -172l-64 53l144 174q-143 160 -144 404q0 332 206 559t509 227z" />
    <glyph glyph-name="Ugrave" unicode="&#xd9;" horiz-adv-x="1439" 
d="M711 -31q-293 1 -417 143t-83 398l113 711l-170 49l6 35h663l-6 -35l-192 -49l-115 -729q-63 -401 270 -402q158 0 248 96t115 242l125 774l-138 68l7 35h385l-6 -35l-160 -68l-129 -815q-29 -178 -167 -298t-349 -120zM985 1430q-186 182 -222 241t-26 109t54 73
q39 25 85 8t64 -67q43 -115 72 -348z" />
    <glyph glyph-name="Uacute" unicode="&#xda;" horiz-adv-x="1439" 
d="M711 -31q-293 1 -417 143t-83 398l113 711l-170 49l6 35h663l-6 -35l-192 -49l-115 -729q-63 -401 270 -402q158 0 248 96t115 242l125 774l-138 68l7 35h385l-6 -35l-160 -68l-129 -815q-29 -178 -167 -298t-349 -120zM891 1427l-25 19q94 244 176 354q35 50 86 66
q52 16 90 -10t34 -78t-46 -99q-77 -84 -315 -252z" />
    <glyph glyph-name="Ucircumflex" unicode="&#xdb;" horiz-adv-x="1439" 
d="M711 -31q-293 1 -417 143t-83 398l113 711l-170 49l6 35h663l-6 -35l-192 -49l-115 -729q-63 -401 270 -402q158 0 248 96t115 242l125 774l-138 68l7 35h385l-6 -35l-160 -68l-129 -815q-29 -178 -167 -298t-349 -120zM705 1434l-31 30l348 371h43l195 -379l-31 -22
l-221 151z" />
    <glyph glyph-name="Udieresis" unicode="&#xdc;" horiz-adv-x="1439" 
d="M711 -31q-293 1 -417 143t-83 398l113 711l-170 49l6 35h663l-6 -35l-192 -49l-115 -729q-63 -401 270 -402q158 0 248 96t115 242l125 774l-138 68l7 35h385l-6 -35l-160 -68l-129 -815q-29 -178 -167 -298t-349 -120zM911 1616q-1 -64 -45 -112t-108 -48t-104 42
t-40 104t45 111q45 48 109 48t104 -41q39 -41 39 -104zM1305 1616q0 -64 -46 -112q-45 -48 -109 -48t-104 42t-40 104t46 111q46 48 109 48t103 -41t41 -104z" />
    <glyph glyph-name="Yacute" unicode="&#xdd;" horiz-adv-x="1294" 
d="M248 0l6 35l188 63l76 484l-274 616l-148 72l6 35h643l-6 -35l-153 -62l202 -524l347 522l-125 66l6 33h432l-8 -39l-158 -68l-461 -600l-78 -500l170 -63l-6 -35h-659zM807 1427l-25 19q94 244 176 354q35 50 86 66q52 16 90 -10t34 -78t-46 -99q-77 -84 -315 -252z" />
    <glyph glyph-name="Thorn" unicode="&#xde;" horiz-adv-x="1259" 
d="M934 715q0 109 -56 171t-163 66l-105 4l-94 -604l96 2q158 2 240 102t82 259zM807 1040q207 0 321 -97t115 -245q-1 -208 -155 -322t-363 -114q-111 0 -221 19l-31 -197l195 -49l-6 -35h-682l6 35l186 49l180 1137l-170 49l6 35h682l-6 -35l-211 -49l-30 -193
q102 12 184 12z" />
    <glyph glyph-name="germandbls" unicode="&#xdf;" horiz-adv-x="1130" 
d="M-125 -449q-92 0 -153 43q-60 44 -60 102t36 97t91 39q139 0 211 -170q39 66 78 344l112 830q27 194 70 312t150 228q136 142 320 142t283 -76t99 -203t-87 -222t-282 -208q201 -157 278 -269t77 -214q0 -140 -100 -244t-238 -104q-139 0 -226 52q-87 54 -88 150
q0 57 36 94t98 37t100 -62q39 -62 16 -171q37 -25 88 -25q106 0 107 140q0 193 -359 479v20q190 164 262 293q71 129 70 266q0 89 -38 139t-105 50q-111 0 -171 -126t-91 -360l-99 -725q-53 -383 -237 -567q-111 -111 -248 -111z" />
    <glyph glyph-name="agrave" unicode="&#xe0;" horiz-adv-x="1071" 
d="M453 152q66 0 151 67l84 504q-70 115 -160 115q-55 0 -99 -52q-78 -91 -108 -285q-13 -79 -14 -147q1 -202 146 -202zM303 -23q-119 -1 -193 87t-73 231q0 239 199 451t430 212q90 0 168 -38l131 49l18 -6l-123 -738q-14 -79 20 -101t169 -26l4 -14q-162 -106 -310 -107
q-75 0 -113 43t-40 119l-12 6q-66 -88 -128 -128t-147 -40zM698 1049q-186 181 -222 241t-25 109q10 49 51 74t87 7t64 -67q43 -115 72 -348z" />
    <glyph glyph-name="aacute" unicode="&#xe1;" horiz-adv-x="1071" 
d="M453 152q66 0 151 67l84 504q-70 115 -160 115q-55 0 -99 -52q-78 -91 -108 -285q-13 -79 -14 -147q1 -202 146 -202zM303 -23q-119 -1 -193 87t-73 231q0 239 199 451t430 212q90 0 168 -38l131 49l18 -6l-123 -738q-14 -79 20 -101t169 -26l4 -14q-162 -106 -310 -107
q-75 0 -113 43t-40 119l-12 6q-66 -88 -128 -128t-147 -40zM571 1047l-24 18q94 244 176 354q35 49 86 65t89 -8q38 -26 35 -78t-46 -100q-78 -83 -316 -251z" />
    <glyph glyph-name="acircumflex" unicode="&#xe2;" horiz-adv-x="1071" 
d="M453 152q66 0 151 67l84 504q-70 115 -160 115q-55 0 -99 -52q-78 -91 -108 -285q-13 -79 -14 -147q1 -202 146 -202zM303 -23q-119 -1 -193 87t-73 231q0 239 199 451t430 212q90 0 168 -38l131 49l18 -6l-123 -738q-14 -79 20 -101t169 -26l4 -14q-162 -106 -310 -107
q-75 0 -113 43t-40 119l-12 6q-66 -88 -128 -128t-147 -40zM420 1053l-31 30l348 371h43l195 -379l-31 -22l-221 151z" />
    <glyph glyph-name="atilde" unicode="&#xe3;" horiz-adv-x="1071" 
d="M453 152q66 0 151 67l84 504q-70 115 -160 115q-55 0 -99 -52q-78 -91 -108 -285q-13 -79 -14 -147q1 -202 146 -202zM303 -23q-119 -1 -193 87t-73 231q0 239 199 451t430 212q90 0 168 -38l131 49l18 -6l-123 -738q-14 -79 20 -101t169 -26l4 -14q-162 -106 -310 -107
q-75 0 -113 43t-40 119l-12 6q-66 -88 -128 -128t-147 -40zM1038 1358q-52 -275 -200 -275q-74 0 -170 42t-142 42q-72 0 -123 -98l-43 12q54 277 201 277q74 0 169 -43t140 -43q72 0 123 98z" />
    <glyph glyph-name="adieresis" unicode="&#xe4;" horiz-adv-x="1071" 
d="M453 152q66 0 151 67l84 504q-70 115 -160 115q-55 0 -99 -52q-78 -91 -108 -285q-13 -79 -14 -147q1 -202 146 -202zM303 -23q-119 -1 -193 87t-73 231q0 239 199 451t430 212q90 0 168 -38l131 49l18 -6l-123 -738q-14 -79 20 -101t169 -26l4 -14q-162 -106 -310 -107
q-75 0 -113 43t-40 119l-12 6q-66 -88 -128 -128t-147 -40zM643 1235q0 -63 -45 -111q-44 -48 -108 -49q-64 0 -104 42q-40 43 -40 105t45 110t109 48t104 -41q39 -41 39 -104zM1036 1235q0 -63 -46 -111t-108 -49q-64 0 -105 42q-40 43 -40 105t46 110q45 48 109 48
t104 -41t40 -104z" />
    <glyph glyph-name="aring" unicode="&#xe5;" horiz-adv-x="1071" 
d="M453 152q66 0 151 67l84 504q-70 115 -160 115q-55 0 -99 -52q-78 -91 -108 -285q-13 -79 -14 -147q1 -202 146 -202zM680 1090q47 0 70 59q22 59 22 146t-61 87q-47 0 -70 -59t-23 -146t62 -87zM303 -23q-119 -1 -193 87t-73 231q0 239 199 451t430 212q90 0 168 -38
l131 49l18 -6l-123 -738q-14 -79 20 -101t169 -26l4 -14q-162 -106 -310 -107q-75 0 -113 43t-40 119l-12 6q-66 -88 -128 -128t-147 -40zM686 1040q-98 0 -149 50t-51 130q0 82 60 147t158 65t150 -50q51 -50 51 -131q-1 -83 -61 -147t-158 -64z" />
    <glyph glyph-name="ae" unicode="&#xe6;" horiz-adv-x="1464" 
d="M567 838q-63 0 -116 -54q-89 -92 -132 -302q-16 -83 -16 -150q0 -178 146 -178q80 0 167 73q-16 61 -16 121q0 209 129 375q-76 115 -162 115zM1194 797q0 37 -18 59t-52 23q-80 0 -158 -117t-94 -262q166 10 244 98t78 199zM683 958q148 0 228 -75q129 75 257 75
t200 -59t72 -147q0 -132 -132 -220t-440 -90q-8 -309 230 -309q118 0 272 94l14 -18q-68 -107 -178 -169t-241 -63q-238 0 -328 197h-12q-74 -98 -149 -147q-74 -49 -188 -49t-187 77t-73 223t97 307q96 161 253 267t305 106z" />
    <glyph glyph-name="ccedilla" unicode="&#xe7;" horiz-adv-x="880" 
d="M555 -332q0 -88 -70 -150t-161 -61q-91 0 -142 37t-51 79t22 66q21 23 55 23t53 -22t19 -58q0 -35 -28 -67q80 -21 115 19t35 94t-33 87t-77 33t-69 -8l-24 24l241 213h-10q-174 2 -274 110t-101 271q0 250 165 425t382 175q125 0 201 -58t76 -132t-36 -114
q-37 -40 -99 -40t-102 42t-40 113t25 130q-105 -11 -207 -159t-103 -343q-1 -129 61 -197t173 -67q111 0 240 84l18 -20q-109 -160 -266 -205l-152 -131q164 -39 164 -193z" />
    <glyph glyph-name="egrave" unicode="&#xe8;" horiz-adv-x="911" 
d="M641 797q0 37 -18 59t-52 23q-80 0 -158 -117t-94 -262q166 10 244 98t78 199zM47 348q0 252 177 431t403 179q117 0 189 -59t71 -147q0 -131 -132 -220q-133 -88 -440 -90q-9 -309 229 -309q118 0 273 94l14 -18q-67 -107 -177 -169t-242 -63q-174 0 -270 108
q-95 108 -95 263zM608 1049q-186 181 -222 241t-26 109t54 74q39 25 85 7t64 -67q43 -115 72 -348z" />
    <glyph glyph-name="eacute" unicode="&#xe9;" horiz-adv-x="911" 
d="M641 797q0 37 -18 59t-52 23q-80 0 -158 -117t-94 -262q166 10 244 98t78 199zM47 348q0 252 177 431t403 179q117 0 189 -59t71 -147q0 -131 -132 -220q-133 -88 -440 -90q-9 -309 229 -309q118 0 273 94l14 -18q-67 -107 -177 -169t-242 -63q-174 0 -270 108
q-95 108 -95 263zM494 1047l-25 18q94 244 176 354q35 49 86 65t89 -8q38 -26 35 -78t-46 -100q-77 -83 -315 -251z" />
    <glyph glyph-name="ecircumflex" unicode="&#xea;" horiz-adv-x="911" 
d="M641 797q0 37 -18 59t-52 23q-80 0 -158 -117t-94 -262q166 10 244 98t78 199zM47 348q0 252 177 431t403 179q117 0 189 -59t71 -147q0 -131 -132 -220q-133 -88 -440 -90q-9 -309 229 -309q118 0 273 94l14 -18q-67 -107 -177 -169t-242 -63q-174 0 -270 108
q-95 108 -95 263zM324 1053l-31 30l348 371h43l195 -379l-31 -22l-221 151z" />
    <glyph glyph-name="edieresis" unicode="&#xeb;" horiz-adv-x="911" 
d="M641 797q0 37 -18 59t-52 23q-80 0 -158 -117t-94 -262q166 10 244 98t78 199zM47 348q0 252 177 431t403 179q117 0 189 -59t71 -147q0 -131 -132 -220q-133 -88 -440 -90q-9 -309 229 -309q118 0 273 94l14 -18q-67 -107 -177 -169t-242 -63q-174 0 -270 108
q-95 108 -95 263zM553 1235q0 -63 -45 -111q-44 -48 -108 -49q-64 0 -104 42q-40 43 -40 105t45 110t109 48t104 -41q39 -41 39 -104zM946 1235q0 -63 -46 -111t-110 -49q-64 0 -103 42q-40 43 -40 105t46 110q45 48 109 48t104 -41t40 -104z" />
    <glyph glyph-name="igrave" unicode="&#xec;" horiz-adv-x="602" 
d="M282 -23q-122 1 -155 59t-8 189l102 525l-133 100v20l422 99l8 -6l-141 -732q-17 -81 15 -105t179 -28l4 -14q-171 -107 -293 -107zM426 1049q-186 181 -222 241t-26 109t51 74t87 7t65 -67q43 -115 72 -348z" />
    <glyph glyph-name="iacute" unicode="&#xed;" horiz-adv-x="602" 
d="M282 -23q-122 1 -155 59t-8 189l102 525l-133 100v20l422 99l8 -6l-141 -732q-17 -81 15 -105t179 -28l4 -14q-171 -107 -293 -107zM272 1047l-24 18q94 244 176 354q35 49 86 65t89 -8q38 -26 35 -78t-46 -100q-78 -83 -316 -251z" />
    <glyph glyph-name="icircumflex" unicode="&#xee;" horiz-adv-x="602" 
d="M282 -23q-122 1 -155 59t-8 189l102 525l-133 100v20l422 99l8 -6l-141 -732q-17 -81 15 -105t179 -28l4 -14q-171 -107 -293 -107zM109 1053l-31 30l348 371h43l195 -379l-31 -22l-221 151z" />
    <glyph glyph-name="idieresis" unicode="&#xef;" horiz-adv-x="602" 
d="M282 -23q-122 1 -155 59t-8 189l102 525l-133 100v20l422 99l8 -6l-141 -732q-17 -81 15 -105t179 -28l4 -14q-171 -107 -293 -107zM348 1235q0 -63 -44 -111t-108 -49q-64 0 -105 42q-40 43 -40 105t45 110q46 48 110 48t103 -41t39 -104zM741 1235q1 -63 -45 -111
t-110 -49q-64 0 -104 42q-40 43 -40 105t46 110t110 48t103 -41q40 -41 40 -104z" />
    <glyph glyph-name="eth" unicode="&#xf0;" horiz-adv-x="1013" 
d="M457 63q109 0 173 169t64 338q0 168 -41 226t-98 58q-109 0 -173 -169t-65 -338t41 -227t99 -57zM418 -23q-168 -1 -276 97t-107 266q0 246 186 425t404 187q-49 117 -136 215l-184 -135l-53 78l172 127q-104 102 -260 205l14 33q213 -61 365 -150l188 139l53 -78
l-155 -116q344 -242 344 -645q0 -289 -195 -488q-155 -160 -360 -160z" />
    <glyph glyph-name="ntilde" unicode="&#xf1;" horiz-adv-x="1114" 
d="M800 -23q-146 0 -147 140q0 41 15 108l65 328q58 219 -106 219q-78 0 -168 -53l-121 -719h-254l125 750l-127 100v20l397 99l8 -6l-38 -193l8 -6q201 195 356 194q246 0 178 -344l-76 -389q-14 -79 20 -101t169 -26l4 -14q-162 -107 -308 -107zM977 1358
q-53 -275 -201 -275q-74 0 -170 42t-141 42q-72 0 -123 -98l-43 12q54 277 201 277q74 0 169 -43t140 -43q72 0 123 98z" />
    <glyph glyph-name="ograve" unicode="&#xf2;" horiz-adv-x="1052" 
d="M336 312q0 -134 42 -194t108 -61q66 0 120 89q55 89 83 216t28 261q0 135 -42 195t-108 60t-121 -88q-54 -88 -82 -216t-28 -262zM449 -23q-189 -1 -291 99t-103 289q0 237 165 415t384 178q188 0 290 -99t103 -288q-1 -238 -165 -416t-383 -178zM643 1049
q-186 181 -222 241t-26 109t54 74q39 25 85 7t64 -67q43 -115 72 -348z" />
    <glyph glyph-name="oacute" unicode="&#xf3;" horiz-adv-x="1052" 
d="M336 312q0 -134 42 -194t108 -61q66 0 120 89q55 89 83 216t28 261q0 135 -42 195t-108 60t-121 -88q-54 -88 -82 -216t-28 -262zM449 -23q-189 -1 -291 99t-103 289q0 237 165 415t384 178q188 0 290 -99t103 -288q-1 -238 -165 -416t-383 -178zM545 1047l-25 18
q94 244 176 354q35 49 86 65t89 -8q38 -26 35 -78t-46 -100q-77 -83 -315 -251z" />
    <glyph glyph-name="ocircumflex" unicode="&#xf4;" horiz-adv-x="1052" 
d="M336 312q0 -134 42 -194t108 -61q66 0 120 89q55 89 83 216t28 261q0 135 -42 195t-108 60t-121 -88q-54 -88 -82 -216t-28 -262zM449 -23q-189 -1 -291 99t-103 289q0 237 165 415t384 178q188 0 290 -99t103 -288q-1 -238 -165 -416t-383 -178zM350 1053l-31 30
l349 371h43l194 -379l-31 -22l-221 151z" />
    <glyph glyph-name="otilde" unicode="&#xf5;" horiz-adv-x="1052" 
d="M336 312q0 -134 42 -194t108 -61q66 0 120 89q55 89 83 216t28 261q0 135 -42 195t-108 60t-121 -88q-54 -88 -82 -216t-28 -262zM449 -23q-189 -1 -291 99t-103 289q0 237 165 415t384 178q188 0 290 -99t103 -288q-1 -238 -165 -416t-383 -178zM983 1358
q-53 -275 -201 -275q-74 0 -170 42t-141 42q-72 0 -123 -98l-43 12q54 277 201 277q74 0 169 -43t140 -43q72 0 123 98z" />
    <glyph glyph-name="odieresis" unicode="&#xf6;" horiz-adv-x="1052" 
d="M336 312q0 -134 42 -194t108 -61q66 0 120 89q55 89 83 216t28 261q0 135 -42 195t-108 60t-121 -88q-54 -88 -82 -216t-28 -262zM449 -23q-189 -1 -291 99t-103 289q0 237 165 415t384 178q188 0 290 -99t103 -288q-1 -238 -165 -416t-383 -178zM608 1235
q0 -63 -44 -111t-108 -49q-64 0 -105 42q-40 43 -40 105t45 110q46 48 110 48t103 -41t39 -104zM702 1222q0 62 46 110t110 48t104 -41t40 -104t-46 -111t-110 -49q-64 0 -104 42q-40 43 -40 105z" />
    <glyph glyph-name="divide" unicode="&#xf7;" horiz-adv-x="1034" 
d="M488 428q54 0 92 -38t38 -92t-38 -91t-92 -37t-92 37t-38 91t38 92t92 38zM965 569h-867l19 117h866zM593 827q-54 0 -92 37t-38 91q0 55 38 93t92 38t92 -38t38 -92t-38 -92q-38 -37 -92 -37z" />
    <glyph glyph-name="oslash" unicode="&#xf8;" horiz-adv-x="1052" 
d="M477 57q74 0 131 89q113 176 113 466v25l-375 -457q35 -123 131 -123zM573 879q-72 0 -129 -89q-57 -88 -85 -214t-27 -254v-31l375 457q-33 131 -134 131zM604 958q141 0 230 -55l102 125l61 -53l-98 -119q98 -102 98 -285q-1 -237 -165 -415t-383 -179q-137 0 -226 52
l-106 -129l-62 51l103 125q-102 106 -103 289q0 237 165 415t384 178z" />
    <glyph glyph-name="ugrave" unicode="&#xf9;" horiz-adv-x="1155" 
d="M311 -23q-248 0 -182 345l84 428l-127 100v20l408 99l8 -6l-115 -580q-59 -213 111 -213q86 0 178 57l100 523l-133 100v20l418 99l8 -6l-143 -736q-14 -79 16 -101t172 -28l4 -14q-162 -106 -309 -107q-76 1 -113 47t-28 136l-13 8q-190 -191 -344 -191zM664 1049
q-186 181 -222 241t-26 109t51 74t87 7t64 -67q43 -115 72 -348z" />
    <glyph glyph-name="uacute" unicode="&#xfa;" horiz-adv-x="1155" 
d="M311 -23q-248 0 -182 345l84 428l-127 100v20l408 99l8 -6l-115 -580q-59 -213 111 -213q86 0 178 57l100 523l-133 100v20l418 99l8 -6l-143 -736q-14 -79 16 -101t172 -28l4 -14q-162 -106 -309 -107q-76 1 -113 47t-28 136l-13 8q-190 -191 -344 -191zM567 1047
l-24 18q94 244 176 354q35 49 86 65t89 -8q38 -26 35 -78t-46 -100q-78 -83 -316 -251z" />
    <glyph glyph-name="ucircumflex" unicode="&#xfb;" horiz-adv-x="1155" 
d="M311 -23q-248 0 -182 345l84 428l-127 100v20l408 99l8 -6l-115 -580q-59 -213 111 -213q86 0 178 57l100 523l-133 100v20l418 99l8 -6l-143 -736q-14 -79 16 -101t172 -28l4 -14q-162 -106 -309 -107q-76 1 -113 47t-28 136l-13 8q-190 -191 -344 -191zM381 1053
l-31 30l348 371h43l195 -379l-31 -22l-221 151z" />
    <glyph glyph-name="udieresis" unicode="&#xfc;" horiz-adv-x="1155" 
d="M311 -23q-248 0 -182 345l84 428l-127 100v20l408 99l8 -6l-115 -580q-59 -213 111 -213q86 0 178 57l100 523l-133 100v20l418 99l8 -6l-143 -736q-14 -79 16 -101t172 -28l4 -14q-162 -106 -309 -107q-76 1 -113 47t-28 136l-13 8q-190 -191 -344 -191zM610 1235
q0 -63 -44 -111t-108 -49q-64 0 -105 42q-40 43 -40 105t45 110q46 48 110 48t103 -41t39 -104zM1004 1235q0 -63 -46 -111t-110 -49q-64 0 -104 42q-40 43 -40 105t47 110q46 48 109 48q64 0 104 -41t40 -104z" />
    <glyph glyph-name="yacute" unicode="&#xfd;" horiz-adv-x="1038" 
d="M178 -449q-90 1 -142 53t-52 118t34 109q35 42 100 42q64 0 102 -60t38 -153q49 27 112 95q62 69 109 153q-82 399 -223 760q-20 51 -38 70q-18 20 -55 20q-36 0 -140 -37l-13 16q180 221 309 221q94 0 148 -102q86 -160 178 -657h12q98 356 160 778h25l223 -96
q-179 -423 -280 -632q-188 -387 -353 -560q-129 -138 -254 -138zM584 1047l-25 18q94 244 176 354q35 49 86 65t89 -8q38 -26 35 -78t-46 -100q-77 -83 -315 -251z" />
    <glyph glyph-name="thorn" unicode="&#xfe;" horiz-adv-x="1042" 
d="M514 98q60 0 106 52q79 88 109 285q12 79 12 147q0 203 -155 202q-70 0 -146 -43l-90 -528q76 -115 164 -115zM733 958q131 0 205 -87t74 -230q0 -238 -199 -451t-430 -213q-33 0 -70 7l-51 -306l152 -75l-4 -27h-557l6 27l149 78l271 1622l-127 100v20l407 99l8 -6
l-114 -691l8 -8q141 141 272 141z" />
    <glyph glyph-name="ydieresis" unicode="&#xff;" horiz-adv-x="1038" 
d="M178 -449q-90 1 -142 53t-52 118t34 109q35 42 100 42q64 0 102 -60t38 -153q49 27 112 95q62 69 109 153q-82 399 -223 760q-20 51 -38 70q-18 20 -55 20q-36 0 -140 -37l-13 16q180 221 309 221q94 0 148 -102q86 -160 178 -657h12q98 356 160 778h25l223 -96
q-179 -423 -280 -632q-188 -387 -353 -560q-129 -138 -254 -138zM571 1235q-1 -63 -45 -111t-108 -49q-64 0 -104 42q-40 43 -40 105t45 110t109 48t104 -41q39 -41 39 -104zM965 1235q0 -63 -46 -111q-45 -48 -109 -49q-64 0 -104 42q-40 43 -40 105t46 110t109 48t103 -41
t41 -104z" />
    <glyph glyph-name="dotlessi" unicode="&#x131;" horiz-adv-x="602" 
d="M282 -23q-122 1 -155 59t-8 189l102 525l-133 100v20l422 99l8 -6l-141 -732q-17 -81 15 -105t179 -28l4 -14q-171 -107 -293 -107z" />
    <glyph glyph-name="Lslash" unicode="&#x141;" horiz-adv-x="1218" 
d="M-20 0l6 35l186 49l74 465l-144 -37l-18 92l178 45l90 572l-170 49l6 35h668l-6 -35l-197 -51l-78 -486l252 66l21 -92l-289 -76l-88 -559l174 10q154 8 275 147l198 226l37 -15l-90 -440h-1085z" />
    <glyph glyph-name="lslash" unicode="&#x142;" horiz-adv-x="628" 
d="M272 -23q-104 1 -136 59t-9 189l70 416l-136 -35l-20 86l172 43l94 568l-127 100v20l408 99l8 -6l-119 -711l160 41l22 -86l-198 -51l-78 -478q-13 -81 17 -105t171 -28l4 -14q-162 -107 -303 -107z" />
    <glyph glyph-name="OE" unicode="&#x152;" horiz-adv-x="1986" 
d="M743 76l99 -4l184 1159l-104 -8q-142 -10 -246 -80q-104 -69 -160 -177q-112 -212 -110 -470q0 -186 82 -299t255 -121zM739 0q-291 0 -472 140t-181 411q0 336 228 545t640 209h975l-10 -441l-41 -10l-147 225q-55 86 -103 114t-147 34l-154 8l-86 -543h33q102 0 165 45
q62 45 120 150l26 49h41l-90 -567h-37l-12 61q-19 96 -69 137t-148 41h-41l-86 -536l246 12q150 8 272 135l213 215l37 -14l-107 -420h-1065z" />
    <glyph glyph-name="oe" unicode="&#x153;" horiz-adv-x="1558" 
d="M336 312q0 -134 42 -194t108 -61q66 0 120 89q55 89 83 216t28 261q0 135 -42 195t-108 60t-121 -88q-54 -88 -82 -216t-28 -262zM1288 797q0 37 -18 59t-51 23q-80 0 -158 -117t-94 -262q165 10 243 98t78 199zM1534 752q0 -132 -132 -220t-439 -90q-7 -309 229 -309
q118 0 272 94l15 -18q-67 -103 -177 -167t-235 -65q-190 0 -281 150q-150 -150 -339 -150q-189 -1 -290 99t-102 289q0 237 164 415t381 178t307 -161q162 162 371 161q112 0 184 -59t72 -147z" />
    <glyph glyph-name="Scaron" unicode="&#x160;" horiz-adv-x="1103" 
d="M542 47q118 -1 173 61t55 151t-53 141t-171 118t-163 96q-125 82 -162 174q-20 53 -20 123q0 195 141 310t318 115t278 -81l78 70h45l-21 -430l-51 -6q-90 217 -162 293t-169 76t-150 -62q-53 -61 -53 -144t51 -131q51 -49 168 -113t162 -94t94 -77q88 -84 90 -229
q0 -203 -143 -321t-346 -118t-334 105l-93 -94h-45l33 471l55 4q97 -236 187 -322t208 -86zM672 1440l-195 379l31 22l221 -151l303 151l31 -31l-348 -370h-43z" />
    <glyph glyph-name="scaron" unicode="&#x161;" horiz-adv-x="833" 
d="M332 -23q-138 -1 -230 63t-92 161q0 61 37 101t99 40t96 -67q35 -67 6 -169q70 -51 162 -51q129 0 129 111q0 88 -129 164l-84 49q-102 59 -152 119t-49 143q0 129 107 223q108 94 282 94q129 0 204 -54t75 -124t-33 -106q-32 -35 -92 -35t-102 61t-40 152q-43 31 -92 31
t-78 -37t-28 -86q0 -78 125 -148l88 -49q111 -61 159 -123t48 -141q0 -133 -110 -227t-306 -95zM492 1059l-195 379l31 22l221 -151l303 151l31 -30l-348 -371h-43z" />
    <glyph glyph-name="Ydieresis" unicode="&#x178;" horiz-adv-x="1294" 
d="M248 0l6 35l188 63l76 484l-274 616l-148 72l6 35h643l-6 -35l-153 -62l202 -524l347 522l-125 66l6 33h432l-8 -39l-158 -68l-461 -600l-78 -500l170 -63l-6 -35h-659zM689 1761q63 0 103 -41t40 -104q0 -64 -46 -112q-44 -48 -108 -48t-104 42t-40 104t46 111
q45 48 109 48zM1225 1616q0 -64 -46 -112q-45 -48 -109 -48t-104 42t-40 104t46 111q46 48 109 48t103 -41t41 -104z" />
    <glyph glyph-name="Zcaron" unicode="&#x17d;" horiz-adv-x="1263" 
d="M-41 0l-4 20l960 1199l-264 -7q-78 -2 -141 -36t-156 -132l-159 -163l-31 10l100 414h1032l4 -21l-952 -1202l328 6q78 2 137 40t129 120l180 211l31 -10l-100 -449h-1094zM715 1440l-195 379l31 22l221 -151l303 151l31 -31l-348 -370h-43z" />
    <glyph glyph-name="zcaron" unicode="&#x17e;" horiz-adv-x="919" 
d="M617 -23q-76 0 -224 56l-162 61l-200 -92l-33 29l641 649q-272 80 -391 80q-37 0 -70 -8l-2 -9q150 -39 150 -147q0 -53 -32 -86t-88 -33t-94 42t-38 104q0 102 87 222t222 120q102 0 293 -66l90 -31l186 86l31 -34l-627 -631l248 -58q76 -15 121 5t131 112l21 -8
q-84 -227 -134 -295t-126 -68zM518 1059l-194 379l30 22l221 -151l304 151l30 -30l-348 -371h-43z" />
    <glyph glyph-name="florin" unicode="&#x192;" horiz-adv-x="1034" 
d="M55 -379q-88 0 -143 40t-55 96q0 55 37 95t90 39q133 0 194 -161q37 53 86 329l94 543h-211l5 33l235 98q50 249 202 401t335 152q82 0 140 -44t58 -102t-35 -96t-95 -36q-60 0 -118 45q-57 45 -94 131q-51 -49 -85 -133t-70 -306l-4 -24h260l-21 -119h-260l-55 -330
q-61 -362 -246 -544q-107 -107 -244 -107z" />
    <glyph glyph-name="circumflex" unicode="&#x2c6;" horiz-adv-x="653" 
d="M154 1053l-31 30l348 371h43l195 -379l-31 -22l-221 151z" />
    <glyph glyph-name="caron" unicode="&#x2c7;" horiz-adv-x="653" 
d="M381 1059l-195 379l31 22l221 -151l303 151l31 -30l-348 -371h-43z" />
    <glyph glyph-name="breve" unicode="&#x2d8;" horiz-adv-x="688" 
d="M449 1071q-133 0 -204 89t-61 249l54 14q51 -163 233 -163t270 165l56 -18q-39 -162 -127 -249t-221 -87z" />
    <glyph glyph-name="dotaccent" unicode="&#x2d9;" horiz-adv-x="423" 
d="M481 1256q-1 -64 -45 -112t-108 -48t-104 42t-40 104t45 110t109 49q64 0 104 -41q39 -40 39 -104z" />
    <glyph glyph-name="ring" unicode="&#x2da;" horiz-adv-x="530" 
d="M367 1090q47 0 69 59t23 146q0 87 -62 87q-47 0 -69 -59t-22 -146t61 -87zM390 1432q98 0 150 -50t52 -131q0 -83 -60 -147t-159 -64q-97 0 -149 50t-52 130q0 82 60 147t158 65z" />
    <glyph glyph-name="ogonek" unicode="&#x2db;" horiz-adv-x="550" 
d="M96 -543q-84 1 -146 61t-63 150q0 229 424 424l19 -29q-139 -111 -204 -189t-65 -169q0 -137 144 -137q53 0 96 39l23 -23q-27 -55 -85 -91t-143 -36z" />
    <glyph glyph-name="tilde" unicode="&#x2dc;" horiz-adv-x="718" 
d="M821 1358q-53 -275 -201 -275q-74 0 -170 42t-141 42q-72 0 -123 -98l-43 12q54 277 201 277q74 0 169 -43t140 -43q72 0 123 98z" />
    <glyph glyph-name="hungarumlaut" unicode="&#x2dd;" horiz-adv-x="684" 
d="M152 1053l-25 16q98 250 174 354q37 49 88 65t88 -10t36 -78t-44 -97q-81 -86 -317 -250zM457 1055l-23 18q100 244 184 350q38 49 90 63t89 -14t31 -78t-65 -114q-60 -64 -306 -225z" />
    <glyph glyph-name="Delta" unicode="&#x394;" 
d="M51 -410v2048h922v-2048h-922z" />
    <glyph glyph-name="Omega" unicode="&#x3a9;" horiz-adv-x="1220" 
d="M840 928q18 128 82 254q-141 41 -136 243h-4q-113 -8 -172 -125t-94 -346l-4 -26h328zM1403 1518q86 0 148 -46q63 -46 63 -107q0 -60 -37 -99t-96 -39t-121 47q-61 47 -103 137q-57 -53 -96 -145t-71 -312l-5 -26h269l-21 -123h-264l-70 -555q-53 -408 -231 -586
q-121 -121 -250 -121q-72 0 -121 38t-49 95q0 58 36 96t91 38q117 0 191 -115q18 39 36 190l113 920h-319l-76 -567q-53 -383 -238 -568q-111 -111 -248 -110q-92 0 -152 43t-60 101t35 97q36 39 91 39q139 0 211 -170q39 66 78 344l107 791h-217l4 35l237 102
q41 248 207 416q141 143 339 143t269 -115q37 29 58 44q133 88 262 88z" />
    <glyph glyph-name="pi" unicode="&#x3c0;" horiz-adv-x="1503" 
d="M928 791q0 139 -121 155q-25 4 -64 4v-319q25 2 74 7t80 46t31 107zM469 307v33l88 29v567l-88 31v30h381q139 0 204 -59q64 -58 64 -148t-74 -154t-188 -65q-55 0 -113 11v-213l107 -29v-33h-381zM778 43q248 0 424 179t176 430t-176 430q-176 180 -424 180t-424 -180
t-176 -430q0 -251 176 -430t424 -179zM778 -31q-284 0 -484 200q-200 199 -200 483t201 484t483 200t484 -200q200 -200 200 -484t-200 -484t-484 -199z" />
    <glyph glyph-name="endash" unicode="&#x2013;" horiz-adv-x="1091" 
d="M78 471l14 92h936l-14 -92h-936z" />
    <glyph glyph-name="emdash" unicode="&#x2014;" horiz-adv-x="1603" 
d="M78 471l14 92h1448l-14 -92h-1448z" />
    <glyph glyph-name="quoteleft" unicode="&#x2018;" horiz-adv-x="446" 
d="M326 801q-68 0 -113 55t-45 143q0 225 289 351l22 -29q-162 -139 -198 -262l4 -4l41 12q12 4 50 4t70 -35q33 -35 33 -92t-42 -100q-43 -43 -111 -43z" />
    <glyph glyph-name="quoteright" unicode="&#x2019;" horiz-adv-x="446" 
d="M280 1065q-38 0 -71 35t-33 92t42 100t111 43t113 -55t45 -143q1 -226 -288 -351l-23 29q162 139 199 262l-4 4l-41 -12q-12 -4 -50 -4z" />
    <glyph glyph-name="quotesinglbase" unicode="&#x201a;" horiz-adv-x="446" 
d="M116 -14q-38 0 -71 34t-33 92t42 101t111 43t114 -55t45 -144q0 -225 -289 -350l-23 29q162 139 199 262l-4 4l-41 -12q-12 -4 -50 -4z" />
    <glyph glyph-name="quotedblleft" unicode="&#x201c;" horiz-adv-x="786" 
d="M356 1083q47 1 79 -33t32 -87t-40 -95q-39 -42 -105 -43q-66 1 -109 53t-43 138q0 215 276 334l21 -27q-158 -137 -188 -252l2 -4l41 12q20 4 34 4zM713 1083q47 1 79 -33t32 -87t-41 -95q-39 -42 -105 -43q-66 1 -109 53t-43 138q0 215 277 334l20 -27
q-158 -137 -188 -252l2 -4l41 12q20 4 35 4z" />
    <glyph glyph-name="quotedblright" unicode="&#x201d;" horiz-adv-x="788" 
d="M289 1077q-47 0 -79 34t-32 87t40 95t106 42t108 -52q43 -52 43 -138q0 -215 -276 -334l-21 27q158 137 189 252l-2 4l-41 -13q-20 -4 -35 -4zM645 1077q-47 0 -79 34t-32 87t40 95t106 42t108 -52t43 -138q0 -215 -276 -334l-20 27q158 137 188 252l-2 4l-41 -13
q-20 -4 -35 -4z" />
    <glyph glyph-name="quotedblbase" unicode="&#x201e;" horiz-adv-x="788" 
d="M123 -2q-47 0 -79 34t-32 87t40 95t106 42t108 -52t43 -138q0 -215 -276 -334l-21 26q158 137 189 252l-2 4l-41 -12q-20 -4 -35 -4zM479 -2q-47 0 -79 34t-32 87t41 95q39 42 105 42t109 -52t43 -138q-1 -215 -277 -334l-20 26q158 137 188 252l-2 4l-41 -12
q-20 -4 -35 -4z" />
    <glyph glyph-name="dagger" unicode="&#x2020;" horiz-adv-x="909" 
d="M301 -170l164 985l-375 -8l14 96l375 -8l68 477h102l-84 -477l375 8l-14 -96l-375 8l-148 -985h-102z" />
    <glyph glyph-name="daggerdbl" unicode="&#x2021;" horiz-adv-x="909" 
d="M301 -170l84 477l-375 -8l15 96l374 -8l68 428l-377 -8l14 96l375 -8l68 477h102l-84 -477l375 8l-14 -96l-373 8l-68 -428l375 8l-14 -96l-375 8l-68 -477h-102z" />
    <glyph glyph-name="bullet" unicode="&#x2022;" horiz-adv-x="962" 
d="M510 322q-137 0 -235 97q-97 97 -97 234t97 233t235 97q138 0 233 -96q97 -95 97 -233t-96 -235t-234 -97z" />
    <glyph glyph-name="ellipsis" unicode="&#x2026;" horiz-adv-x="1318" 
d="M156 -33q-59 0 -103 43q-43 42 -43 102t43 102t103 42t101 -42q42 -42 42 -101t-42 -103t-101 -43zM602 -33q-59 0 -102 43q-43 42 -43 102t43 102t102 42t101 -42t42 -101t-42 -103t-101 -43zM1049 -33q-59 0 -103 43q-43 42 -43 102t43 102q42 42 102 42t102 -42
t42 -101t-42 -103t-101 -43z" />
    <glyph glyph-name="perthousand" unicode="&#x2030;" horiz-adv-x="1503" 
d="M905 802q0 64 -37 102t-96 42l-65 6v-299l65 2q61 2 97 42t36 105zM432 307v33l88 29v567l-88 31v30h449q104 0 156 -50q53 -50 53 -117q0 -68 -50 -118t-159 -67v-4q84 -10 125 -43q41 -32 58 -102q31 -128 99 -156v-33h-133q-61 0 -92 27t-57 98l-39 105q-14 41 -41 55
t-88 14h-6v-237l88 -29v-33h-363zM778 43q248 0 424 179t176 430t-176 430q-176 180 -424 180t-424 -180t-176 -430q0 -251 176 -430t424 -179zM778 -31q-284 0 -484 200q-200 199 -200 483t201 484t483 200t484 -200q200 -200 200 -484t-200 -484t-484 -199z" />
    <glyph glyph-name="guilsinglleft" unicode="&#x2039;" horiz-adv-x="626" 
d="M393 61l-334 390l4 20l455 387l45 -49l-282 -346l168 -361z" />
    <glyph glyph-name="guilsinglright" unicode="&#x203a;" horiz-adv-x="626" 
d="M104 61l-45 50l283 346l-168 360l55 41l334 -389l-4 -20z" />
    <glyph glyph-name="fraction" unicode="&#x2044;" horiz-adv-x="1097" 
d="M133 -72l-72 54l482 667l471 674l71 -55l-481 -666z" />
    <glyph glyph-name="trademark" unicode="&#x2122;" horiz-adv-x="1116" 
d="M229 922v22l54 19v317q-48 -7 -72 -43l-59 -82l-17 4l17 146h368l12 -146l-16 -4l-57 82q-25 36 -70 43v-317l51 -19v-22h-211zM594 922v22l53 25v293l-53 18v25h194l19 -64l65 -176h5l63 176l21 64h186v-25l-51 -18v-299l51 -19v-22h-199v22l41 19v292h-8l-125 -333h-33
l-133 333h-8v-286l55 -25v-22h-143z" />
    <glyph glyph-name="partialdiff" unicode="&#x2202;" 
d="M51 -410v2048h922v-2048h-922z" />
    <glyph glyph-name="product" unicode="&#x220f;" 
d="M51 -410v2048h922v-2048h-922z" />
    <glyph glyph-name="summation" unicode="&#x2211;" 
d="M51 -410v2048h922v-2048h-922z" />
    <glyph glyph-name="minus" unicode="&#x2212;" horiz-adv-x="1034" 
d="M963 565h-867l21 125h866z" />
    <glyph glyph-name="radical" unicode="&#x221a;" horiz-adv-x="1748" 
d="M512 928h328l4 26q20 121 74 230q-137 45 -132 241h-4q-113 -8 -172 -125t-94 -346zM1085 928h306l49 291q-123 41 -137 204h-5q-74 -12 -122 -117t-86 -352zM518 -457q-72 0 -121 38t-49 95q0 58 36 96t91 38q117 0 191 -115q18 39 36 190l113 920h-319l-76 -567
q-53 -383 -238 -568q-111 -111 -248 -110q-92 0 -152 43t-60 101t35 97q36 39 91 39q139 0 211 -170q39 66 78 344l107 791h-217l4 35l237 102q41 248 207 416q141 143 333 143t271 -106q144 123 310 123q92 0 159 -41l187 45l8 -6l-213 -1285q-14 -81 16 -105t172 -28
l4 -14q-162 -106 -303 -107q-104 1 -136 59t-9 189l96 580h-301l-70 -555q-53 -408 -231 -586q-121 -121 -250 -121z" />
    <glyph glyph-name="infinity" unicode="&#x221e;" 
d="M51 -410v2048h922v-2048h-922z" />
    <glyph glyph-name="integral" unicode="&#x222b;" 
d="M51 -410v2048h922v-2048h-922z" />
    <glyph glyph-name="approxequal" unicode="&#x2248;" horiz-adv-x="1748" 
d="M512 928h328l4 26q25 135 71 230q-135 45 -129 241h-4q-113 -8 -172 -125t-94 -346zM1403 1518q163 0 239 -70t76 -150q0 -51 -40 -90t-102 -39t-119 69q-56 69 -64 198q-16 4 -31 4q-201 0 -272 -486l-5 -26h431l141 41l8 -6l-141 -732q-16 -81 16 -105t178 -28l4 -14
q-172 -106 -294 -106t-154 58q-33 58 -8 189l112 580h-309l-70 -555q-53 -408 -231 -586q-121 -121 -250 -121q-72 0 -121 38t-49 95q0 58 36 96t91 38q117 0 191 -115q18 39 36 190l113 920h-319l-76 -567q-53 -383 -238 -568q-111 -111 -248 -110q-92 0 -152 43t-60 101
t35 97q36 39 91 39q139 0 211 -170q39 66 78 344l107 791h-217l4 35l237 102q41 248 207 416q141 143 331 143t267 -100q126 117 330 117z" />
    <glyph glyph-name="notequal" unicode="&#x2260;" 
d="M51 -410v2048h922v-2048h-922z" />
    <glyph glyph-name="lessequal" unicode="&#x2264;" 
d="M51 -410v2048h922v-2048h-922z" />
    <glyph glyph-name="greaterequal" unicode="&#x2265;" 
d="M51 -410v2048h922v-2048h-922z" />
    <glyph glyph-name="lozenge" unicode="&#x25ca;" horiz-adv-x="1042" 
d="M463 1027q0 -46 -41 -82q-40 -36 -102 -36t-115 23l-19 -23h-22l-6 146h26q74 -121 146 -121q25 0 40 17t15 44t-21 42q-22 15 -80 36t-87 45t-29 74q0 51 40 86t94 35t95 -19l17 19h22l10 -127l-26 -2q-80 104 -123 104q-49 0 -49 -55q0 -27 22 -43t70 -32
q47 -16 69 -29q54 -27 54 -102zM1073 922h-199v22l41 19v292h-8l-125 -333h-32l-134 333h-8v-286l56 -25v-22h-144v22l53 25v293l-53 18v25h195l18 -64l66 -176h4l63 176l21 64h186v-25l-51 -18v-299l51 -19v-22z" />
    <glyph glyph-name="apple" unicode="&#xf8ff;" horiz-adv-x="1421" 
d="M872 580q-31 0 -30 34q0 12 9 24t22 11q13 0 23 -11q10 -10 9 -24q1 -14 -9 -24t-24 -10zM999 612h-24v35h22q20 0 21 -16q-1 -19 -19 -19zM664 823q-35 1 -35 47t30 76l41 -80q-12 -43 -36 -43zM645 1056q0 30 29 29q27 -1 27 -35t-31 -69q-25 45 -25 75zM494 662
l30 -97h17l20 70h2l23 -70h16l29 97h-17l-20 -72h-2l-21 72h-16l-23 -72h-2l-20 72h-16zM270 662v-95h17v66l51 -66h14v95h-16v-66l-51 66h-15zM395 662v-95h68v15h-51v26h45v15h-45v24h51v15h-68zM750 567h16v35l37 60h-19l-26 -46l-27 46h-18l37 -60v-35zM874 565
q22 0 34 15q32 34 0 68q-14 16 -36 16q-20 0 -33 -16t-13 -34q0 -20 12 -34q14 -14 36 -15zM1034 626q0 34 -33 36h-43v-95h17v31h24l21 -31h18l-24 35q20 6 20 24zM1071 662v-95h16v27l15 14l33 -41h18l-39 54l37 41h-21l-43 -50v50h-16zM598 884q0 -92 68 -90q32 0 51 50
h2l24 -49l23 16l-33 61q20 47 27 80l-27 6q-4 -18 -18 -61l-33 64q47 43 47 77q0 72 -55 72q-25 0 -41 -19q-17 -19 -17 -45t29 -79q-47 -37 -47 -83zM985 799q63 0 64 73v281h-33v-281q0 -45 -33 -45q-20 0 -41 13v-33q16 -8 43 -8zM377 1153v-352h31v162h96v-162h31v352
h-31v-162h-96v162h-31zM819 1153v-352h31v160h78v28h-78v135h88v29h-119zM1319 -410h-426l-16 29h-334l-17 -29h-424v621q29 0 48 19q18 19 18 46q0 26 -20 46t-46 20v1135h205l62 161h684l59 -161h207v-1887z" />
    <glyph glyph-name="fi" unicode="&#xfb01;" horiz-adv-x="1175" 
d="M-68 -449q-92 0 -152 43q-60 44 -60 102t35 97q36 39 91 39q139 0 211 -170q39 66 78 344l109 799h-217l4 35l237 102q45 272 209 436q137 139 352 140q162 0 239 -70t77 -150q0 -51 -40 -90q-41 -39 -103 -39t-118 69t-65 198q-16 4 -31 4q-201 0 -272 -486l-4 -26h430
l141 41l9 -6l-142 -732q-16 -81 16 -105t179 -28l4 -14q-171 -106 -293 -106t-156 58t-8 189l113 580h-309l-78 -576q-53 -383 -238 -567q-111 -111 -248 -111z" />
    <glyph glyph-name="fl" unicode="&#xfb02;" horiz-adv-x="1175" 
d="M512 928h305l49 291q-123 41 -137 204h-4q-74 -12 -123 -117t-86 -352zM-68 -449q-92 0 -152 43q-60 44 -60 102t35 97q36 39 91 39q139 0 211 -170q39 66 78 344l109 799h-217l4 35l237 102q43 260 201 418t346 158q92 0 160 -41l186 45l8 -6l-213 -1285
q-14 -81 17 -105t172 -28l4 -14q-162 -106 -303 -107q-104 1 -136 59t-10 189l97 580h-301l-78 -576q-53 -383 -238 -567q-111 -111 -248 -111z" />
    <glyph glyph-name="NUL" horiz-adv-x="0" 
 />
    </font>
</defs>
</svg>
